<?xml version="1.0" encoding="utf-8"?>
<!-- Generator: Adobe Illustrator 27.3.1, SVG Export Plug-In . SVG Version: 6.00 Build 0)  -->
<svg version="1.1" id="レイヤー_1" xmlns="http://www.w3.org/2000/svg" xmlns:xlink="http://www.w3.org/1999/xlink" x="0px"
	 y="0px" width="210px" height="56px" viewBox="0 0 210 56" style="enable-background:new 0 0 210 56;" xml:space="preserve">
<style type="text/css">
	.st0{fill:#8BC01F;}
	.st1{fill:#004E7E;}
	.st2{fill:url(#SVGID_1_);}
	.st3{fill:url(#SVGID_00000124868636716435431180000002106635697762010498_);}
	.st4{fill:url(#SVGID_00000150792665260672957830000011901293525805425539_);}
</style>
<g>
	<path d="M81.8,22v1.7H63.7V22h8v-1.9h2V22H81.8z M81.1,37.2c0,1-0.2,1.5-0.9,1.8c-0.7,0.3-1.8,0.3-3.5,0.3
		c-0.1-0.5-0.4-1.3-0.6-1.8h-5.6v1h-1.7V33h7.9v4.5c0.9,0,1.7,0,2,0c0.3,0,0.4-0.1,0.4-0.4v-5.3H66.5v7.5h-1.9v-9.2h16.5V37.2z
		 M78.4,24.7v4.4H67.1v-4.4H78.4z M76.4,26H69v1.7h7.4V26z M75,34.4h-4.5v1.8H75V34.4z"/>
	<path d="M93,27.7c0.6,0.8,2,3.1,2.4,3.6l-1,1.4C94.1,32.1,93.5,31,93,30v9.4h-1.8v-8.8c-0.6,2-1.3,3.8-2.2,5
		c-0.2-0.5-0.6-1.3-0.9-1.7c1.2-1.7,2.4-4.8,2.9-7.5h-2.5v-1.8h2.6v-4.4H93v4.4h2.2v1.8H93V27.7z M104.2,25.1
		c0.9,1.2,2.3,2.3,3.7,2.9c-0.4,0.3-0.9,0.9-1.2,1.4c-0.7-0.4-1.4-0.9-2-1.4v2.2h-6.8v-2.2c-0.6,0.5-1.3,1-2.1,1.5
		c-0.3-0.4-0.8-1-1.2-1.3c1.6-0.8,2.7-1.9,3.5-3h-2.8v-1.5h3.7c0.2-0.4,0.3-0.7,0.4-1.1c-1.1,0.1-2.3,0.1-3.3,0.1
		c0-0.4-0.3-1-0.4-1.3c3.2-0.1,7.2-0.4,9.3-0.9l1.1,1.3c-1.3,0.3-3,0.5-4.8,0.7c-0.1,0.4-0.3,0.8-0.4,1.2h6.4v1.5H104.2z M107,37.5
		c0,0.8-0.2,1.3-0.8,1.6c-0.6,0.3-1.5,0.3-2.8,0.3c-0.1-0.5-0.4-1.2-0.6-1.6c0.9,0,1.7,0,2,0c0.3,0,0.3-0.1,0.3-0.3v-5h-7.8v6.9
		h-1.8V31H107V37.5z M100.1,37.4v0.9h-1.4v-4.8h5.3v3.9H100.1z M100.2,25.1c-0.2,0.4-0.5,0.8-0.7,1.1h3.7c-0.3-0.4-0.5-0.8-0.8-1.1
		H100.2z M103,27.4h-3.4v1.5h3.4V27.4z M100.1,34.7v1.6h2.4v-1.6H100.1z"/>
	<path d="M119.9,31.8c-0.3-0.7-0.9-1.8-1.4-2.9v10.4h-1.9v-9.3c-0.7,2.1-1.5,4-2.4,5.2c-0.2-0.5-0.6-1.4-1-1.9
		c1.3-1.7,2.6-4.8,3.2-7.5h-2.7v-1.8h2.9v-3.9h1.9v3.9h2.5v1.8h-2.5v0.7c0.6,0.8,2.2,3.3,2.5,3.9L119.9,31.8z M129,30.8
		c1,2.3,2.6,4.6,4.2,5.9c-0.5,0.4-1.1,1-1.4,1.5c-1.4-1.4-2.8-3.6-3.8-6v7.1H126v-7c-1.2,2.5-2.9,4.7-4.8,6
		c-0.3-0.5-0.9-1.2-1.3-1.5c2-1.3,3.9-3.6,5.1-6.1h-3.8V29h4.8v-3.3h-2.3c-0.4,1.1-0.8,2.1-1.3,2.8c-0.3-0.3-1.1-0.8-1.6-1
		c1.1-1.6,1.7-4,2.1-6.4l1.8,0.3c-0.1,0.9-0.3,1.7-0.5,2.5h1.8v-3.8h1.9v3.8h4v1.8h-4V29h4.6v1.8H129z"/>
	<path d="M151.8,25.7c0.5,6.6,1.9,11.6,3.8,11.6c0.5,0,0.8-1.1,0.9-3.9c0.4,0.5,1.2,0.9,1.7,1.1c-0.3,3.8-1,4.8-2.8,4.8
		c-3.5,0-5.1-6.1-5.6-13.7h-10.6v-1.9h10.5c0-1.2-0.1-2.4-0.1-3.6h2.1c0,1.2,0,2.5,0,3.6h6v1.9H151.8z M145.3,35.7
		c1.4-0.3,2.8-0.5,4.2-0.8l0.1,1.8c-3.5,0.8-7.2,1.6-9.9,2.2l-0.6-2c1.1-0.2,2.6-0.5,4.2-0.8v-5.6h-3.5v-1.9h9.1v1.9h-3.7V35.7z
		 M154,20.2c1,0.7,2.3,1.7,2.9,2.4l-1.4,1.2c-0.6-0.7-1.8-1.8-2.8-2.6L154,20.2z"/>
	<path d="M168.6,26.8c-1.2,0.8-2.4,1.6-3.7,2.2c-0.2-0.4-0.7-1.2-1.2-1.6c3.6-1.6,7-4.7,8.6-7.2h2c2.2,3.1,5.7,5.6,9,6.9
		c-0.5,0.5-0.9,1.2-1.2,1.8c-1.2-0.6-2.5-1.3-3.7-2.2v1.6h-9.8V26.8z M165,30.5h17.2v1.8h-9.6c-0.7,1.4-1.5,3-2.2,4.3
		c2.3-0.1,4.9-0.2,7.5-0.3c-0.8-0.9-1.6-1.8-2.4-2.5l1.7-0.9c1.9,1.6,3.9,3.8,4.9,5.4l-1.8,1.1c-0.2-0.4-0.5-0.9-0.9-1.4
		c-5,0.3-10.3,0.5-13.9,0.6l-0.3-1.9l3.1-0.1c0.7-1.3,1.4-3,2-4.4H165V30.5z M178.2,26.5c-1.9-1.3-3.6-2.9-4.7-4.5
		c-1,1.5-2.6,3-4.5,4.5H178.2z"/>
	<path d="M196.9,33.5c-0.5-0.6-1.4-1.6-2.3-2.5v8.4h-1.9v-7.7c-0.9,0.9-2,1.7-2.9,2.4c-0.2-0.5-0.7-1.4-1-1.8
		c2.4-1.4,4.8-3.8,6.2-6.4h-5.5V24h3.2v-3.9h1.9V24h1.4l0.3-0.1l1.1,0.7c-0.6,1.6-1.6,3.1-2.6,4.5c1,0.8,2.7,2.3,3.2,2.8L196.9,33.5
		z M208.6,36.9v1.9h-11.8v-1.9h5.1v-8.2h-4.2v-1.9h4.2v-6.5h2v6.5h4.2v1.9h-4.2v8.2H208.6z"/>
</g>
<g>
	<g>
		<g>
			<path class="st0" d="M35.5,3.8c-6.1,0-11.7,1.4-16,3.8v15.5c4.3-2.4,9.9-3.8,16-3.8c6.1,0,11.6,1.4,15.9,3.8V7.6
				C47.1,5.2,41.6,3.8,35.5,3.8z"/>
		</g>
		<g>
			<path class="st0" d="M3.6,19.2c-0.7,0-1.4,0-2.2-0.1v15.5c0.7,0,1.4,0.1,2.2,0.1c6.1,0,11.6-1.4,15.9-3.8V15.4
				C15.2,17.8,9.7,19.2,3.6,19.2z"/>
		</g>
		<g>
			<path class="st1" d="M35.5,27c-6.1,0-11.7,1.4-16,3.8v22.4c4.3-2.4,9.9-3.8,16-3.8c1,0,2,0,3,0.1V27.1C37.5,27.1,36.5,27,35.5,27
				z"/>
		</g>
		<g>
			<linearGradient id="SVGID_1_" gradientUnits="userSpaceOnUse" x1="19.5312" y1="13.439" x2="51.4265" y2="13.439">
				<stop  offset="0" style="stop-color:#FFFFFF"/>
				<stop  offset="0.1651" style="stop-color:#FCFDFC"/>
				<stop  offset="0.2971" style="stop-color:#F4F7F2"/>
				<stop  offset="0.4176" style="stop-color:#E7ECE1"/>
				<stop  offset="0.5314" style="stop-color:#D3DEC9"/>
				<stop  offset="0.6405" style="stop-color:#BACBAA"/>
				<stop  offset="0.7461" style="stop-color:#9BB385"/>
				<stop  offset="0.8488" style="stop-color:#779758"/>
				<stop  offset="0.9466" style="stop-color:#4E7826"/>
				<stop  offset="0.9995" style="stop-color:#356507"/>
			</linearGradient>
			<path class="st2" d="M35.5,3.8c-6.1,0-11.7,1.4-16,3.8v15.5c4.3-2.4,9.9-3.8,16-3.8c6.1,0,11.6,1.4,15.9,3.8V7.6
				C47.1,5.2,41.6,3.8,35.5,3.8z"/>
		</g>
		<g>
			
				<linearGradient id="SVGID_00000070815897584071286370000013521665594783218868_" gradientUnits="userSpaceOnUse" x1="1.4265" y1="25.0372" x2="19.5312" y2="25.0372">
				<stop  offset="0" style="stop-color:#FFFFFF"/>
				<stop  offset="0.1651" style="stop-color:#FCFDFC"/>
				<stop  offset="0.2971" style="stop-color:#F4F7F2"/>
				<stop  offset="0.4176" style="stop-color:#E7ECE1"/>
				<stop  offset="0.5314" style="stop-color:#D3DEC9"/>
				<stop  offset="0.6405" style="stop-color:#BACBAA"/>
				<stop  offset="0.7461" style="stop-color:#9BB385"/>
				<stop  offset="0.8488" style="stop-color:#779758"/>
				<stop  offset="0.9466" style="stop-color:#4E7826"/>
				<stop  offset="0.9995" style="stop-color:#356507"/>
			</linearGradient>
			<path style="fill:url(#SVGID_00000070815897584071286370000013521665594783218868_);" d="M3.6,19.2c-0.7,0-1.4,0-2.2-0.1v15.5
				c0.7,0,1.4,0.1,2.2,0.1c6.1,0,11.6-1.4,15.9-3.8V15.4C15.2,17.8,9.7,19.2,3.6,19.2z"/>
		</g>
		<g>
			
				<linearGradient id="SVGID_00000072970595030649525180000009329818870896235705_" gradientUnits="userSpaceOnUse" x1="19.5312" y1="40.1586" x2="38.4526" y2="40.1586">
				<stop  offset="0" style="stop-color:#FFFFFF"/>
				<stop  offset="0.1633" style="stop-color:#FCFCFD"/>
				<stop  offset="0.2939" style="stop-color:#F2F4F6"/>
				<stop  offset="0.4131" style="stop-color:#E1E6EB"/>
				<stop  offset="0.5257" style="stop-color:#C9D2DB"/>
				<stop  offset="0.6337" style="stop-color:#AAB9C6"/>
				<stop  offset="0.738" style="stop-color:#8599AD"/>
				<stop  offset="0.8396" style="stop-color:#58748F"/>
				<stop  offset="0.9364" style="stop-color:#264A6D"/>
				<stop  offset="0.9986" style="stop-color:#012C55"/>
			</linearGradient>
			<path style="fill:url(#SVGID_00000072970595030649525180000009329818870896235705_);" d="M35.5,27c-6.1,0-11.7,1.4-16,3.8v22.4
				c4.3-2.4,9.9-3.8,16-3.8c1,0,2,0,3,0.1V27.1C37.5,27.1,36.5,27,35.5,27z"/>
		</g>
	</g>
</g>
</svg>
