<?xml version="1.0" encoding="utf-8"?>
<!-- Generator: Adobe Illustrator 27.3.1, SVG Export Plug-In . SVG Version: 6.00 Build 0)  -->
<svg version="1.1" id="レイヤー_1" xmlns="http://www.w3.org/2000/svg" xmlns:xlink="http://www.w3.org/1999/xlink" x="0px"
	 y="0px" width="112.6px" height="28.2px" viewBox="0 0 112.6 28.2" style="enable-background:new 0 0 112.6 28.2;"
	 xml:space="preserve">
<g>
	<g>
		<path d="M4.2,14.3V2.6H0V0.2h11.2v2.4H7v11.7H4.2z"/>
		<path d="M24.1,14.3H21l-1.2-3.2h-5.6L13,14.3h-3l5.5-14h3L24.1,14.3z M18.9,8.7L17,3.5l-1.9,5.2H18.9z"/>
		<path d="M25.7,14.3v-14h2.8v6.2l5.7-6.2H38l-5.3,5.5l5.6,8.6h-3.7l-3.9-6.6L28.5,10v4.2h-2.8V14.3z"/>
		<path d="M53.2,14.3h-3.1l-1.2-3.2h-5.6l-1.2,3.2h-3l5.5-14h3L53.2,14.3z M48,8.7l-1.9-5.2l-1.9,5.2H48z"/>
		<path d="M54.7,14.3v-14h2.8v5.5h5.6V0.2H66v14h-2.8V8.1h-5.6v6.1L54.7,14.3L54.7,14.3z"/>
		<path d="M81.6,14.3h-3.1l-1.2-3.2h-5.6l-1.2,3.2h-3l5.5-14h3L81.6,14.3z M76.3,8.7l-1.9-5.2l-1.9,5.2H76.3z"/>
		<path d="M82,9.7l2.8-0.3c0.2,0.9,0.5,1.6,1,2s1.2,0.7,2.1,0.7s1.6-0.2,2.1-0.6c0.5-0.4,0.7-0.8,0.7-1.4c0-0.3-0.1-0.6-0.3-0.8
			c-0.2-0.2-0.5-0.4-1-0.6C89,8.6,88.2,8.4,87,8.1c-1.5-0.4-2.6-0.8-3.2-1.4C83,6,82.5,5,82.5,3.9c0-0.7,0.2-1.4,0.6-2
			s1-1.1,1.8-1.4C85.7,0.2,86.6,0,87.7,0c1.8,0,3.1,0.4,4,1.2C92.5,1.9,93,3,93,4.3l-2.8,0.1c-0.1-0.7-0.4-1.2-0.8-1.6
			s-1-0.5-1.8-0.5s-1.5,0.2-1.9,0.5c-0.3,0.2-0.5,0.5-0.5,0.9c0,0.3,0.1,0.6,0.4,0.9c0.4,0.3,1.2,0.6,2.6,0.9s2.4,0.7,3.1,1
			s1.2,0.8,1.6,1.4s0.6,1.3,0.6,2.2c0,0.8-0.2,1.6-0.7,2.3c-0.4,0.7-1.1,1.2-1.9,1.6c-0.8,0.3-1.8,0.5-3.1,0.5
			c-1.8,0-3.1-0.4-4.1-1.2C82.8,12.5,82.2,11.3,82,9.7z"/>
		<path d="M95.7,14.3v-14h2.8v5.5h5.6V0.2h2.8v14h-2.8V8.1h-5.6v6.1L95.7,14.3L95.7,14.3z"/>
		<path d="M109.8,14.3v-14h2.8v14H109.8z"/>
	</g>
	<g>
		<path d="M35,24.6V23h4.1v3.7c-0.4,0.4-1,0.7-1.7,1c-0.8,0.3-1.5,0.4-2.3,0.4c-1,0-1.8-0.2-2.6-0.6c-0.7-0.4-1.3-1-1.6-1.8
			c-0.3-0.8-0.5-1.6-0.5-2.5c0-1,0.2-1.8,0.6-2.6c0.4-0.6,1-1.2,1.7-1.6c0.6-0.3,1.3-0.5,2.2-0.5c1.2,0,2.1,0.2,2.7,0.7
			c0.7,0.5,1.1,1.2,1.3,2L37,21.6c-0.1-0.5-0.4-0.8-0.7-1.1c-0.3-0.2-0.8-0.3-1.3-0.3c-0.8,0-1.5,0.3-2,0.8s-0.7,1.3-0.7,2.3
			c0,1.1,0.2,1.9,0.7,2.5s1.1,0.8,1.9,0.8c0.4,0,0.8-0.1,1.2-0.2c0.4-0.1,0.7-0.3,1-0.6v-1.2C37.1,24.6,35,24.6,35,24.6z"/>
		<path d="M42.3,28.1v-9.4h4c1,0,1.7,0.1,2.2,0.3c0.5,0.2,0.8,0.5,1.1,0.9s0.4,0.9,0.4,1.5c0,0.7-0.2,1.3-0.6,1.7
			c-0.4,0.5-1,0.7-1.9,0.9c0.4,0.2,0.7,0.5,1,0.8s0.6,0.8,1.1,1.5l1.1,1.8h-2.3l-1.4-2c-0.5-0.7-0.8-1.2-1-1.4
			c-0.2-0.2-0.4-0.3-0.6-0.4s-0.5-0.1-1-0.1H44v3.9C44,28.1,42.3,28.1,42.3,28.1z M44.2,22.7h1.4c0.9,0,1.5,0,1.7-0.1
			s0.4-0.2,0.5-0.4C48,22,48,21.8,48,21.5s-0.1-0.6-0.3-0.8c-0.2-0.2-0.4-0.3-0.7-0.4c-0.2,0-0.6,0-1.4,0h-1.5v2.4H44.2z"/>
		<path d="M52.6,23.5c0-1,0.1-1.8,0.4-2.4c0.2-0.5,0.5-0.9,0.9-1.3s0.8-0.7,1.2-0.8c0.6-0.2,1.3-0.4,2-0.4c1.4,0,2.5,0.4,3.3,1.3
			s1.2,2,1.2,3.6c0,1.5-0.4,2.7-1.2,3.5c-0.8,0.9-1.9,1.3-3.3,1.3c-1.4,0-2.5-0.4-3.3-1.3C53,26.1,52.6,25,52.6,23.5z M54.5,23.4
			c0,1.1,0.2,1.9,0.7,2.4s1.1,0.8,1.9,0.8c0.8,0,1.4-0.3,1.9-0.8s0.7-1.4,0.7-2.4c0-1.1-0.2-1.9-0.7-2.4s-1.1-0.8-1.9-0.8
			c-0.8,0-1.4,0.3-1.9,0.8C54.8,21.5,54.5,22.3,54.5,23.4z"/>
		<path d="M64.6,18.7h1.9v5.1c0,0.8,0,1.3,0.1,1.6c0.1,0.4,0.3,0.7,0.6,0.9c0.3,0.2,0.7,0.3,1.2,0.3s0.9-0.1,1.2-0.3
			c0.3-0.2,0.4-0.5,0.5-0.8s0.1-0.8,0.1-1.6v-5.2H72v4.9c0,1.1-0.1,1.9-0.2,2.4s-0.3,0.9-0.6,1.2c-0.3,0.3-0.6,0.6-1.1,0.8
			c-0.5,0.2-1.1,0.3-1.8,0.3c-0.9,0-1.6-0.1-2-0.3c-0.5-0.2-0.8-0.5-1.1-0.8c-0.3-0.3-0.4-0.7-0.5-1c-0.1-0.5-0.2-1.3-0.2-2.4
			L64.6,18.7L64.6,18.7z"/>
		<path d="M75.5,28.1v-9.4h3c1.1,0,1.9,0,2.2,0.1c0.5,0.1,1,0.4,1.3,0.9c0.4,0.5,0.5,1.1,0.5,1.8c0,0.6-0.1,1.1-0.3,1.4
			c-0.2,0.4-0.5,0.7-0.8,0.9c-0.3,0.2-0.6,0.4-1,0.4c-0.5,0.1-1.1,0.1-2,0.1h-1.2v3.5h-1.7V28.1z M77.3,20.3V23h1
			c0.7,0,1.2,0,1.5-0.1s0.4-0.3,0.6-0.5c0.1-0.2,0.2-0.5,0.2-0.7c0-0.3-0.1-0.6-0.3-0.8c-0.2-0.2-0.5-0.4-0.8-0.4
			c-0.2,0-0.7-0.1-1.4-0.1h-0.8V20.3z"/>
	</g>
</g>
</svg>
