<?xml version="1.0" encoding="UTF-8"?>
<svg xmlns="http://www.w3.org/2000/svg" version="1.1" viewBox="0 0 800 987.3">
  <defs>
    <style>
      .cls-1 {
        fill: #63bbff;
      }

      .cls-2 {
        stroke: #d5d5d5;
      }

      .cls-2, .cls-3, .cls-4, .cls-5 {
        fill: none;
        stroke-miterlimit: 10;
      }

      .cls-3 {
        stroke-width: 1.4px;
      }

      .cls-3, .cls-5 {
        stroke: #d4d4d4;
      }

      .cls-6 {
        fill: #8accff;
      }

      .cls-7 {
        fill: #fff;
      }

      .cls-4 {
        stroke: #8accff;
      }
    </style>
  </defs>
  <!-- Generator: Adobe Illustrator 28.7.5, SVG Export Plug-In . SVG Version: 1.2.0 Build 176)  -->
  <g>
    <g id="_レイヤー_1" data-name="レイヤー_1">
      <g id="_レイヤー_1-2" data-name="_レイヤー_1">
        <polyline class="cls-5" points="570 271 570 311.3 610.9 311.3"/>
        <line class="cls-5" x1="160" y1="367.4" x2="310" y2="367.4"/>
        <line class="cls-5" x1="80" y1="303.4" x2="185.5" y2="303.4"/>
        <line class="cls-5" x1="80" y1="159.4" x2="80" y2="219.4"/>
        <line class="cls-5" x1="80" y1="259.4" x2="80" y2="347.4"/>
        <path class="cls-6" d="M157,120.4c1.1,0,2,.9,2,2v34c0,1.1-.9,2-2,2H3c-1.1,0-2-.9-2-2v-34c0-1.1.9-2,2-2h154M157,119.4H3c-1.6,0-3,1.3-3,3v34c0,1.6,1.4,3,3,3h154c1.7,0,3-1.4,3-3v-34c0-1.7-1.3-3-3-3h0Z"/>
        <path class="cls-6" d="M157,220.4c1.1,0,2,.9,2,2v34c0,1.1-.9,2-2,2H3c-1.1,0-2-.9-2-2v-34c0-1.1.9-2,2-2h154M157,219.4H3c-1.6,0-3,1.3-3,3v34c0,1.6,1.4,3,3,3h154c1.7,0,3-1.4,3-3v-34c0-1.7-1.3-3-3-3h0Z"/>
        <path class="cls-6" d="M157,348.4c1.1,0,2,.9,2,2v34c0,1.1-.9,2-2,2H3c-1.1,0-2-.9-2-2v-34c0-1.1.9-2,2-2h154M157,347.4H3c-1.6,0-3,1.4-3,3v34c0,1.6,1.4,3,3,3h154c1.7,0,3-1.4,3-3v-34c0-1.7-1.3-3-3-3h0Z"/>
        <path class="cls-6" d="M282,274.4c1.1,0,2,.9,2,2v54c0,1.1-.9,2-2,2h-94c-1.1,0-2-.9-2-2v-54c0-1.1.9-2,2-2h94M282,273.4h-94c-1.6,0-3,1.4-3,3v54c0,1.6,1.4,3,3,3h94c1.6,0,3-1.4,3-3v-54c0-1.7-1.4-3-3-3h0Z"/>
        <g>
          <path d="M52,140.9c-.2-.5-.8-1.6-1.2-2.4v8.4h-1.2v-7.8c-.5,1.8-1.3,3.5-2,4.6,0-.3-.4-.8-.7-1.1,1-1.3,2-3.9,2.5-6h-2.2v-1.1h2.3v-3.1h1.2v3.1h2v1.1h-2v.5c.4.6,1.7,2.6,2,3.1,0,0-.7.7-.7.7ZM58.6,140.3c.8,1.9,2.1,3.8,3.4,4.8-.3.2-.7.6-.9.9-1.2-1.1-2.4-3-3.3-5v5.9h-1.2v-5.7c-1,2-2.4,3.9-3.9,5-.2-.3-.5-.7-.8-.9,1.6-1,3.1-2.9,4-4.9h-3.1v-1.1h3.8v-2.8h-2c-.3.9-.6,1.7-1,2.4-.2-.2-.7-.5-1-.6.8-1.2,1.4-3.2,1.6-5.1l1.1.2c0,.7-.3,1.4-.4,2h1.7v-3h1.2v3h3.2v1.1h-3.1v2.8h3.7v1.1h-3Z"/>
          <path d="M78.3,145.2v1.2h-14.1v-1.2h6.4v-3.9h-4.9v-1.1h4.9v-3.5h-5.7v-1.2h7c-.6-.7-1.8-1.7-2.7-2.4l1-.7c1,.7,2.3,1.8,2.9,2.6l-.8.5h5.2v1.2h-5.7v3.5h5v1.1h-5v3.9h6.5,0Z"/>
          <path d="M82.5,141.5c-.2,1.5-.6,3-1.1,4-.2-.1-.7-.4-.9-.4.5-1,.8-2.4,1-3.8l1,.2ZM84.3,140.1v6.8h-1v-6.7c-.9.1-1.8.1-2.5.2l-.2-1.1c.3,0,.7,0,1.1-.1.3-.4.7-.9,1-1.4-.5-.7-1.3-1.6-2-2.3l.6-.8c.2.1.3.3.5.5.5-.9,1.1-2.1,1.4-3l1,.4c-.5,1.1-1.2,2.4-1.8,3.3.3.4.6.7.8,1,.6-1,1.2-2,1.7-2.9l1,.5c-.9,1.5-2.1,3.3-3.2,4.6l2.4-.2c-.3-.4-.5-.9-.8-1.3l.9-.4c.7,1,1.5,2.4,1.7,3.2l-.9.4c0-.3-.2-.7-.4-1.1l-1.3.4h0ZM85.7,141.3c.4.9.8,2.1,1,2.9l-.9.3c0-.8-.5-2-.9-2.9l.8-.3ZM86,145.8c.7-.8,1.1-2.2,1.3-3.4l1,.2c-.2,1.3-.6,2.8-1.3,3.7l-1-.5ZM89.9,132.8c-.6,1.6-1.6,3.1-2.7,4.1-.2-.2-.7-.5-1-.7,1.1-.9,2-2.2,2.5-3.7l1.2.3h0ZM87,138.6c.4,0,1,0,1.6-.1.5-1.1,1.1-2.5,1.4-3.6l1.2.3c-.4,1-1,2.3-1.5,3.2.9-.1,2-.1,3-.2-.3-.5-.7-.9-1-1.3l.9-.4c.9,1,1.9,2.4,2.3,3.3l-1,.6c0-.3-.4-.8-.6-1.2-2.2.2-4.4.4-6,.5l-.3-1.1ZM91.8,145.9c.4,0,.4-.2.5-1.7.2.2.7.3,1,.4,0,1.8-.4,2.3-1.3,2.3h-1.6c-1.2,0-1.4-.3-1.4-1.4v-3.5h1v3.5q0,.4.5.4h1.3ZM89.7,139.9c1,.5,2.1,1.3,2.7,1.9l-.8.7c-.5-.7-1.6-1.5-2.6-2l.7-.6h0ZM92.6,132.5c.7,1.2,1.9,2.6,2.9,3.3-.2.2-.6.6-.8.8-1-.8-2.3-2.4-3.1-3.7l1-.4h0ZM93.6,142.2c.9,1.1,1.6,2.6,1.9,3.6l-1,.5c-.2-1-1-2.5-1.8-3.7l.9-.4h0Z"/>
          <path d="M105.3,132.3c1.7,2.4,4.5,4.4,7,5.5-.3.3-.6.7-.8,1.1-2.5-1.2-5.3-3.3-6.8-5.4-1.3,1.9-3.9,4.1-6.6,5.5,0-.3-.4-.7-.7-.9,2.7-1.3,5.4-3.6,6.6-5.6h1.3v-.2h0ZM98.3,140.3h13.2v1.1h-7.5c-.6,1.2-1.2,2.6-1.9,3.7,2-.1,4.2-.1,6.5-.2-.7-.8-1.4-1.5-2.1-2.2l1-.5c1.5,1.3,3,3,3.8,4.2l-1.1.7c-.2-.3-.4-.7-.7-1.1-3.9.2-8.1.4-10.8.5l-.2-1.2c.7,0,1.5,0,2.4-.1.6-1.1,1.3-2.6,1.7-3.7h-4.2v-1.2h-.1ZM108.6,137.2v1.1h-7.6v-1.1h7.6Z"/>
        </g>
        <g>
          <path class="cls-1" d="M3,40c-1.4,0-2.5-1.1-2.5-2.5V3.5C.5,2.1,1.6,1,3,1h154c1.4,0,2.5,1.1,2.5,2.5v34c0,1.4-1.1,2.5-2.5,2.5H3Z"/>
          <path class="cls-1" d="M157,1.5c1.1,0,2,.9,2,2v34c0,1.1-.9,2-2,2H3c-1.1,0-2-.9-2-2V3.5c0-1.1.9-2,2-2h154M157,.5H3C1.4.5,0,1.9,0,3.5v34c0,1.7,1.4,3,3,3h154c1.7,0,3-1.3,3-3V3.5c0-1.6-1.3-3-3-3h0Z"/>
        </g>
        <g>
          <path class="cls-7" d="M44.5,14.9v1h-13.8v-1h6.2v-1.5h1.2v1.5s6.4,0,6.4,0ZM43.9,26.6c0,.6,0,1-.6,1.2s-1.4.2-2.7.2c0-.3-.2-.8-.4-1.1h2.2c.3,0,.3-.1.3-.3v-4.4h-10.2v5.8h-1.1v-6.9h12.5s0,5.5,0,5.5ZM41.9,16.9v3.3h-8.6v-3.3h8.6ZM40.7,17.7h-6.2v1.6h6.2v-1.6ZM35.6,26.5v.8h-1.1v-4.2h6v3.4s-4.9,0-4.9,0ZM35.6,24v1.6h3.9v-1.6h-3.9Z"/>
          <path class="cls-7" d="M50.5,19.2c.4.6,1.6,2.4,1.9,2.8l-.6.9c-.2-.5-.8-1.5-1.2-2.3v7.4h-1.1v-7.3c-.5,1.7-1.2,3.3-1.8,4.3,0-.3-.4-.8-.6-1,1-1.3,1.9-3.8,2.4-6h-2v-1.1h2.1v-3.5h1.1v3.5h1.8v1.1h-1.8v1.2h-.2ZM58.9,17c.8,1,1.9,1.9,3,2.4-.2.2-.6.6-.8.9-.6-.3-1.1-.7-1.7-1.2v1.9h-5.1v-1.9c-.5.5-1.1.9-1.7,1.3-.2-.3-.5-.6-.7-.8,1.3-.7,2.2-1.6,2.9-2.5h-2.4v-.9h2.9c.2-.3.3-.7.4-1-.9.1-1.9.1-2.8.1,0-.2-.2-.6-.3-.8,2.5-.1,5.6-.3,7.2-.7l.7.8c-1,.2-2.3.4-3.7.5,0,.4-.2.7-.4,1.1h5v.8s-2.5,0-2.5,0ZM61.3,26.8c0,.6,0,.9-.5,1-.5.2-1.1.2-2.1.2,0-.3-.2-.7-.4-1h1.6c.2,0,.3-.1.3-.2v-4.1h-6.5v5.3h-1.1v-6.3h8.6v5.1s0,0,.1,0ZM55.8,26.5v.7h-.9v-3.7h4.1v3s-3.2,0-3.2,0ZM56,17c-.2.3-.4.7-.6,1h3.1c-.2-.3-.5-.6-.7-1h-1.8ZM58.4,18.8h-3v1.4h3v-1.4ZM55.8,24.3v1.4h2.3v-1.4h-2.3Z"/>
          <path class="cls-7" d="M68.8,22c-.2-.5-.8-1.6-1.2-2.4v8.4h-1.2v-7.8c-.5,1.8-1.3,3.5-2,4.6,0-.3-.4-.8-.7-1.1,1-1.3,2-3.9,2.5-6h-2.2v-1.1h2.3v-3.1h1.2v3.1h2v1.1h-2v.5c.4.6,1.7,2.6,2,3.1l-.7.7h0ZM75.4,21.4c.8,1.9,2.1,3.8,3.4,4.8-.3.2-.7.6-.9.9-1.2-1.1-2.4-3-3.3-5v5.9h-1.2v-5.7c-1,2-2.4,3.9-3.9,5-.2-.3-.5-.7-.8-.9,1.6-1,3.1-2.9,4-4.9h-3.1v-1.1h3.8v-2.8h-2c-.3.9-.6,1.7-1,2.4-.2-.2-.7-.5-1-.6.8-1.2,1.4-3.2,1.6-5.1l1.1.2c0,.7-.3,1.4-.4,2h1.7v-3h1.2v3h3.1v1.1h-3.1v2.8h3.7v1.1h-2.9,0Z"/>
          <path class="cls-7" d="M90.4,17.5c.4,5.4,1.6,9.3,3.2,9.3s.6-.9.7-3c.3.3.7.5,1.1.7-.2,2.8-.7,3.6-1.9,3.6-2.6,0-3.9-4.6-4.4-10.5h-8.3v-1.2h8.2v-2.9h1.2v2.9h4.7v1.2h-4.5,0ZM85.5,25.5c1.1-.2,2.3-.5,3.4-.7v1c-2.6.7-5.5,1.3-7.6,1.8l-.3-1.2c.9-.2,2.1-.4,3.3-.7v-4.6h-2.8v-1.2h7v1.2h-3v4.4ZM93.6,16.2c-.5-.6-1.5-1.4-2.3-2l.8-.7c.8.5,1.8,1.4,2.3,1.9l-.8.8Z"/>
          <path class="cls-7" d="M105.3,13.4c1.7,2.4,4.5,4.4,7,5.5-.3.3-.6.7-.8,1.1-2.5-1.2-5.3-3.3-6.8-5.4-1.3,1.9-3.9,4.1-6.6,5.5,0-.3-.4-.7-.7-.9,2.7-1.3,5.4-3.6,6.6-5.7h1.3ZM98.3,21.4h13.2v1.1h-7.5c-.6,1.2-1.2,2.6-1.9,3.7,2-.1,4.2-.1,6.5-.2-.7-.8-1.4-1.5-2.1-2.2l1-.5c1.5,1.3,3,3,3.8,4.2l-1.1.7c-.2-.3-.4-.7-.7-1.1-3.9.2-8.1.4-10.8.5l-.2-1.2c.7,0,1.5,0,2.4-.1.6-1.1,1.3-2.6,1.7-3.7h-4.2v-1.2s0,0-.1,0ZM108.6,18.3v1.1h-7.6v-1.1h7.6Z"/>
          <path class="cls-7" d="M120.2,23.4c-.4-.5-1.3-1.4-2-2v6.6h-1.2v-6.2c-.8.8-1.6,1.5-2.4,2,0-.3-.4-.8-.6-1.1,1.9-1.1,3.9-3.1,5-5.2h-4.5v-1.1h2.5v-3h1.2v3h1.6l.7.4c-.5,1.2-1.2,2.4-2.1,3.5.8.6,2.2,1.8,2.6,2.2,0,0-.8.9-.8.9ZM129.1,26.4v1.2h-9v-1.2h4v-6.6h-3.4v-1.2h3.4v-5.1h1.2v5.1h3.4v1.2h-3.4v6.6h3.8Z"/>
        </g>
        <g>
          <path d="M53.9,234.6v12.5h-1.2v-2.9c-2,.3-4.1.6-5.6.9l-.2-1.2c.4,0,1-.1,1.6-.2v-9.1h-1.2v-1.1h7.7v1.1h-1.1ZM52.7,234.6h-3.1v2.1h3.1v-2.1ZM52.7,237.8h-3.1v2.2h3.1v-2.2ZM49.6,243.5c1-.1,2-.3,3.1-.4v-2h-3.1v2.4ZM61.3,234.9c-.4,3.4-1.3,6.1-2.6,8.1.9,1.3,2,2.3,3.3,3-.3.2-.7.7-.8,1-1.3-.7-2.3-1.7-3.2-2.9-.9,1.2-2,2.1-3.3,2.8-.2-.3-.5-.7-.8-1,1.3-.7,2.4-1.6,3.4-3-1.1-1.9-1.9-4.2-2.4-6.8l1.1-.2c.4,2.2,1.1,4.2,2,5.9.9-1.6,1.6-3.6,2-6h-5.4v-1.2h5.9l.8.3h0Z"/>
          <path d="M65.6,241.8c-.2,1.5-.6,3-1.1,4-.2-.1-.6-.3-.9-.4.5-1,.8-2.4,1-3.8l1,.2ZM68.3,237.6c.6,1.1,1.2,2.4,1.4,3.3l-.9.4c0-.3,0-.6-.3-1h-1.2v6.8h-1v-6.7c-.9.1-1.7.1-2.4.2v-1.1h1.1c.3-.4.6-.8.9-1.3-.5-.7-1.3-1.6-2-2.3l.6-.7c.2.1.3.3.5.5.5-.9,1.1-2.1,1.4-3l1,.4c-.5,1.1-1.2,2.4-1.8,3.3.3.4.6.7.8,1,.6-1,1.2-2,1.6-2.9l1,.4c-.9,1.5-2,3.3-3.1,4.7h2.1c-.2-.6-.4-1.1-.6-1.5l.9-.5h0ZM68.6,241.5c.4.9.7,2.1.8,2.9l-.9.3c0-.8-.4-2-.7-2.9,0,0,.8-.3.8-.3ZM78.4,237v2.7h-1.1v-1.7h-6.7v1.7h-1.1v-2.7h2.3c0-.6-.4-1.4-.7-2h-1.6v-1h3.7v-1.5h1.2v1.5h3.7v1h-1.4c-.3.7-.6,1.4-.9,2h2.6ZM77.5,244.3c0,.5,0,.8-.5,1s-.9.2-1.7.2c0-.3-.2-.7-.4-1h1.2s.2,0,.2-.2v-3.3h-2v6.1h-1.1v-6.1h-1.9v4.5h-1.1v-5.5h3v-1.5h1.1v1.5h3.1v4.3h.1ZM72.3,235c.3.7.6,1.5.7,2h1.8c.3-.6.6-1.4.8-2h-3.3Z"/>
          <path d="M85.8,236.1c-.4.8-1,1.5-1.6,2.2v8.8h-1.2v-7.5c-.6.6-1.3,1.2-1.9,1.7,0-.3-.5-.8-.7-1.1,1.6-1.1,3.3-2.8,4.3-4.5l1.1.4h0ZM85.3,233c-1,1.4-2.5,3-4,3.9,0-.3-.4-.7-.6-1,1.3-.8,2.8-2.2,3.5-3.4l1.1.5ZM94.2,239.8c-.6,1.9-1.7,3.4-3.1,4.5,1.2.8,2.7,1.4,4.4,1.7-.3.2-.6.7-.8,1-1.8-.4-3.3-1.1-4.6-2-1.3.9-2.9,1.6-4.4,2.1,0-.3-.4-.8-.7-1,1.5-.4,2.9-1,4.2-1.8-1-1-1.8-2.1-2.3-3.5l.8-.3h-1.8v-1.1h7.4l.9.4h0ZM88.4,235c0,1.4-.4,3.1-2.1,4.2-.2-.2-.7-.6-.9-.7,1.6-1,1.9-2.4,1.9-3.5v-1.9h5.4v4.4s.2.1.3.1h1s.2-.2.2-.4v-1.3c.2.2.6.4.9.5,0,.6,0,1.3-.2,1.6s-.3.4-.5.5-.6.2-.8.2h-.9c-.4,0-.7-.1-1-.3s-.3-.5-.3-1.4v-2.7h-3.1v.7h0ZM88,240.6c.5,1.2,1.2,2.2,2.2,3,1-.8,1.8-1.9,2.4-3h-4.6Z"/>
          <path d="M105.3,232.5c1.7,2.4,4.5,4.4,7,5.5-.3.3-.6.7-.8,1.1-2.5-1.2-5.3-3.3-6.8-5.4-1.3,1.9-3.9,4.1-6.6,5.5,0-.3-.4-.7-.7-.9,2.7-1.3,5.4-3.6,6.6-5.6h1.3v-.2h0ZM98.3,240.5h13.2v1.1h-7.5c-.6,1.2-1.2,2.6-1.9,3.7,2-.1,4.2-.1,6.5-.2-.7-.8-1.4-1.5-2.1-2.2l1-.5c1.5,1.3,3,3,3.8,4.2l-1.1.7c-.2-.3-.4-.7-.7-1.1-3.9.2-8.1.4-10.8.5l-.2-1.2c.7,0,1.5,0,2.4-.1.6-1.1,1.3-2.6,1.7-3.7h-4.2v-1.2h-.1ZM108.6,237.5v1.1h-7.6v-1.1h7.6Z"/>
        </g>
        <g>
          <path d="M44.1,360.4c-.5,1.1-1.1,2.2-1.7,3.2v10.8h-1.2v-9.1c-.7.9-1.4,1.7-2.1,2.4,0-.3-.5-.9-.7-1.2,1.8-1.6,3.6-4,4.6-6.5l1.1.4h0ZM48.4,365.8c.5,4.2,1.6,7.1,3.3,7.3.5,0,.7-.9.9-2.8.2.2.8.5,1,.6-.4,2.7-1,3.6-1.8,3.5-2.6-.2-3.9-3.5-4.5-8.5l-3.8.5-.2-1.1,3.9-.5c0-1.5-.2-3.1-.3-4.7h1.1c0,1.6,0,3.2.3,4.6l4.8-.6.2,1.1-4.9.6ZM52,363.4c-.5-.7-1.6-1.8-2.6-2.6l.9-.6c1,.8,2.1,1.8,2.6,2.6l-.9.6Z"/>
          <path d="M69.3,368.2c-1,.8-2.3,1.7-3.4,2.3,1.1,1.3,2.5,2.3,4.3,2.8-.3.2-.6.7-.8,1-3.4-1.2-5.5-3.7-6.6-7.3-.7.7-1.5,1.3-2.4,1.9v3.6c1.3-.3,2.6-.6,4-1v1.1c-2.4.7-5.1,1.3-7,1.8l-.4-1.1c.6-.1,1.4-.3,2.2-.5v-3.2c-1.1.6-2.2,1.1-3.2,1.4-.2-.3-.5-.7-.8-1,2.1-.6,4.5-1.8,6.1-3.1h-5.5v-1h6.3v-1.4h-5v-1h5v-1.3h-5.7v-1h5.7v-1.3h1.2v1.3h5.8v1h-5.8v1.3h5.2v1h-5.2v1.4h6.4v1h-5.7c.3,1,.8,2,1.3,2.8,1-.7,2.3-1.6,3-2.3l1,.8h0Z"/>
          <path d="M79.1,361.9v12.5h-1.2v-2.9c-2,.3-4.1.6-5.6.9l-.2-1.2c.4,0,1-.1,1.6-.2v-9.1h-1.2v-1.1h7.8v1.1h-1.2ZM77.9,361.9h-3.1v2.1h3.1v-2.1ZM77.9,365.1h-3.1v2.2h3.1v-2.2ZM74.8,370.9c1-.1,2-.3,3.1-.4v-2h-3.1v2.4ZM86.5,362.2c-.4,3.4-1.3,6.1-2.6,8.1.9,1.3,2,2.3,3.3,3-.3.2-.7.7-.8,1-1.3-.7-2.3-1.7-3.2-2.9-.9,1.2-2,2.1-3.3,2.8-.2-.3-.5-.7-.8-1,1.3-.7,2.4-1.6,3.4-3-1.1-1.9-1.9-4.2-2.4-6.8l1.1-.2c.4,2.2,1.1,4.2,2,5.9.9-1.6,1.6-3.6,2-6h-5.4v-1.1h5.9l.8.2Z"/>
          <path d="M90.8,369.1c-.2,1.5-.6,3-1.1,4-.2-.1-.6-.3-.9-.4.5-1,.8-2.4,1-3.8l1,.2h0ZM93.5,364.9c.6,1.1,1.2,2.4,1.4,3.3l-.9.4c0-.3,0-.6-.3-1h-1.2v6.8h-1v-6.7c-.9.1-1.7.1-2.4.2v-1.1h1.1c.3-.4.6-.8.9-1.3-.5-.7-1.3-1.6-2-2.3l.6-.7c.2.1.3.3.5.5.5-.9,1.1-2.1,1.4-3l1,.4c-.5,1.1-1.2,2.4-1.8,3.3.3.4.6.7.8,1,.6-1,1.2-2,1.6-2.9l1,.4c-.9,1.5-2,3.3-3.1,4.7h2.1c-.2-.6-.4-1.1-.6-1.5l.9-.5h0ZM93.8,368.9c.4.9.7,2.1.8,2.9l-.9.3c0-.8-.4-2-.7-2.9,0,0,.8-.3.8-.3ZM103.6,364.3v2.7h-1.1v-1.7h-6.7v1.7h-1.1v-2.7h2.3c0-.6-.4-1.4-.7-2h-1.6v-1h3.7v-1.5h1.2v1.5h3.7v1h-1.4c-.3.7-.6,1.4-.9,2h2.6ZM102.7,371.6c0,.5,0,.8-.5,1s-.9.2-1.7.2c0-.3-.2-.7-.4-1h1.2s.2,0,.2-.2v-3.2h-2v6.1h-1.1v-6.1h-1.9v4.5h-1.1v-5.5h3v-1.5h1.1v1.5h3.1v4.2h.1ZM97.5,362.3c.3.7.6,1.5.7,2h1.8c.3-.6.6-1.4.8-2h-3.3Z"/>
          <path d="M111,363.4c-.4.8-1,1.5-1.6,2.2v8.8h-1.2v-7.5c-.6.6-1.3,1.2-1.9,1.7,0-.3-.5-.8-.7-1.1,1.6-1.1,3.3-2.8,4.3-4.5,0,0,1.1.4,1.1.4ZM110.5,360.3c-1,1.4-2.5,3-4,3.9,0-.3-.4-.7-.6-1,1.3-.8,2.8-2.2,3.5-3.4l1.1.5ZM119.4,367.2c-.6,1.9-1.7,3.4-3.1,4.5,1.2.8,2.7,1.4,4.4,1.7-.3.2-.6.7-.8,1-1.8-.4-3.3-1.1-4.6-2-1.3.9-2.9,1.6-4.4,2.1,0-.3-.4-.8-.7-1,1.5-.4,2.9-1,4.2-1.8-1-1-1.8-2.1-2.3-3.5l.8-.3h-1.8v-1.1h7.4l.9.4h0ZM113.6,362.3c0,1.4-.4,3.1-2.1,4.2-.2-.2-.7-.6-.9-.7,1.6-1,1.9-2.4,1.9-3.5v-1.9h5.4v4.4s.2.1.3.1h1s.2-.2.2-.4v-1.3c.2.2.6.4.9.5,0,.6,0,1.3-.2,1.6,0,.3-.3.4-.5.5s-.6.2-.8.2h-1c-.4,0-.7-.1-1-.3-.3-.2-.3-.5-.3-1.4v-2.7h-3.1v.7h.2ZM113.2,367.9c.5,1.2,1.2,2.2,2.2,3,1-.8,1.8-1.9,2.4-3h-4.6Z"/>
        </g>
        <g>
          <line class="cls-5" x1="530" y1="528.4" x2="610" y2="528.4"/>
          <polyline class="cls-3" points="610 588.4 570 588.4 570 468.4 610 468.4"/>
          <path class="cls-6" d="M767,449.4c1.1,0,2,.9,2,2v34c0,1.1-.9,2-2,2h-154c-1.1,0-2-.9-2-2v-34c0-1.1.9-2,2-2h154M767,448.4h-154c-1.6,0-3,1.4-3,3v34c0,1.7,1.4,3,3,3h154c1.7,0,3-1.3,3-3v-34c0-1.7-1.3-3-3-3h0Z"/>
          <path class="cls-6" d="M767,569.4c1.1,0,2,.9,2,2v34c0,1.1-.9,2-2,2h-154c-1.1,0-2-.9-2-2v-34c0-1.1.9-2,2-2h154M767,568.4h-154c-1.6,0-3,1.3-3,3v34c0,1.6,1.4,3,3,3h154c1.7,0,3-1.4,3-3v-34c0-1.7-1.3-3-3-3h0Z"/>
          <path class="cls-6" d="M767,509.4c1.1,0,2,.9,2,2v34c0,1.1-.9,2-2,2h-154c-1.1,0-2-.9-2-2v-34c0-1.1.9-2,2-2h154M767,508.4h-154c-1.6,0-3,1.4-3,3v34c0,1.6,1.4,3,3,3h154c1.7,0,3-1.4,3-3v-34c0-1.7-1.3-3-3-3h0Z"/>
          <path class="cls-6" d="M527,449.4c1.1,0,2,.9,2,2v154c0,1.1-.9,2-2,2h-34c-1.1,0-2-.9-2-2v-154c0-1.1.9-2,2-2h34M527,448.4h-34c-1.6,0-3,1.4-3,3v154c0,1.7,1.4,3,3,3h34c1.6,0,3-1.3,3-3v-154c0-1.7-1.4-3-3-3h0Z"/>
          <g>
            <path d="M511.8,481c-.4.6-.7,1.2-1.1,1.8v10.5h-1.3v-8.9c-1.6,1.8-3.6,3.5-5.8,4.7-.2-.3-.6-.8-.8-1,3.2-1.6,5.9-4.2,7.5-7h-7.1v-1.2h13.7v1.2h-5.1ZM511.8,483.7c1.9,1.2,4.3,3,5.5,4.2l-.9.9c-1.1-1.2-3.5-3.1-5.4-4.4l.8-.7h0Z"/>
            <path d="M517,499.2v.6c-.2,6.7-.3,8.9-.9,9.6-.3.4-.6.5-1.1.6-.4.1-1.2,0-1.9,0,0-.3-.2-.8-.3-1.1.8.1,1.5.1,1.8.1s.4,0,.6-.3c.4-.5.6-2.6.7-8.4h-2.3c-.2,4.3-.9,7.7-3.7,9.9-.2-.3-.6-.7-.9-.8.3-.2.5-.4.7-.6-2.4.3-4.9.6-6.7.8l-.2-1c1-.1,2.2-.2,3.5-.3v-1.4h-3v-.9h3v-1h-3v-4.8h3v-1h-3.5v-.9h3.5v-1.1c-1,.1-2.1.1-3,.2,0-.3-.2-.6-.3-.9,2.4-.1,5.2-.4,6.9-.8l.6.9c-.9.2-2,.3-3.1.5v1.2h3.4v.9h-3.4v1h3.1v4.8h-3.1v1h3.1v.9h-3.1v1.3c1-.1,2.1-.2,3.2-.3h0c1.4-1.8,1.8-4.4,2-7.4h-1.9v-1.1h1.9v-3.5h1.1v3.5h3.3v-.2h0ZM504.2,502.1h2v-1.1h-2v1.1ZM506.2,504.1v-1.2h-2v1.2h2ZM507.3,501v1.2h2.1v-1.2h-2.1ZM509.4,502.9h-2.1v1.2h2.1v-1.2Z"/>
            <path d="M517.1,517v1.1h-11.9v1.4c0,2.1-.3,5.2-1.7,7.4-.2-.2-.7-.6-.9-.8,1.3-2,1.5-4.7,1.5-6.6v-2.5h3.1c-.1-.6-.5-1.4-.8-2.1l.8-.2h-3.3v-1h5.6v-1.4h1.2v1.4h5.7v1h-2.8.6c-.4.9-.8,1.7-1.2,2.2h4.1ZM511.8,525.5h5.2v1h-11.4v-1h5v-2h-3.6v-1h3.6v-1.7h-3c-.4.6-.8,1.1-1.1,1.5-.2-.2-.7-.4-.9-.6.9-.8,1.6-2.1,2-3.3l1.1.3c-.1.4-.3.8-.5,1.2h2.5v-1.4h1.2v1.4h4.2v1h-4.2v1.7h3.8v1h-3.8v1.9h-.1ZM507.4,514.7c.4.7.8,1.5.9,2.1l-.7.2h4.9l-.6-.2c.3-.6.7-1.5.9-2.1h-5.4Z"/>
            <path d="M517.2,539.2h-1.6v2.8h-1.2v-.7h-3.8v1.1c0,.7-.2,1-.7,1.2s-1.3.2-2.7.2c-.1-.3-.3-.7-.4-1h2.2c.3,0,.4,0,.4-.4v-1.1h-5.2v-.9h5.2v-1.2h-6.5v-.9h6.5v-1.1h-5v-.9h5v-1.1h-4.6v-2.8h4.6v-.9h-6.2v-1h6.2v-1.3h1.2v1.3h6.4v1h-6.4v.9h4.8v2.8h-4.8v1.1h5v2h1.6v.9h0ZM509.4,534.3v-1.2h-3.4v1.2h3.4ZM510.5,533.1v1.2h3.6v-1.2h-3.6,0ZM510.5,538.2h3.8v-1.1h-3.8v1.1ZM514.4,539.2h-3.8v1.2h3.8v-1.2Z"/>
            <path d="M511.7,556.7c1.5,1.2,3.7,2.1,5.7,2.5-.3.3-.6.7-.8,1.1-2.1-.6-4.5-1.8-6-3.3v3.5h-1.2v-3.4c-1.5,1.4-3.9,2.5-6,3.2-.2-.3-.5-.8-.8-1,2-.4,4.2-1.4,5.7-2.5h-5.2v-1h6.3v-1.2h-4.8v-.9h4.8v-1.2h-5.6v-1h3.5c-.1-.5-.5-1.1-.8-1.6h.6c0,0-3.9,0-3.9,0v-1h2.5c-.2-.6-.8-1.6-1.3-2.3l1-.3c.5.7,1.1,1.7,1.4,2.4l-.8.3h2v-2.8h1.1v2.8h1.9v-2.8h1.1v2.8h1.9l-.6-.2c.4-.7.9-1.7,1.2-2.4l1.2.3c-.4.8-1,1.7-1.4,2.3h2.5v1h-3.2c-.3.6-.7,1.2-1,1.7h3.6v1h-5.8v1.2h5v.9h-5v1.2h6.4v1h-5.2v-.2h0ZM507.7,549.7c.3.5.7,1.2.8,1.6h-.5c0,0,3.8,0,3.8,0h-.2c.3-.5.6-1.1.8-1.7h-4.7,0Z"/>
            <path d="M502.7,568.8h8.2v1.1h-8.2v-1.1ZM510.7,565.5h-7.6v-1h3.2v-1.7h1.1v1.7h3.2v1h0ZM503.8,571.3h6.3v5.9h-1.2v-.8h-4v.9h-1.1v-6h0ZM504.8,568.7c-.1-.7-.4-1.8-.7-2.6l1-.2c.4.8.7,1.9.7,2.6l-1,.2ZM504.9,572.4v2.9h4v-2.9h-4ZM507.8,568.5c.3-.7.7-1.9.9-2.7l1.1.3c-.3.9-.7,2-1.1,2.7l-.9-.3ZM517.4,564.1c-.7,1.5-1.5,3.3-2.2,4.8,1.6,1.5,2,2.7,2,3.9s-.2,1.7-.8,2.1c-.3.2-.6.3-1,.4h-1.4c0-.3,0-.8-.3-1.2h1.3c.2,0,.5,0,.7-.2.3-.2.4-.7.4-1.3,0-1-.4-2.2-2.1-3.6.7-1.3,1.4-3.1,1.9-4.4h-3v12.5h-1.2v-13.7h4.9l.8.7h0Z"/>
          </g>
          <g>
            <path d="M680.1,464.2h-3.5c.4.4.7.9.9,1.3l-1.1.4c-.2-.5-.6-1.1-1.1-1.7h-1.3c-.3.4-.6.7-.9,1h.2v1.2h6.2v3h-1.2v-2h-11.1v2h-1.1v-3h6v-1c-.2-.1-.5-.3-.7-.4.4-.3.7-.5,1-.9h-2.8c.3.5.5,1,.6,1.3l-1.1.3c0-.4-.4-1.1-.8-1.6h-.7c-.4.7-.9,1.2-1.4,1.7-.2-.2-.7-.5-1-.6,1-.8,1.8-2.1,2.3-3.3l1.1.3c0,.3-.3.7-.5,1h4.2v.9c.6-.7,1.1-1.4,1.4-2.2l1.1.3c0,.3-.3.7-.5,1h5.4v1h.4,0ZM669.6,472.6h8.7v3.9h-1.2v-.5h-7.5v.5h-1.1v-8.2h8.8v3.2h-7.7v1.1ZM669.6,469.3v1.4h6.5v-1.4h-6.5ZM669.6,473.6v1.6h7.5v-1.6h-7.5Z"/>
            <path d="M687.5,473.3c-1.7.6-3.5,1.2-5,1.7l-.3-1.2c.6-.2,1.3-.4,2.1-.7v-4.3h-1.8v-1.1h1.8v-3.5h-2v-1.1h5v1.1h-1.8v3.5h1.6v1.1h-1.6v4l1.7-.6.3,1.1ZM697,475v1.1h-10.3v-1.1h4.9v-2.2h-3.6v-1.1h3.6v-1.9h-3.4v-7.1h8.1v7.1h-3.5v1.9h3.7v1.1h-3.7v2.2h4.2ZM689.2,465.8h2.4v-2h-2.4v2ZM689.2,468.8h2.4v-2h-2.4v2ZM695.1,463.7h-2.4v2h2.4v-2ZM695.1,466.8h-2.4v2h2.4v-2Z"/>
            <path d="M704.7,465.6h-5.6v-1h5.6v1ZM704.3,475.7h-3.5v.7h-1v-5.4h4.5v4.7h0ZM704.3,467.7h-4.5v-.9h4.5v.9ZM699.8,468.9h4.5v1h-4.5v-1ZM704.2,463.5h-4.4v-1h4.4v1ZM700.8,472v2.7h2.5v-2.7h-2.5ZM710.4,471.2c.9,1.4,2.3,2.9,3.5,3.6-.3.2-.6.6-.8.9-1.1-.8-2.4-2.2-3.3-3.7v4.5h-1.2v-4.4c-.9,1.5-2.2,2.9-3.5,3.7-.2-.3-.5-.7-.8-.9,1.4-.8,2.8-2.2,3.7-3.7h-3.2v-1.1h3.7v-1.3h-3.1v-6.2h7.5v6.2h-3.2v1.3h3.7v1.1h-3ZM706.6,465.3h2.1v-1.6h-2.1v1.6ZM706.6,467.9h2.1v-1.6h-2.1v1.6ZM711.9,463.6h-2.2v1.6h2.2v-1.6ZM711.9,466.2h-2.2v1.6h2.2v-1.6Z"/>
          </g>
          <g>
            <path d="M671.3,527.4v.5c0,5.3-.2,7.1-.6,7.6-.3.4-.5.5-.9.5h-1.7c0-.3,0-.8-.3-1.1.7,0,1.2,0,1.5,0s.4,0,.5-.2c.3-.4.4-1.9.5-6.4h-1.9c-.2,3-.7,5.8-2,7.6-.2-.3-.6-.6-.9-.8,1.7-2.2,1.9-6.2,1.9-10.1h-1.7v-1.1h2.8v-2.6h1.1v2.6h2.8v1.1h-3.8v2.2h2.8,0ZM673.9,524.8c-.4,1-1,1.9-1.6,2.6-.2-.2-.7-.6-.9-.8,1.1-1.2,1.9-3.1,2.4-5.1l1.2.2c-.2.7-.4,1.4-.6,2h5.7v1.1h-6.2ZM678.3,535c.7,0,.8-.3.9-1.8.3.2.7.4,1,.4,0,1.9-.5,2.4-1.8,2.4h-3.2c-1.6,0-2-.4-2-1.8v-3.9l-1,.4-.4-1,1.4-.7v-2.5h1.1v2l1.5-.7v-2.5h1v2l1.8-.8h0c0,0,.2-.2.2-.2l.8.3v4.9c0,.5-.3.8-.7.9s-.8,0-1.2,0c0-.3,0-.7-.3-.9h.8c.2,0,.3,0,.3-.3v-3.6l-1.7.8v4.8h-1v-4.3l-1.5.7v4.4c0,.6,0,.7,1,.7h2.9v.2h.1Z"/>
            <path d="M688.3,525.1h-6v-1h6v1ZM687.7,535.1h-3.7v.7h-1v-5.4h4.8v4.7h0ZM683,526.3h4.7v.9h-4.7v-.9ZM683,528.4h4.7v1h-4.7v-1ZM687.7,523h-4.6v-1h4.6v1ZM684,531.5v2.7h2.7v-2.7h-2.7ZM690.7,523.9c0,1.4-.4,3.1-2,4.2-.2-.2-.6-.6-.9-.8,1.5-1,1.8-2.3,1.8-3.4v-1.9h5v3.9c0,.3,0,.4.3.4h.8c.3,0,.4-.2.4-1.7.2.2.7.4,1,.4,0,1.9-.4,2.3-1.2,2.3h-1.1c-1,0-1.3-.3-1.3-1.4v-2.9h-2.7v.9h0ZM696.1,528.6c-.5,2-1.5,3.5-2.7,4.7,1,.8,2.3,1.4,3.7,1.7-.3.2-.6.7-.8,1-1.5-.4-2.7-1.1-3.8-2-1.2.9-2.6,1.6-4,2,0-.3-.4-.8-.6-1,1.4-.4,2.7-.9,3.8-1.8-.9-1-1.7-2.1-2.2-3.5l1.1-.3c.5,1.2,1.2,2.2,2.1,3.1.9-.8,1.6-1.9,2.1-3.1h-6.1v-1.1h6.8l.6.3h0Z"/>
            <path d="M704.7,525.1h-5.6v-1h5.6v1ZM704.3,535.1h-3.5v.7h-1v-5.4h4.5v4.7ZM704.3,527.2h-4.5v-.9h4.5v.9ZM699.8,528.4h4.5v1h-4.5v-1ZM704.2,523h-4.4v-1h4.4v1ZM700.8,531.5v2.7h2.5v-2.7h-2.5ZM710.4,530.7c.9,1.4,2.3,2.9,3.5,3.6-.3.2-.6.6-.8.9-1.1-.8-2.4-2.2-3.3-3.7v4.5h-1.2v-4.4c-.9,1.5-2.2,2.9-3.5,3.7-.2-.3-.5-.7-.8-.9,1.4-.8,2.8-2.2,3.7-3.7h-3.2v-1.1h3.7v-1.3h-3.1v-6.2h7.5v6.2h-3.2v1.3h3.7v1.1h-3ZM706.6,524.7h2.1v-1.6h-2.1v1.6ZM706.6,527.3h2.1v-1.6h-2.1v1.6ZM711.9,523.1h-2.2v1.6h2.2v-1.6ZM711.9,525.7h-2.2v1.6h2.2v-1.6Z"/>
          </g>
          <g>
            <path d="M651.9,590.5c.6-.3,1.2-.5,1.8-.8l.2,1.1c-1.7.8-3.5,1.6-4.9,2.2l-.5-1.2c.6-.2,1.4-.5,2.2-.9v-5.1h-2v-1.1h2v-3.6h1.1v3.6h1.9v1.1h-1.9v4.7h.1ZM661.1,594.1c.9,0,1.1-.4,1.2-2.3.3.2.7.4,1.1.5-.2,2.2-.6,2.9-2.2,2.9h-3.9c-1.8,0-2.4-.4-2.4-2.1v-5l-1.3.5-.5-1,1.7-.7v-4.4h1.1v3.9l2.1-.9v-4.4h1.1v4l2.1-.9.3-.2.2-.2.8.3v.2c0,3,0,5.4-.3,6,0,.7-.4.9-.8,1.1h-1.5c0-.3,0-.8-.3-1h1.1c.2,0,.4,0,.5-.4v-4.7l-2.2.9v5.9h-1.1v-5.4l-2.1.9v5.5c0,.8.2,1.1,1.2,1.1h4v-.2h.1Z"/>
            <path d="M670.1,591.2c-1.5.8-3,1.5-4.3,2.1l-.5-1.2c.5-.2,1.1-.5,1.8-.8v-5.5h-1.7v-1.1h1.7v-3.7h1.1v3.7h1.5v1.1h-1.5v5c.5-.2,1-.5,1.5-.7l.4,1.1h0ZM675.3,592.1c-1.9.6-3.9,1.1-5.4,1.6l-.3-1.1c1.4-.3,3.6-.9,5.6-1.5v1h.1ZM679.6,586c-.6,2.1-1.3,3.9-2.3,5.5.4,1.7.9,2.8,1.5,2.8s.4-.6.5-2.3c.2.3.6.5.8.6-.2,2.1-.5,2.8-1.5,2.8s-1.7-1-2.2-2.7c-.8,1-1.7,1.9-2.7,2.6-.2-.2-.6-.6-.9-.8,1.3-.8,2.4-1.9,3.2-3.2-.4-1.9-.6-4.4-.7-7.1h-5.4v-1.1h5.3v-2.3h1.2v2.3h2.5c-.4-.5-1.2-1.2-1.9-1.7l.7-.6c.7.5,1.6,1.2,2,1.6l-.7.7h.8v1.1h-3.4c0,2.1.2,4,.4,5.6.7-1.2,1.2-2.6,1.5-4.1l1.3.3h0ZM674.5,585.8v4.6h-4v-4.6h4ZM673.5,586.8h-2.1v2.7h2.1v-2.7Z"/>
            <path d="M685.6,592.3c.8,1.2,2.2,1.7,4,1.8s5.4,0,7.4,0c0,.3-.3.8-.4,1.2h-7c-2.1,0-3.5-.6-4.5-1.9-.7.7-1.4,1.4-2.2,2l-.6-1.1c.7-.5,1.5-1.2,2.2-1.8v-4.1h-2v-1.1h3.2v5.1h-.1ZM685.1,584.6c-.5-.8-1.6-1.9-2.5-2.7l.9-.7c1,.7,2.1,1.8,2.6,2.6l-1,.8h0ZM690.8,591.7h-4.5v-1h4.5v-1.1h-3.5v-5.2h3.5v-1.1h-4.3v-1h4.3v-1.4h1.2v1.4h4.5v1h-4.5v1.1h3.7v5.2h-3.7v1.1h4.8v1h-4.8v1.8h-1.2v-1.8ZM688.3,586.5h2.4v-1.3h-2.4v1.3ZM690.8,588.7v-1.3h-2.4v1.3h2.4ZM691.9,585.3v1.3h2.6v-1.3h-2.6ZM694.5,587.4h-2.6v1.3h2.6v-1.3Z"/>
            <path d="M704,588.7c-.6.2-1.2.4-1.8.6v4.8c0,.7,0,1-.5,1.2s-1,.2-2,.2c0-.3-.2-.8-.4-1.1h1.5c.2,0,.3,0,.3-.3v-4.5c-.7.2-1.3.4-1.9.6l-.3-1.2c.6-.2,1.4-.4,2.2-.7v-3.3h-2v-1.1h2v-3.2h1.1v3.2h1.7v.3c.9-.9,1.7-2.2,2.1-3.6l1,.3c-.2.5-.4,1-.6,1.5h2.3c.3-.6.6-1.2.8-1.7l1.2.3c-.3.5-.5,1-.8,1.4h3.4v.9h-3.5v1h3.1v.8h-3.1v1h3.1v.8h-3.1v1h3.6v.9h-8.3v-4.3c-.3.4-.6.7-.9,1l-.5-.5h-1.6v2.9c.5-.2,1.1-.4,1.6-.5l.3,1.3h0ZM713.5,591.7c-.2,2.1-.4,3-.8,3.4-.3.2-.6.3-1,.4h-1.9c0-.3,0-.7-.3-1h2.4c.2-.2.4-.8.6-2.2h-2c0,.3,0,.5-.2.8l-1-.2c.2-.5.3-1.2.5-1.9h-2c-.3,2.4-1.4,3.8-3.4,4.7,0-.2-.5-.7-.8-.9,1.8-.7,2.8-1.8,3-3.8h-2.2v-1h6.7c0,.4-.2.9-.3,1.4h3l-.3.3ZM708.7,583.5h-2.5v1h2.5v-1ZM708.7,585.3h-2.5v1h2.5v-1ZM708.7,587.1h-2.5v1h2.5v-1Z"/>
            <path d="M721.5,584.5h-5.6v-1h5.6v1ZM721.1,594.6h-3.5v.7h-1v-5.4h4.5v4.7ZM721.1,586.6h-4.5v-.9h4.5v.9ZM716.6,587.8h4.5v1h-4.5v-1ZM721,582.4h-4.4v-1h4.4v1ZM717.6,590.9v2.7h2.5v-2.7h-2.5ZM727.2,590.1c.9,1.4,2.3,2.9,3.5,3.6-.3.2-.6.6-.8.9-1.1-.8-2.4-2.2-3.3-3.7v4.5h-1.2v-4.4c-.9,1.5-2.2,2.9-3.5,3.7-.2-.3-.5-.7-.8-.9,1.4-.8,2.8-2.2,3.7-3.7h-3.2v-1.1h3.7v-1.3h-3.1v-6.2h7.5v6.2h-3.2v1.3h3.7v1.1h-3ZM723.4,584.1h2.1v-1.6h-2.1v1.6ZM723.4,586.8h2.1v-1.6h-2.1v1.6ZM728.7,582.5h-2.2v1.6h2.2v-1.6ZM728.7,585.1h-2.2v1.6h2.2v-1.6Z"/>
          </g>
        </g>
        <g>
          <path d="M214,293.2c-.5,1.8-1.3,3.2-2.4,4.2,1.8.7,3.4,1.5,4.5,2.2l-.9,1c-1.1-.8-2.8-1.6-4.6-2.4-1.7,1.2-3.9,1.9-6.7,2.4-.1-.3-.5-.8-.7-1.1,2.6-.3,4.6-.9,6.2-1.8-1.1-.4-2.1-.8-3.1-1.1-.1.2-.3.5-.4.7l-1.2-.3c.6-1,1.4-2.4,2.1-3.8h-3.9v-1.1h4.5c.4-.9.9-1.8,1.3-2.6l1.2.3c-.3.7-.7,1.5-1.1,2.3h8.3v1.1h-3.1ZM204.4,291.1h-1.2v-3.4h5.9v-1.7h1.2v1.7h6.1v3.4h-1.2v-2.3h-10.8v2.3ZM208,293.2c-.4.9-.9,1.7-1.3,2.5,1.2.4,2.4.8,3.7,1.2,1.1-.9,1.8-2.1,2.2-3.7h-4.6,0Z"/>
          <path d="M227.1,285.9c1.7,2.3,4.5,4.7,6.9,5.9-.3.3-.6.7-.8,1.1-2.4-1.4-5.2-3.8-6.7-5.8-1.3,1.9-3.9,4.3-6.5,5.9-.1-.3-.5-.7-.7-.9,2.7-1.5,5.4-4,6.6-6.1h1.2ZM227.2,299.1h6.2v1.1h-13.5v-1.1h6.1v-2.6h-4.8v-1.1h4.8v-2.5h-4v-1.1h9.5v1.1h-4.2v2.5h4.8v1.1h-4.8v2.6h-.1Z"/>
          <path d="M250.7,288.2h-3.5c.4.4.7.9.9,1.3l-1.1.4c-.2-.5-.6-1.1-1.1-1.7h-1.3c-.3.4-.6.7-.9,1h.2v1.2h6.2v3h-1.1v-2h-11.1v2h-1.1v-3h6v-1c-.2-.1-.5-.3-.7-.4.4-.3.7-.5,1-.9h-2.8c.3.5.5,1,.6,1.3l-1.1.3c-.1-.4-.4-1.1-.8-1.6h-.7c-.4.7-.9,1.2-1.4,1.7-.2-.2-.7-.5-1-.6,1-.8,1.8-2.1,2.3-3.3l1.1.3c-.1.3-.3.7-.5,1h4.2v.9c.6-.7,1.1-1.4,1.4-2.2l1.1.3c-.1.3-.3.7-.5,1h5.4v1h.3ZM240.2,296.6h8.7v3.9h-1.2v-.5h-7.5v.5h-1.1v-8.2h8.8v3.2h-7.7v1.1ZM240.2,293.3v1.4h6.5v-1.4h-6.5ZM240.2,297.6v1.6h7.5v-1.6h-7.5Z"/>
          <path d="M258.1,297.3c-1.7.6-3.5,1.2-5,1.7l-.3-1.2c.6-.2,1.3-.4,2.1-.7v-4.3h-1.8v-1.1h1.8v-3.5h-2v-1.1h5v1.1h-1.8v3.5h1.6v1.1h-1.6v4l1.7-.6.3,1.1h0ZM267.6,299v1.1h-10.3v-1.1h4.9v-2.2h-3.6v-1.1h3.6v-1.9h-3.4v-7.1h8.1v7.1h-3.5v1.9h3.7v1.1h-3.7v2.2h4.2,0ZM259.8,289.8h2.4v-2h-2.4v2ZM259.8,292.8h2.4v-2h-2.4v2ZM265.7,287.7h-2.4v2h2.4v-2ZM265.7,290.8h-2.4v2h2.4v-2Z"/>
          <path d="M217.6,314.3c-.3.4-.5.8-.8,1.3h8.7v1h-3.3c-.4,1-1.1,1.8-1.9,2.4,1.8.5,3.5,1,4.7,1.5l-.7,1c-1.3-.6-3.2-1.2-5.2-1.7-1.8,1-4.2,1.5-7.4,1.7-.1-.3-.3-.8-.5-1.1,2.6-.1,4.6-.5,6.1-1.1-.9-.2-1.9-.4-2.9-.6l-.3.4-1.1-.4c.5-.6,1-1.4,1.6-2.3h-3.6v-1h4.4c.4-.6.8-1.2,1.1-1.7l1.1.6v-3c-1.5,1.6-3.9,3-6,3.6-.1-.3-.5-.7-.7-.9,1.9-.5,4-1.6,5.4-2.8h-5.1v-1h6.4v-1.6c-1.7.1-3.5.2-5.1.2,0-.3-.2-.7-.3-.9,3.6-.1,8.1-.4,10.5-1l.9.8c-1.3.3-3,.5-4.9.7v1.7h6.5v1h-5.1c1.4,1.2,3.5,2.1,5.4,2.6-.3.3-.6.7-.8,1-2.2-.7-4.5-2-6.1-3.5v3.1h-1,0ZM216.1,316.6c-.3.4-.6.9-.9,1.3,1.2.2,2.5.5,3.7.8.8-.5,1.5-1.2,2-2.1h-4.8Z"/>
          <path d="M232.5,318.9l1.1.7c-1.3.8-3.3,1.6-5,2-.2-.2-.6-.6-.9-.9,1.6-.4,3.7-1.1,4.8-1.8h-3.1v-6.9h11.3v6.9h-8.2ZM240.1,311.2h-10v-3.6h10v3.6ZM230.6,314.1h8.9v-1.1h-8.9v1.1ZM230.6,316.1h8.9v-1.1h-8.9v1.1ZM230.6,318.1h8.9v-1.2h-8.9v1.2ZM238.8,308.5h-7.6v1.7h7.6v-1.7ZM237.3,319c1.6.5,3.8,1.3,5,1.8l-1,.9c-1.2-.6-3.3-1.4-5-1.9l1-.8Z"/>
          <path d="M252.3,307c1.7,2.4,4.5,4.4,7,5.5-.3.3-.6.7-.8,1.1-2.5-1.2-5.3-3.3-6.8-5.4-1.3,1.9-3.9,4.1-6.6,5.5-.1-.3-.4-.7-.7-.9,2.7-1.3,5.4-3.6,6.6-5.6h1.3v-.2ZM245.3,315h13.2v1.1h-7.5c-.6,1.2-1.2,2.6-1.9,3.7,2-.1,4.2-.1,6.5-.2-.7-.8-1.4-1.5-2.1-2.2l1-.5c1.5,1.3,3,3,3.8,4.2l-1.1.7c-.2-.3-.4-.7-.7-1.1-3.9.2-8.1.4-10.8.5l-.2-1.2c.7,0,1.5,0,2.4-.1.6-1.1,1.3-2.6,1.7-3.7h-4.2v-1.2h0ZM255.6,311.9v1.1h-7.6v-1.1h7.6Z"/>
        </g>
        <path class="cls-6" d="M182,648.4c1.1,0,2,.9,2,2v34c0,1.1-.9,2-2,2H3c-1.1,0-2-.9-2-2v-34c0-1.1.9-2,2-2h179M182,647.4H3c-1.6,0-3,1.3-3,3v34c0,1.6,1.4,3,3,3h179c1.6,0,3-1.4,3-3v-34c0-1.7-1.4-3-3-3h0Z"/>
        <g>
          <path d="M20.7,665.7v9.3h-1.1v-9.3h-2v-1.1h2v-4.2h1.1v4.2h1.9v1.1h-1.9ZM32.3,671.1h-2.5v2.6c0,.6-.1.9-.6,1.1-.4.2-1.2.2-2.3.2,0-.3-.2-.7-.4-1h1.8c.2,0,.3,0,.3-.3v-2.6h-6.8v-1h6.8v-1.1h-5.6v-4.9h3.6v-1h-4.4v-1h4.4v-1.8h1.1v1.8h2.8c-.5-.4-1.3-.8-2-1.2l.6-.7c.8.3,1.8.9,2.3,1.3l-.4.5h1.1v1h-4.4v1h3.7v4.9h-1.7v1.1h2.5v1.1h.1ZM24.4,671.2c.8.6,1.7,1.4,2.1,2.1l-.9.7c-.4-.6-1.3-1.5-2-2.1l.8-.7ZM24.2,666.2h2.5v-1.2h-2.5v1.2ZM24.2,668.2h2.5v-1.2h-2.5v1.2ZM27.8,665v1.2h2.6v-1.2h-2.6ZM30.4,667h-2.6v1.2h2.6v-1.2Z"/>
          <path d="M42.8,670.4c1.2,2,3.3,3.1,6.4,3.5-.3.3-.6.8-.8,1.1-3.2-.6-5.3-1.9-6.6-4.2-.7,1.7-2.5,3.2-6.7,4.2,0-.3-.5-.7-.7-1,4-.9,5.6-2.2,6.2-3.6h-6v-1.1h1.6v-3.7h4.8v-1.8h1.2v1.8h4.9v3.7h1.6v1.1h-5.9ZM38.2,662.9h-3.4v-1.1h3.4v-1.5h1.2v1.5h4.5v-1.5h1.2v1.5h3.4v1.1h-3.4v1.6h-1.2v-1.6h-4.5v1.6h-1.2v-1.6ZM41,669.3v-2.7h-3.6v2.7h3.6ZM42.2,666.7v2.6h3.9v-2.7h-3.9Z"/>
          <path d="M60.3,662.7c-.4.6-.7,1.2-1.1,1.8v10.5h-1.3v-9c-1.6,1.8-3.6,3.5-5.8,4.7-.2-.3-.6-.8-.8-1,3.2-1.6,5.9-4.2,7.5-7h-7.1v-1.2h13.7v1.2h-5.1ZM60.3,665.4c1.9,1.2,4.3,3,5.5,4.2l-.9.9c-1.1-1.2-3.5-3.1-5.4-4.4l.8-.7Z"/>
          <path d="M82.3,664.1v.6c-.2,6.7-.3,8.9-.9,9.6-.3.4-.6.5-1.1.6h-1.9c0-.3-.2-.8-.3-1.1h1.8c.3,0,.4,0,.6-.3.4-.5.6-2.6.7-8.4h-2.3c-.2,4.3-.9,7.7-3.7,9.9-.2-.3-.6-.7-.9-.8.3-.2.5-.4.7-.6-2.4.3-4.9.6-6.7.8l-.2-1c1,0,2.2-.2,3.5-.3v-1.4h-3v-.9h3v-1h-3v-4.9h3v-1h-3.6v-.9h3.5v-1.1c-1,0-2.1,0-3,.2,0-.3-.2-.6-.3-.9,2.4,0,5.2-.4,6.9-.8l.6.9c-.9.2-2,.3-3.1.5v1.2h3.4v.9h-3.4v1h3.1v4.8h-3.1v1h3.1v.9h-3.1v1.3c1,0,2.1-.2,3.2-.3h0c1.4-1.8,1.8-4.4,2-7.4h-1.9v-1.1h1.9v-3.5h1.1v3.5h3.4ZM69.5,667h2v-1.2h-2v1.2ZM71.5,668.9v-1.2h-2v1.2h2ZM72.6,665.8v1.2h2.1v-1.2h-2.1ZM74.7,667.8h-2.1v1.2h2.1v-1.2Z"/>
          <path d="M99.2,665.1v1.1h-11.9v1.4c0,2.1-.3,5.2-1.7,7.4-.2-.2-.7-.6-.9-.8,1.3-2,1.5-4.7,1.5-6.6v-2.5h3.1c0-.6-.5-1.4-.8-2.1l.8-.2h-3.3v-1h5.6v-1.4h1.2v1.4h5.7v1h-2.8.6c-.4.9-.8,1.7-1.2,2.2h4.1ZM93.9,673.6h5.2v1h-11.3v-1h5v-2h-3.6v-1h3.6v-1.6h-3c-.4.6-.8,1.1-1.1,1.5-.2-.2-.7-.4-.9-.6.9-.8,1.6-2.1,2-3.3l1.1.3c0,.4-.3.8-.5,1.2h2.5v-1.4h1.2v1.4h4.2v1h-4.2v1.7h3.8v1h-3.8v1.8h-.2,0ZM89.5,662.8c.4.7.8,1.5.9,2.1l-.7.2h4.9l-.6-.2c.3-.6.7-1.5.9-2.1h-5.4Z"/>
          <path d="M106.5,669c-.2-.5-.8-1.6-1.2-2.4v8.4h-1.2v-7.8c-.5,1.8-1.3,3.5-2,4.6,0-.3-.4-.8-.7-1.1,1-1.3,2-3.9,2.5-6h-2.2v-1.1h2.3v-3.1h1.2v3.1h2v1.1h-2v.5c.4.6,1.7,2.6,2,3.1l-.7.7h0ZM113.1,668.3c.8,1.9,2.1,3.8,3.4,4.8-.3.2-.7.6-.9.9-1.2-1.1-2.4-3-3.3-5v5.9h-1.2v-5.7c-1,2-2.4,3.9-3.9,5-.2-.3-.5-.7-.8-.9,1.6-1,3.1-2.9,4-4.9h-3.1v-1.1h3.8v-2.8h-2c-.3.9-.6,1.7-1,2.4-.2-.2-.7-.5-1-.6.8-1.2,1.4-3.2,1.6-5.1l1.1.2c0,.7-.3,1.4-.4,2h1.7v-3h1.2v3h3.1v1.1h-3.1v2.8h3.7v1.1h-2.9,0Z"/>
          <path d="M128.1,664.5c.4,5.4,1.6,9.3,3.2,9.3s.6-.9.7-3c.3.3.7.5,1.1.7-.2,2.8-.7,3.6-1.9,3.6-2.6,0-3.9-4.6-4.4-10.5h-8.3v-1.2h8.2v-2.9h1.2v2.9h4.7v1.2h-4.5ZM123.2,672.4c1.1-.2,2.3-.5,3.4-.7v1c-2.6.7-5.5,1.3-7.6,1.8l-.4-1.2c.9-.2,2.1-.4,3.3-.7v-4.6h-2.8v-1.2h7v1.2h-3v4.4h0ZM131.3,663.1c-.5-.6-1.5-1.4-2.3-2l.8-.7c.8.5,1.8,1.4,2.3,1.9l-.8.8Z"/>
          <path d="M143,660.4c1.7,2.4,4.5,4.4,7,5.5-.3.3-.6.7-.8,1.1-2.5-1.2-5.3-3.3-6.8-5.4-1.3,1.9-3.9,4.1-6.6,5.5-.1-.3-.4-.7-.7-.9,2.7-1.3,5.4-3.6,6.6-5.6h1.3v-.2h0ZM136,668.3h13.2v1.1h-7.5c-.6,1.2-1.2,2.6-1.9,3.7,2,0,4.2,0,6.5-.2-.7-.8-1.4-1.5-2.1-2.2l1-.5c1.5,1.3,3,3,3.8,4.2l-1.1.7c-.2-.3-.4-.7-.7-1.1-3.9.2-8.1.4-10.8.5l-.2-1.2h2.4c.6-1.1,1.3-2.6,1.7-3.7h-4.3v-1.2h0ZM146.3,665.3v1.1h-7.6v-1.1h7.6Z"/>
          <path d="M157.9,670.4c-.4-.5-1.3-1.4-2-2v6.6h-1.2v-6.2c-.8.8-1.6,1.5-2.4,2-.1-.3-.4-.8-.6-1.1,1.9-1.1,3.9-3.1,5-5.3h-4.4v-1.1h2.5v-3h1.2v3h1.6l.7.4c-.5,1.2-1.2,2.4-2.1,3.5.8.6,2.2,1.8,2.6,2.2l-.9,1h0ZM166.8,673.4v1.2h-9v-1.2h4v-6.6h-3.4v-1.2h3.4v-5.1h1.2v5.1h3.4v1.2h-3.4v6.6h3.8Z"/>
        </g>
        <path class="cls-6" d="M767,648.4c1.1,0,2,.9,2,2v34c0,1.1-.9,2-2,2h-274c-1.1,0-2-.9-2-2v-34c0-1.1.9-2,2-2h274M767,647.4h-274c-1.7,0-3,1.3-3,3v34c0,1.6,1.3,3,3,3h274c1.7,0,3-1.4,3-3v-34c0-1.7-1.3-3-3-3h0Z"/>
        <path class="cls-6" d="M767,708.4c1.1,0,2,.9,2,2v34c0,1.1-.9,2-2,2h-274c-1.1,0-2-.9-2-2v-34c0-1.1.9-2,2-2h274M767,707.4h-274c-1.7,0-3,1.3-3,3v34c0,1.6,1.3,3,3,3h274c1.7,0,3-1.4,3-3v-34c0-1.7-1.3-3-3-3h0Z"/>
        <path class="cls-6" d="M767,768.4c1.1,0,2,.9,2,2v34c0,1.1-.9,2-2,2h-274c-1.1,0-2-.9-2-2v-34c0-1.1.9-2,2-2h274M767,767.4h-274c-1.7,0-3,1.3-3,3v34c0,1.6,1.3,3,3,3h274c1.7,0,3-1.4,3-3v-34c0-1.7-1.3-3-3-3h0Z"/>
        <path class="cls-6" d="M767,828.4c1.1,0,2,.9,2,2v34c0,1.1-.9,2-2,2h-274c-1.1,0-2-.9-2-2v-34c0-1.1.9-2,2-2h274M767,827.4h-274c-1.7,0-3,1.3-3,3v34c0,1.6,1.3,3,3,3h274c1.7,0,3-1.4,3-3v-34c0-1.7-1.3-3-3-3h0Z"/>
        <path class="cls-6" d="M767,888.4c1.1,0,2,.9,2,2v34c0,1.1-.9,2-2,2h-274c-1.1,0-2-.9-2-2v-34c0-1.1.9-2,2-2h274M767,887.4h-274c-1.7,0-3,1.3-3,3v34c0,1.6,1.3,3,3,3h274c1.7,0,3-1.4,3-3v-34c0-1.7-1.3-3-3-3h0Z"/>
        <g>
          <path d="M541.6,663.8c-.5,1.4-1.6,3.2-2.7,4.7,1.7,1.4,3.6,3.5,4.7,4.8l-1.1,1c-1.1-1.4-2.8-3.3-4.4-4.8-1.7,1.8-3.9,3.6-6.2,4.7l-1-1.1c2.6-1,4.9-2.9,6.6-4.8,1.1-1.2,2.3-3.1,2.7-4.4h-7.8v-1.5h9l.8.6c-.3,0-.5.4-.6.7h0Z"/>
          <path d="M548.1,672.3l-1.1-.7c1.1-1,2.4-2.9,3.1-4.2l1.1.5c-.7,1.4-2.2,3.4-3.1,4.4ZM554.6,662.6v1.6h5.5v1.3h-5.5v7.7c0,.8-.4,1.3-1.4,1.3h-2.3v-1.3c.6,0,1.3.2,1.7.2s.6-.2.6-.6v-7.2h-5.9v-1.3h5.9v-2.7h1.5v1.1h0ZM560.6,671.5l-1.2.7c-.6-1.2-1.8-3.2-2.7-4.3l1.1-.6c.9,1.1,2.2,3.1,2.8,4.2h0ZM559.1,660.2c1,0,1.8.8,1.8,1.8s-.8,1.7-1.8,1.7-1.7-.8-1.7-1.7.7-1.8,1.7-1.8ZM559.1,663c.6,0,1-.4,1-1s-.5-1-1-1-1,.5-1,1,.4,1,1,1Z"/>
          <path d="M566.7,666.9h10.5v1.6h-12.7v-1.6h2.2Z"/>
          <path d="M584.2,667.1l-1.3.5c-.3-1-1.4-3.7-1.8-4.4l1.3-.5c.4.9,1.5,3.3,1.8,4.4ZM593.7,663.7c-.5,2-1.3,4.3-2.7,6-1.6,2.2-4,3.8-6.3,4.6l-1.1-1.1c2.3-.7,4.7-2.2,6.3-4.3,1.3-1.6,2.2-4.2,2.6-6.6l1.5.4c0,.3-.2.7-.3,1h0ZM588.5,665.9l-1.2.4c-.3-.9-1.2-3.4-1.6-4.2l1.2-.4c.4.8,1.3,3.3,1.6,4.2Z"/>
          <path d="M604.1,662.6v1.6h4.8l.9.4v.8c0,1.5-.3,6.2-1,7.7-.3.7-.8,1-1.7,1h-2.6l-.2-1.3c.9,0,1.7.2,2.4.2s.8,0,.9-.5c.6-1.2.8-5.2.8-6.9h-4.5c-.6,4.6-2.2,7-4.9,8.9l-1.2-.9c.5-.3,1.2-.7,1.6-1.2,1.6-1.4,2.7-3.4,3.2-6.7h-4.2v-1.3h4.6v-2.9h1.5c0,.2-.2.8-.2,1.1h-.2ZM609.8,663.4l-.9.4c-.3-.6-.9-1.6-1.3-2.2l.8-.4c.5.6,1,1.6,1.4,2.2ZM611.5,662.7l-.8.4c-.4-.7-.9-1.6-1.3-2.2l.8-.4c.4.7,1.1,1.7,1.3,2.2Z"/>
          <path d="M617.1,666.9h10.5v1.6h-12.7v-1.6h2.2Z"/>
          <path d="M632.7,666.2h11.7v1.3h-5.6c0,1.7-.3,3.2-.9,4.4-.6,1.1-1.8,2.2-3.2,2.9l-1.2-.9c1.2-.5,2.4-1.4,3-2.4.7-1.1.9-2.4.9-4h-6.2v-1.3h1.5ZM634.7,662.2h7v1.3h-8.5v-1.3h1.5ZM643.9,663l-.9.4c-.3-.7-.9-1.6-1.3-2.2l.8-.4c.5.5,1.1,1.5,1.4,2.2ZM645.7,662.3l-.9.4c-.4-.7-.9-1.6-1.3-2.2l.8-.4c.4.6,1.1,1.6,1.4,2.2Z"/>
          <path d="M655.5,670.4c2.5-1.6,4.4-3.9,5.3-5.9l.8,1.4c-1.1,2-3,4.2-5.4,5.7-1.6,1-3.6,2-6.3,2.5l-.8-1.3c2.8-.5,4.8-1.4,6.4-2.4ZM654.5,665.3l-1,1c-.8-.8-2.8-2.5-4-3.3l.9-1c1.2.8,3.2,2.4,4.1,3.3Z"/>
          <path d="M669.2,669c-.2-.5-.8-1.6-1.2-2.4v8.4h-1.2v-7.8c-.5,1.8-1.3,3.5-2,4.6,0-.3-.4-.8-.7-1.1,1-1.3,2-3.9,2.5-6h-2.2v-1.1h2.3v-3.1h1.2v3.1h2v1.1h-2v.5c.4.6,1.7,2.6,2,3.1l-.7.7h0ZM675.8,668.3c.8,1.9,2.1,3.8,3.4,4.8-.3.2-.7.6-.9.9-1.2-1.1-2.4-3-3.3-5v5.9h-1.2v-5.7c-1,2-2.4,3.9-3.9,5-.2-.3-.5-.7-.8-.9,1.6-1,3.1-2.9,4-4.9h-3.1v-1.1h3.8v-2.8h-2c-.3.9-.6,1.7-1,2.4-.2-.2-.7-.5-1-.6.8-1.2,1.4-3.2,1.6-5.1l1.1.2c0,.7-.3,1.4-.4,2h1.7v-3h1.2v3h3.1v1.1h-3.1v2.8h3.7v1.1h-2.9,0Z"/>
          <path d="M690.8,664.5c.4,5.4,1.6,9.3,3.2,9.3s.6-.9.7-3c.3.3.7.5,1.1.7-.2,2.8-.7,3.6-1.9,3.6-2.6,0-3.9-4.6-4.4-10.5h-8.3v-1.2h8.2v-2.9h1.2v2.9h4.7v1.2h-4.5ZM685.9,672.4c1.1-.2,2.3-.5,3.4-.7v1c-2.6.7-5.5,1.3-7.6,1.8l-.4-1.2c.9-.2,2.1-.4,3.3-.7v-4.6h-2.8v-1.2h7v1.2h-3v4.4h0ZM694,663.1c-.5-.6-1.5-1.4-2.3-2l.8-.7c.8.5,1.8,1.4,2.3,1.9l-.8.8Z"/>
          <path d="M705.7,660.4c1.7,2.4,4.5,4.4,7,5.5-.3.3-.6.7-.8,1.1-2.5-1.2-5.3-3.3-6.8-5.4-1.3,1.9-3.9,4.1-6.6,5.5,0-.3-.4-.7-.7-.9,2.7-1.3,5.4-3.6,6.6-5.6h1.3v-.2h0ZM698.7,668.3h13.2v1.1h-7.5c-.6,1.2-1.2,2.6-1.9,3.7,2,0,4.2,0,6.5-.2-.7-.8-1.4-1.5-2.1-2.2l1-.5c1.5,1.3,3,3,3.8,4.2l-1.1.7c-.2-.3-.4-.7-.7-1.1-3.9.2-8.1.4-10.8.5l-.2-1.2h2.4c.6-1.1,1.3-2.6,1.7-3.7h-4.2v-1.2h-.1ZM709,665.3v1.1h-7.6v-1.1h7.6Z"/>
          <path d="M720.6,670.4c-.4-.5-1.3-1.4-2-2v6.6h-1.2v-6.2c-.8.8-1.6,1.5-2.4,2,0-.3-.4-.8-.6-1.1,1.9-1.1,3.9-3.1,5-5.3h-4.5v-1.1h2.5v-3h1.2v3h1.6l.7.4c-.5,1.2-1.2,2.4-2.1,3.5.8.6,2.2,1.8,2.6,2.2l-.8,1h0ZM729.5,673.4v1.2h-9v-1.2h4v-6.6h-3.4v-1.2h3.4v-5.1h1.2v5.1h3.4v1.2h-3.4v6.6h3.8Z"/>
        </g>
        <path class="cls-6" d="M767,948.3c1.1,0,2,.9,2,2v34c0,1.1-.9,2-2,2h-274c-1.1,0-2-.9-2-2v-34c0-1.1.9-2,2-2h274M767,947.3h-274c-1.7,0-3,1.3-3,3v34c0,1.6,1.3,3,3,3h274c1.7,0,3-1.4,3-3v-34c0-1.7-1.3-3-3-3h0Z"/>
        <g>
          <path d="M560.1,963.2h-3.6v-1.3h8.6v1.3h-3.6v10.5h-1.5v-10.5h0Z"/>
          <path d="M567.3,971.4c0-1.9,1.6-2.8,5.3-3.2,0-1.1-.4-2.2-1.8-2.2s-1.9.5-2.6.9l-.6-1c.8-.5,2-1.1,3.4-1.1,2.1,0,3,1.4,3,3.6v5.3h-1.2v-1h0c-.8.7-1.8,1.2-2.9,1.2s-2.5-.9-2.5-2.5h-.1ZM572.7,971.5v-2.4c-2.9.4-3.9,1.1-3.9,2.2s.7,1.4,1.5,1.4,1.5-.4,2.4-1.2Z"/>
          <path d="M577.7,965h1.2v1.2h0c.8-.8,1.7-1.5,2.9-1.5,1.8,0,2.7,1.2,2.7,3.4v5.5h-1.5v-5.3c0-1.6-.5-2.3-1.6-2.3s-1.5.4-2.4,1.3v6.3h-1.5v-8.6h.2Z"/>
          <path d="M587.6,969.4c0-2.8,1.8-4.6,3.8-4.6s1.7.4,2.4,1v-4.8h1.4v12.7h-1.1v-1h0c-.7.7-1.6,1.2-2.6,1.2-2.2,0-3.7-1.6-3.7-4.5h-.2ZM593.8,971.4v-4.5c-.8-.7-1.4-.9-2.1-.9-1.4,0-2.5,1.3-2.5,3.3s.9,3.3,2.4,3.3,1.5-.4,2.2-1.2h0Z"/>
          <path d="M598.3,969.4c0-2.8,1.9-4.6,3.9-4.6s3.5,1.6,3.5,4.1,0,.6,0,.8h-5.9c0,1.9,1.2,3,2.9,3s1.5-.3,2.2-.7l.5,1c-.8.5-1.7.9-2.9.9-2.2,0-4.1-1.6-4.1-4.5h-.1ZM604.4,968.6c0-1.7-.8-2.7-2.2-2.7s-2.3,1-2.5,2.7h4.7Z"/>
          <path d="M608.7,965h1.2v1.3h0c.8-.8,1.7-1.5,2.7-1.5s2,.6,2.4,1.7c.9-1,1.8-1.7,2.9-1.7,1.8,0,2.6,1.2,2.6,3.4v5.5h-1.5v-5.3c0-1.6-.5-2.3-1.6-2.3s-1.4.4-2.2,1.3v6.3h-1.5v-5.3c0-1.6-.5-2.3-1.6-2.3s-1.4.4-2.2,1.3v6.3h-1.5v-8.7h.3Z"/>
          <path d="M623.5,972.1l.9-1c.8.9,2,1.5,3.2,1.5s2.5-.8,2.5-1.9-.8-1.6-2-2.1l-1.7-.7c-1.1-.5-2.4-1.3-2.4-3s1.6-3.1,3.7-3.1,2.6.6,3.5,1.5l-.8.9c-.7-.7-1.6-1.1-2.7-1.1s-2.2.7-2.2,1.7,1,1.6,1.9,2l1.7.7c1.4.6,2.4,1.4,2.4,3.1s-1.5,3.3-4,3.3-2.9-.7-4-1.8h0Z"/>
          <path d="M634.6,965h1.2v1h0c.8-.6,1.8-1.2,2.8-1.2,2.2,0,3.5,1.8,3.5,4.4s-1.8,4.7-3.8,4.7-1.6-.4-2.4-1v4.4h-1.5v-12.3h.2ZM640.7,969.2c0-1.9-.6-3.2-2.3-3.2s-1.5.4-2.3,1.2v4.6c.8.7,1.6.9,2.1.9,1.4,0,2.5-1.3,2.5-3.5Z"/>
          <path d="M645.3,965h1.2v1.6h0c.6-1.1,1.5-1.8,2.5-1.8s.7,0,.9.2l-.3,1.3h-.8c-.7,0-1.6.5-2.2,2v5.6h-1.5v-8.8h.2Z"/>
          <path d="M652.1,962.2c0-.6.4-.9,1-.9s1,.4,1,.9-.4,1-1,1-1-.4-1-1ZM652.3,965h1.5v8.7h-1.5v-8.7Z"/>
          <path d="M657.5,965h1.2v1.2h0c.8-.8,1.7-1.5,2.9-1.5,1.8,0,2.7,1.2,2.7,3.4v5.5h-1.4v-5.3c0-1.6-.5-2.3-1.6-2.3s-1.5.4-2.4,1.3v6.3h-1.5v-8.6h0Z"/>
          <path d="M668.4,971v-4.8h-1.3v-1.1h1.4l.2-2.5h1.2v2.4h2.4v1.2h-2.4v4.8c0,1.1.3,1.7,1.3,1.7s.7,0,1-.2l.3,1.1c-.5.2-1.1.3-1.6.3-1.9,0-2.5-1.2-2.5-2.9h0Z"/>
          <path d="M674.3,975.9c1-.4,1.6-1.2,1.6-2.2h-.2c-.6,0-1.1-.4-1.1-1s.5-1,1.1-1,1.2.7,1.2,1.7c0,1.5-.9,2.7-2.3,3.3l-.3-.8Z"/>
          <path d="M680.3,961.9h1.5v11.7h-1.5v-11.7Z"/>
          <path d="M685.7,965h1.2v1.2h0c.8-.8,1.7-1.5,2.9-1.5,1.8,0,2.7,1.2,2.7,3.4v5.5h-1.5v-5.3c0-1.6-.5-2.3-1.6-2.3s-1.5.4-2.4,1.3v6.3h-1.5v-8.6h0Z"/>
          <path d="M695.6,969.4c0-2.9,2-4.6,4.2-4.6s1.9.5,2.5,1l-.8,1c-.5-.4-1-.8-1.7-.8-1.6,0-2.7,1.4-2.7,3.4s1.1,3.3,2.7,3.3,1.5-.4,2-.9l.6,1c-.8.7-1.8,1.1-2.8,1.1-2.2,0-4-1.6-4-4.5Z"/>
          <path d="M704.9,972.9c0-.7.5-1.1,1.1-1.1s1.1.5,1.1,1.1-.5,1.1-1.1,1.1-1.1-.5-1.1-1.1Z"/>
        </g>
        <g>
          <path d="M574.9,722.9h10.2v1.4h-5.2v7.4h6v1.5h-13.3v-1.5h5.9v-7.4h-4.9v-1.4h1.3,0Z"/>
          <path d="M600.4,723.5c-.5,1.4-1.6,3.2-2.7,4.7,1.7,1.4,3.6,3.5,4.7,4.8l-1.1,1c-1.1-1.4-2.8-3.3-4.4-4.8-1.7,1.8-3.9,3.6-6.2,4.7l-1-1.1c2.6-1,4.9-2.9,6.6-4.8,1.1-1.2,2.3-3.1,2.7-4.4h-7.8v-1.5h9l.8.6c-.3,0-.5.4-.6.7h0Z"/>
          <path d="M612.7,722.2c0,.2-.2.4-.3.6h4.3c.4,0,.8,0,1.1-.2l1.1.6c0,.2-.3.6-.4.9-.4,1.5-1.3,3.3-2.5,5,.7.5,1.3,1,1.8,1.4l-.9,1.1c-.5-.4-1.1-.9-1.7-1.5-1.4,1.6-3.4,3.1-6.1,4.1l-1.2-1c2.7-.8,4.8-2.3,6.2-3.9-1.2-.8-2.4-1.7-3.4-2.3l.9-.9c1.1.6,2.3,1.4,3.4,2.2,1-1.4,1.9-3.1,2.2-4.4h-5.4c-1,1.4-2.4,3-4.2,4.2l-1.1-.8c2.8-1.7,4.4-4.1,5.1-5.6.2-.3.4-.8.5-1.3l1.5.5c-.5.4-.8,1-.9,1.3h0Z"/>
          <path d="M627.2,728.7c-.2-.5-.8-1.6-1.2-2.4v8.4h-1.2v-7.8c-.5,1.8-1.3,3.5-2,4.6,0-.3-.4-.8-.7-1.1,1-1.3,2-3.9,2.5-6h-2.2v-1.1h2.3v-3.1h1.2v3.1h2v1.1h-2v.5c.4.6,1.7,2.6,2,3.1l-.7.7h0ZM633.8,728.1c.8,1.9,2.1,3.8,3.4,4.8-.3.2-.7.6-.9.9-1.2-1.1-2.4-3-3.3-5v5.9h-1.2v-5.7c-1,2-2.4,3.9-3.9,5-.2-.3-.5-.7-.8-.9,1.6-1,3.1-2.9,4-4.9h-3.1v-1.2h3.8v-2.8h-2c-.3.9-.6,1.7-1,2.4-.2-.2-.7-.5-1-.6.8-1.2,1.4-3.2,1.6-5.1l1.1.2c0,.7-.3,1.4-.4,2h1.7v-3h1.2v3h3.1v1.1h-3.1v2.8h3.7v1.1h-2.9,0Z"/>
          <path d="M648.8,724.2c.4,5.4,1.6,9.3,3.2,9.3s.6-.9.7-3c.3.3.7.5,1.1.7-.2,2.8-.7,3.6-1.9,3.6-2.6,0-3.9-4.6-4.4-10.5h-8.3v-1.2h8.2v-2.9h1.2v2.9h4.7v1.2h-4.5ZM643.9,732.1c1.1-.2,2.3-.5,3.4-.7v1c-2.6.7-5.5,1.3-7.6,1.8l-.4-1.2c.9-.2,2.1-.4,3.3-.7v-4.6h-2.8v-1.2h7v1.2h-3v4.4h0ZM652,722.9c-.5-.6-1.5-1.4-2.3-2l.8-.7c.8.5,1.8,1.4,2.3,1.9l-.8.8Z"/>
          <path d="M663.7,720.1c1.7,2.4,4.5,4.4,7,5.5-.3.3-.6.7-.8,1.1-2.5-1.2-5.3-3.3-6.8-5.4-1.3,1.9-3.9,4.1-6.6,5.5,0-.3-.4-.7-.7-.9,2.7-1.3,5.4-3.6,6.6-5.6h1.3v-.2h0ZM656.7,728.1h13.2v1.1h-7.5c-.6,1.2-1.2,2.6-1.9,3.7,2,0,4.2,0,6.5-.2-.7-.8-1.4-1.5-2.1-2.2l1-.5c1.5,1.3,3,3,3.8,4.2l-1.1.7c-.2-.3-.4-.7-.7-1.1-3.9.2-8.1.4-10.8.5l-.2-1.2h2.4c.6-1.1,1.3-2.6,1.7-3.7h-4.2v-1.2h-.1ZM667,725v1.1h-7.6v-1.1h7.6Z"/>
          <path d="M678.6,730.1c-.4-.5-1.3-1.4-2-2v6.6h-1.2v-6.2c-.8.8-1.6,1.5-2.4,2,0-.3-.4-.8-.6-1.1,1.9-1.1,3.9-3.1,5-5.3h-4.5v-1.1h2.5v-3h1.2v3h1.6l.7.4c-.5,1.2-1.2,2.4-2.1,3.5.8.6,2.2,1.8,2.6,2.2l-.8,1h0ZM687.5,733.1v1.2h-9v-1.2h4v-6.6h-3.4v-1.2h3.4v-5.1h1.2v5.1h3.4v1.2h-3.4v6.6h3.8Z"/>
        </g>
        <g>
          <path d="M543.7,843.6c-.6,1.1-2.2,3.2-4,4.4l-1.1-.8c1.5-.8,3-2.6,3.5-3.6h-10.9v-1.5h12.1l.8.8c0,.2-.3.4-.4.6h0ZM533.2,854.4l-1.2-1c.4,0,1-.4,1.4-.7,2.5-1.5,2.8-3.8,2.8-6.5s0-.7,0-1.2h1.4c.2,4.5-.2,7.4-4.3,9.4h-.1Z"/>
          <path d="M549.9,847h10.5v1.6h-12.7v-1.6h2.2Z"/>
          <path d="M570.7,842.7c0,.2-.2.4-.4.7h4.3c.4,0,.8,0,1-.2l1.1.7c0,.2-.3.6-.4.8-.4,1.6-1.4,3.8-2.8,5.5-1.5,1.8-3.4,3.2-6.4,4.4l-1.2-1c2.9-.9,4.9-2.3,6.4-4,1.2-1.5,2.2-3.5,2.6-5h-5.4c-1,1.3-2.3,2.8-4.1,3.9l-1.1-.8c2.8-1.6,4.3-4,5-5.4.2-.3.4-.8.5-1.3l1.5.5c-.2.3-.5.9-.6,1.2h0Z"/>
          <path d="M593.1,844c-.3,1.7-1.1,4.3-2.4,5.9-1.5,1.9-3.4,3.4-6.3,4.3l-1.1-1.2c3.1-.8,4.9-2.1,6.2-3.9,1.1-1.5,1.9-3.7,2.1-5.2h-9.8v-1.4h10.4l1,.6c0,.3,0,.6,0,.9h0Z"/>
          <path d="M604.1,847.3c1.5-.9,3-2.2,3.8-3.3l1,1c-.8.9-2.2,2-3.6,3v7.1h-1.5v-6.3c-1.3.7-3.2,1.6-5,2.1l-.6-1.2c2.1-.5,4.4-1.6,5.7-2.4h.2Z"/>
          <path d="M617.1,847h10.5v1.6h-12.7v-1.6h2.2Z"/>
          <path d="M633.8,849.5c.5-1.5.5-4.7.5-6.4s0-.8,0-1.2h1.5v1.2c0,1.8,0,5.2-.5,6.8-.5,1.7-1.5,3.3-2.8,4.4l-1.2-.8c1.3-1,2.3-2.5,2.7-4h-.2ZM638.5,852.6v-10.8h1.5v10.4c1.5-.7,3.4-2.1,4.7-3.9l.8,1.1c-1.4,1.9-3.6,3.5-5.5,4.4-.3,0-.4.3-.5.4l-.8-.7v-.9h-.2Z"/>
          <path d="M651.7,843.3v-1.7h1.6v4.3c2.1.7,5.1,1.8,6.8,2.6l-.6,1.4c-1.7-.9-4.5-2-6.3-2.6v7.2h-1.5v-11.2ZM658.8,844.7l-.9.4c-.4-.8-.9-1.7-1.4-2.4l.9-.4c.3.6,1,1.7,1.4,2.4ZM660.7,843.9l-.9.4c-.4-.8-.9-1.7-1.5-2.4l.9-.4c.5.6,1.2,1.6,1.5,2.4Z"/>
          <path d="M669.2,849c-.2-.5-.8-1.6-1.2-2.4v8.4h-1.2v-7.8c-.5,1.8-1.3,3.5-2,4.6,0-.3-.4-.8-.7-1.1,1-1.3,2-3.9,2.5-6h-2.2v-1.1h2.3v-3.1h1.2v3.1h2v1.1h-2v.5c.4.6,1.7,2.6,2,3.1l-.7.7h0ZM675.8,848.4c.8,1.9,2.1,3.8,3.4,4.8-.3.2-.7.6-.9.9-1.2-1.1-2.4-3-3.3-5v5.9h-1.2v-5.7c-1,2-2.4,3.9-3.9,5-.2-.3-.5-.7-.8-.9,1.6-1,3.1-2.9,4-4.9h-3.1v-1.1h3.8v-2.8h-2c-.3.9-.6,1.7-1,2.4-.2-.2-.7-.5-1-.6.8-1.2,1.4-3.2,1.6-5.1l1.1.2c0,.7-.3,1.4-.4,2h1.7v-3h1.2v3h3.1v1.1h-3.1v2.8h3.7v1.1h-2.9,0Z"/>
          <path d="M690.8,844.6c.4,5.4,1.6,9.3,3.2,9.3s.6-.9.7-3c.3.3.7.5,1.1.7-.2,2.8-.7,3.6-1.9,3.6-2.6,0-3.9-4.6-4.4-10.5h-8.3v-1.2h8.2v-2.9h1.2v2.9h4.7v1.2h-4.5ZM685.9,852.5c1.1-.2,2.3-.5,3.4-.7v1c-2.6.7-5.5,1.3-7.6,1.8l-.4-1.2c.9-.2,2.1-.4,3.3-.7v-4.6h-2.8v-1.2h7v1.2h-3v4.4h0ZM694,843.2c-.5-.6-1.5-1.4-2.3-2l.8-.7c.8.5,1.8,1.4,2.3,1.9l-.8.8Z"/>
          <path d="M705.7,840.5c1.7,2.4,4.5,4.4,7,5.5-.3.3-.6.7-.8,1.1-2.5-1.2-5.3-3.3-6.8-5.4-1.3,1.9-3.9,4.1-6.6,5.5,0-.3-.4-.7-.7-.9,2.7-1.3,5.4-3.6,6.6-5.6h1.3v-.2h0ZM698.7,848.4h13.2v1.1h-7.5c-.6,1.2-1.2,2.6-1.9,3.7,2,0,4.2,0,6.5-.2-.7-.8-1.4-1.5-2.1-2.2l1-.5c1.5,1.3,3,3,3.8,4.2l-1.1.7c-.2-.3-.4-.7-.7-1.1-3.9.2-8.1.4-10.8.5l-.2-1.2h2.4c.6-1.1,1.3-2.6,1.7-3.7h-4.2v-1.2h-.1ZM709,845.4v1.1h-7.6v-1.1h7.6Z"/>
          <path d="M720.6,850.5c-.4-.5-1.3-1.4-2-2v6.6h-1.2v-6.2c-.8.8-1.6,1.5-2.4,2,0-.3-.4-.8-.6-1.1,1.9-1.1,3.9-3.1,5-5.3h-4.5v-1.1h2.5v-3h1.2v3h1.6l.7.4c-.5,1.2-1.2,2.4-2.1,3.5.8.6,2.2,1.8,2.6,2.2l-.8,1h0ZM729.5,853.4v1.2h-9v-1.2h4v-6.6h-3.4v-1.2h3.4v-5.1h1.2v5.1h3.4v1.2h-3.4v6.6h3.8Z"/>
        </g>
        <line class="cls-2" x1="450" y1="728.1" x2="490" y2="728.1"/>
        <line class="cls-2" x1="450" y1="667.6" x2="490" y2="667.6"/>
        <line class="cls-2" x1="450" y1="528.3" x2="490" y2="528.3"/>
        <line class="cls-2" x1="400" y1="580.5" x2="450" y2="580.5"/>
        <line class="cls-2" x1="310" y1="177.9" x2="490" y2="177.9"/>
        <line class="cls-2" x1="450" y1="384.5" x2="490" y2="384.5"/>
        <line class="cls-2" x1="450" y1="787.4" x2="490" y2="787.4"/>
        <line class="cls-2" x1="450" y1="849.6" x2="490" y2="849.6"/>
        <line class="cls-2" x1="450" y1="908" x2="490" y2="908"/>
        <polyline class="cls-2" points="490 967.8 450 967.8 450 253.1 490 253.1"/>
        <polyline class="cls-2" points="360 580.5 310 580.5 310 105 490 105"/>
        <g>
          <path d="M379.4,519.1c-.1.2-.2.4-.4.6h4.2c.4,0,.8,0,1,0l1,.6-.4.8c-.4,1.6-1.4,3.7-2.8,5.3-1.4,1.7-3.3,3.2-6.2,4.2l-1.2-1c2.9-.8,4.8-2.2,6.2-3.9,1.2-1.4,2.1-3.4,2.5-4.9h-5.2c-.9,1.3-2.2,2.7-3.9,3.8l-1.1-.8c2.7-1.6,4.2-3.9,4.9-5.2.2-.3.4-.8.5-1.2l1.5.5c-.3.4-.5.9-.7,1.2h.1ZM385.5,519.2l-.8.4c-.3-.6-.8-1.6-1.2-2.2l.8-.3c.4.5.9,1.5,1.3,2.1h0ZM387.2,518.6l-.8.4c-.4-.7-.8-1.6-1.3-2.1l.8-.3c.4.6,1,1.5,1.3,2.1h0Z"/>
          <path d="M376.1,542.1c.4-1.4.4-4.5.4-6.3s0-.8,0-1.1h1.4v1.1c0,1.7,0,5-.5,6.6-.4,1.7-1.5,3.2-2.8,4.3l-1.2-.8c1.3-.9,2.2-2.3,2.7-3.8ZM380.7,545.2v-10.5h1.4v10.2c1.4-.7,3.3-2.1,4.5-3.8l.8,1.1c-1.3,1.8-3.5,3.4-5.3,4.3-.3,0-.4.3-.5.3l-.8-.7c0-.2.1-.6.1-.9h-.2Z"/>
          <path d="M379.2,552.5v-1.8h1.6v12.6h-1.6v-10.8Z"/>
          <path d="M383.5,569.3h.4v-.5c0-1,.8-1.7,1.7-1.7s1.7.8,1.7,1.7-.8,1.7-1.7,1.7-.4,0-.5,0v.2c-.4,1.6-1.1,4.1-2.4,5.7-1.4,1.8-3.3,3.2-6.1,4.1l-1-1.2c3-.8,4.8-2.1,6.1-3.7,1.1-1.4,1.8-3.5,2-5h-9.5v-1.4h9.4-.1ZM385.6,569.8c.6,0,1-.5,1-1s-.5-1-1-1-1,.5-1,1,.4,1,1,1Z"/>
          <path d="M387.2,593.6h-1.6v2.8h-1.2v-.7h-3.8v1.1c0,.7-.2,1-.7,1.2s-1.3.2-2.7.2c0-.3-.3-.7-.4-1h2.2c.3,0,.4,0,.4-.4v-1.1h-5.2v-.9h5.2v-1.2h-6.5v-.9h6.5v-1.1h-5v-.9h5v-1.1h-4.6v-2.8h4.6v-.9h-6.2v-1h6.2v-1.3h1.2v1.3h6.4v1h-6.4v.9h4.8v2.8h-4.8v1.1h5v2h1.6v.9h0ZM379.4,588.7v-1.2h-3.4v1.2h3.4ZM380.5,587.5v1.2h3.6v-1.2h-3.6ZM380.5,592.6h3.8v-1.1h-3.8v1.1ZM384.4,593.6h-3.8v1.2h3.8v-1.2Z"/>
          <path d="M381.7,611.1c1.5,1.2,3.7,2.1,5.7,2.5-.3.3-.6.7-.8,1.1-2.1-.6-4.5-1.8-6-3.3v3.5h-1.2v-3.4c-1.5,1.4-3.9,2.5-6,3.2-.2-.3-.5-.8-.8-1,2-.4,4.2-1.4,5.7-2.5h-5.2v-1h6.3v-1.2h-4.8v-.9h4.8v-1.2h-5.6v-1h3.5c-.1-.5-.5-1.1-.8-1.6h.6c0,0-3.9,0-3.9,0v-1h2.5c-.2-.6-.8-1.6-1.3-2.3l1-.3c.5.7,1.1,1.7,1.4,2.4l-.8.3h2v-2.8h1.1v2.8h1.9v-2.8h1.1v2.8h1.9l-.6-.2c.4-.7.9-1.7,1.2-2.4l1.2.3c-.4.8-1,1.7-1.4,2.3h2.5v1h-3.2c-.3.6-.7,1.2-1,1.7h3.6v1h-5.8v1.2h5v.9h-5v1.2h6.4v1h-5.3v-.2ZM377.7,604.1c.3.5.7,1.2.8,1.6h-.5c0,0,3.8,0,3.8,0h-.2c.3-.5.6-1.2.8-1.7h-4.7,0Z"/>
          <path d="M381.3,621.6c1.3,2.7,3.6,5.3,6.1,6.5-.3.2-.7.7-.9,1-2.4-1.3-4.6-3.8-6-6.5v4.9h3v1.2h-3v3h-1.2v-3h-3.1v-1.2h3.1v-4.9c-1.5,2.8-3.6,5.2-6,6.5-.2-.3-.6-.7-.8-1,2.4-1.3,4.8-3.9,6.1-6.6h-5.6v-1.2h6.3v-3.3h1.2v3.3h6.3v1.2h-5.6.1Z"/>
          <path d="M372.7,640h8.2v1.1h-8.2v-1.1ZM380.7,636.7h-7.6v-1h3.2v-1.7h1.1v1.7h3.2v1h0ZM373.8,642.5h6.3v5.9h-1.2v-.8h-4v.9h-1.1v-6h0ZM374.8,639.9c0-.7-.4-1.8-.7-2.6l1-.2c.4.8.7,1.9.7,2.6l-1,.2ZM374.9,643.6v2.9h4v-2.9h-4ZM377.8,639.7c.3-.7.7-1.9.9-2.7l1.1.3c-.3.9-.7,2-1.1,2.7l-1-.2h.1ZM387.4,635.3c-.7,1.5-1.5,3.3-2.2,4.8,1.6,1.5,2,2.7,2,3.9s-.2,1.7-.8,2.1c-.3.2-.6.3-1,.4h-1.4c0-.3-.1-.8-.3-1.2h1.3c.2,0,.5,0,.7-.2.3-.2.4-.7.4-1.3,0-1-.4-2.2-2.1-3.6.7-1.3,1.4-3.1,1.9-4.4h-3v12.5h-1.2v-13.7h4.9l.9.5v.2Z"/>
        </g>
        <rect class="cls-4" x="360" y="253.1" width="40" height="654.9" rx="3" ry="3"/>
        <g>
          <path class="cls-6" d="M647,86c1.1,0,2,.9,2,2v34c0,1.1-.9,2-2,2h-154c-1.1,0-2-.9-2-2v-34c0-1.1.9-2,2-2h154M647,85h-154c-1.6,0-3,1.3-3,3v34c0,1.7,1.4,3,3,3h154c1.7,0,3-1.3,3-3v-34c0-1.7-1.3-3-3-3h0Z"/>
          <g>
            <path d="M547.7,107.2c-.2,1.5-.6,3-1.1,4.1-.2,0-.7-.4-.9-.4.5-1,.9-2.4,1-3.8l1,.2h0ZM549.5,105.9v6.7h-1.1v-6.6c-.9,0-1.8,0-2.5,0v-1.1h1c.3-.4.7-.9,1.1-1.5-.5-.7-1.3-1.6-2.1-2.3l.6-.8c.2,0,.3.3.5.4.5-.9,1.1-2.1,1.4-3l1,.4c-.5,1.1-1.2,2.3-1.8,3.2.4.4.7.7.9,1,.6-1,1.2-2,1.6-2.9l1,.4c-.9,1.5-2.1,3.4-3.2,4.8h2.4c-.2-.6-.5-1.1-.8-1.5l.8-.3c.7,1,1.3,2.4,1.5,3.3l-.9.4c0-.3-.2-.6-.3-.9h-1.3l.2.2ZM550.9,106.9c.4.9.9,2.1,1,2.9l-.9.3c-.2-.8-.6-2-1-2.9l.9-.3ZM556.7,111h3.9v1.1h-9.1v-1.1h4.1v-2.6h-3v-1.1h3v-2.3h1.2v2.3h3.2v1.1h-3.2v2.6h-.1ZM559.8,99.1c-.6,1.7-1.6,3.1-2.9,4.2,1.1.7,2.3,1.2,3.7,1.6-.2.3-.6.7-.7,1-1.5-.4-2.8-1-3.9-1.8-1.2.8-2.5,1.4-3.9,1.9-.2-.3-.4-.7-.7-1,1.3-.4,2.5-.9,3.6-1.6-.9-.9-1.7-2-2.3-3.2l.6-.2h-1.6v-1.1h7.2l.8.3h.1ZM554,99.8c.5,1,1.2,2,2.1,2.7.9-.8,1.6-1.7,2.2-2.7h-4.3Z"/>
            <path d="M567.9,109.2c-1.7.6-3.5,1.2-5,1.7l-.3-1.2c.6-.2,1.3-.4,2.1-.7v-4.3h-1.8v-1.1h1.8v-3.5h-2v-1.1h5v1.1h-1.8v3.5h1.6v1.1h-1.6v4l1.7-.6.2,1.1h0ZM577.4,110.9v1.1h-10.3v-1.1h4.9v-2.2h-3.6v-1.1h3.6v-1.9h-3.4v-7.1h8.1v7.1h-3.5v1.9h3.7v1.1h-3.7v2.2h4.2ZM569.6,101.7h2.4v-2h-2.4v2ZM569.6,104.8h2.4v-2h-2.4v2ZM575.5,99.7h-2.4v2h2.4v-2ZM575.5,102.7h-2.4v2h2.4v-2Z"/>
            <path d="M579.5,104.1h8.2v1.1h-8.2v-1.1ZM587.5,100.7h-7.6v-1h3.2v-1.7h1.1v1.7h3.2v1h0ZM580.6,106.6h6.3v5.9h-1.2v-.8h-4v.9h-1.1v-6ZM581.6,103.9c0-.7-.4-1.8-.7-2.6l1-.2c.4.8.7,1.9.7,2.6l-1,.2ZM581.7,107.6v2.9h4v-2.9h-4ZM584.6,103.7c.3-.7.7-1.9.9-2.7l1.1.3c-.3.9-.7,2-1.1,2.7l-1-.2h0ZM594.2,99.4c-.7,1.5-1.5,3.3-2.2,4.8,1.6,1.5,2,2.7,2,3.9s-.2,1.7-.8,2.1c-.3.2-.6.3-1,.4h-1.4c0-.3,0-.8-.3-1.2h1.3c.2,0,.5,0,.7-.2.3-.2.4-.7.4-1.3,0-1-.4-2.2-2.1-3.6.7-1.3,1.4-3.1,1.9-4.4h-3v12.5h-1.2v-13.7h4.9l.9.5v.2Z"/>
          </g>
        </g>
        <g>
          <path class="cls-6" d="M647,158.9c1.1,0,2,.9,2,2v34c0,1.1-.9,2-2,2h-154c-1.1,0-2-.9-2-2v-34c0-1.1.9-2,2-2h154M647,157.9h-154c-1.6,0-3,1.3-3,3v34c0,1.7,1.4,3,3,3h154c1.7,0,3-1.3,3-3v-34c0-1.7-1.3-3-3-3h0Z"/>
          <g>
            <path d="M547.7,180.1c-.2,1.5-.6,3-1.1,4-.2-.1-.7-.4-.9-.4.5-1,.8-2.4,1-3.8l1,.2ZM549.5,178.7v6.8h-1v-6.7c-.9,0-1.8.1-2.5.2l-.2-1.1h1.1c.3-.4.7-.9,1-1.4-.5-.7-1.3-1.6-2-2.3l.6-.8c.2.1.3.3.5.5.5-.9,1.1-2.1,1.4-3l1,.4c-.5,1.1-1.2,2.4-1.8,3.3.3.4.6.7.8,1,.6-1,1.2-2,1.7-2.9l1,.5c-.9,1.5-2.1,3.3-3.2,4.6l2.4-.2c-.3-.4-.5-.9-.8-1.3l.9-.4c.7,1,1.5,2.4,1.7,3.2l-.9.4c0-.3-.2-.7-.4-1.1h-1.4v.3ZM550.9,179.9c.4.9.8,2.1,1,2.9l-.9.3c0-.8-.5-2-.9-2.9l.9-.3h0ZM551.2,184.3c.7-.8,1.1-2.2,1.3-3.4l1,.2c-.2,1.3-.6,2.8-1.3,3.7l-.9-.4h0ZM555.1,171.3c-.6,1.6-1.6,3.1-2.7,4.1-.2-.2-.7-.5-1-.7,1.1-.9,2-2.2,2.5-3.7l1.1.3h.1ZM552.2,177.2h1.6c.5-1.1,1.1-2.5,1.4-3.6l1.2.3c-.4,1-1,2.3-1.5,3.2.9,0,2-.1,3-.2-.3-.5-.7-.9-1-1.3l.9-.4c.9,1,1.9,2.4,2.3,3.3l-1,.6c0-.3-.4-.8-.6-1.2-2.2.2-4.4.4-6,.5l-.2-1.1h-.1ZM557,184.4c.4,0,.4-.2.5-1.7.2.2.7.3,1,.4,0,1.8-.4,2.3-1.3,2.3h-1.6c-1.2,0-1.4-.3-1.4-1.4v-3.5h1.1v3.5q0,.4.5.4h1.3,0ZM554.9,178.5c1,.5,2.1,1.3,2.7,1.9l-.8.7c-.5-.7-1.6-1.5-2.6-2l.7-.7h0ZM557.8,171c.7,1.2,1.9,2.6,2.9,3.3-.2.2-.6.6-.8.8-1-.8-2.3-2.4-3.1-3.7l1-.4h0ZM558.8,180.7c.9,1.1,1.6,2.6,1.9,3.6l-1,.5c-.2-1-1-2.5-1.8-3.7l.9-.5h0Z"/>
            <path d="M567.4,180.1c.3-.7.6-1.6.9-2.6h-1.5v6.6c0,.6,0,.9-.5,1.1-.4.2-1,.2-2,.2,0-.3-.2-.8-.4-1.1h1.5c.2,0,.3,0,.3-.2v-5.1c-.6,1.5-1.5,3-2.3,3.9,0-.3-.4-.8-.6-1.1,1-.9,2-2.7,2.6-4.3h-2.4v-1h4.3c-.8-.7-2.3-1.6-3.6-2.1l.7-.8c.5.2,1,.5,1.6.7.6-.4,1.2-1,1.7-1.6h-4.5v-1h5.6l.8.4c-.6,1-1.6,2-2.6,2.7.5.3,1,.7,1.3,1l-.6.7h1.4l.7.2c0,.3-.2.6-.2.8,1.1-.3,2-.7,2.9-1.2-.6-.6-1.2-1.2-1.6-2-.4.4-.8.8-1.2,1.1-.2-.2-.7-.5-1-.7,1.2-.9,2.4-2.4,3-3.9l1.1.3c-.2.5-.5.9-.7,1.4h5.3v1h-1.2c-.4,1.1-1.1,2-1.9,2.7,1,.6,2.2,1.1,3.5,1.4-.2.3-.6.7-.8,1-1.3-.4-2.6-.9-3.6-1.7-1,.7-2.2,1.2-3.5,1.6,0-.2-.3-.4-.4-.6-.3.9-.6,1.8-.9,2.5l-.8-.4h-.4ZM576.8,179.8v.5c-.3,3-.6,4.2-1.1,4.7-.3.3-.6.4-1,.4h-1.8c0-.3,0-.8-.3-1.1h1.6c.3,0,.4,0,.5-.2.3-.3.5-1.2.8-3.4h-2.7c-.6,2-1.7,3.7-4.2,4.7,0-.3-.5-.7-.7-.9,2.2-.8,3.2-2.1,3.7-3.8h-2.5v-1h2.8c0-.5.2-1,.2-1.6h1.2c0,.5,0,1.1-.2,1.6h3.7ZM571.3,173.5c.4.8,1.1,1.5,1.8,2.1.7-.6,1.2-1.2,1.6-2.1h-3.4,0Z"/>
            <path d="M579.5,177h8.2v1.1h-8.2v-1.1ZM587.5,173.6h-7.6v-1h3.2v-1.7h1.1v1.7h3.2v1h0ZM580.6,179.5h6.3v5.9h-1.2v-.8h-4v.9h-1.1v-6h0ZM581.6,176.8c0-.7-.4-1.8-.7-2.6l1-.2c.4.8.7,1.9.7,2.6l-1,.2ZM581.7,180.5v2.9h4v-2.9h-4ZM584.6,176.6c.3-.7.7-1.9.9-2.7l1.1.3c-.3.9-.7,2-1.1,2.7l-1-.2h0ZM594.2,172.3c-.7,1.5-1.5,3.3-2.2,4.8,1.6,1.5,2,2.7,2,3.9s-.2,1.7-.8,2.1c-.3.2-.6.3-1,.4h-1.4c0-.3,0-.8-.3-1.2h1.3c.2,0,.5,0,.7-.2.3-.2.4-.7.4-1.3,0-1-.4-2.2-2.1-3.6.7-1.3,1.4-3.1,1.9-4.4h-3v12.5h-1.2v-13.7h4.9l.9.5v.2Z"/>
          </g>
        </g>
        <g>
          <path class="cls-6" d="M647,233c1.1,0,2,.9,2,2v34c0,1.1-.9,2-2,2h-154c-1.1,0-2-.9-2-2v-34c0-1.1.9-2,2-2h154M647,232h-154c-1.6,0-3,1.3-3,3v34c0,1.7,1.4,3,3,3h154c1.7,0,3-1.3,3-3v-34c0-1.7-1.3-3-3-3h0Z"/>
          <g>
            <path d="M553.7,245.4v.7c0,2.1,1,9.5,7,12.3-.3.3-.7.7-.9,1-4.1-2-5.9-6.1-6.7-9.3-.7,3.2-2.4,7.1-6.4,9.3-.2-.3-.6-.7-1-.9,6.5-3.3,6.5-10.9,6.6-13.1h1.4Z"/>
            <path d="M577.2,255h-1.6v2.8h-1.2v-.7h-3.8v1.1c0,.7-.2,1-.7,1.2s-1.3.2-2.7.2c0-.3-.3-.7-.4-1h2.2c.3,0,.4-.1.4-.4v-1.1h-5.2v-.9h5.2v-1.2h-6.5v-.9h6.5v-1.1h-5v-.9h5v-1.1h-4.6v-2.8h4.6v-.9h-6.2v-1h6.2v-1.3h1.2v1.3h6.4v1h-6.4v.9h4.8v2.8h-4.8v1.1h5v2h1.6v.9h0ZM569.4,250.1v-1.2h-3.4v1.2h3.4ZM570.5,249v1.2h3.6v-1.2h-3.6ZM570.5,254.1h3.8v-1.1h-3.8v1.1ZM574.4,255h-3.8v1.2h3.8v-1.2h0Z"/>
            <path d="M579.5,251.1h8.2v1.1h-8.2v-1.1ZM587.5,247.7h-7.6v-1h3.2v-1.7h1.1v1.7h3.2v1h0ZM580.6,253.6h6.3v5.9h-1.2v-.8h-4v.9h-1.1v-6ZM581.6,250.9c0-.7-.4-1.8-.7-2.6l1-.2c.4.8.7,1.9.7,2.6l-1,.2ZM581.7,254.6v2.9h4v-2.9h-4ZM584.6,250.7c.3-.7.7-1.9.9-2.7l1.1.3c-.3.9-.7,2-1.1,2.7l-1-.2h0ZM594.2,246.4c-.7,1.5-1.5,3.3-2.2,4.8,1.6,1.5,2,2.7,2,3.9s-.2,1.7-.8,2.1c-.3.2-.6.3-1,.4h-1.4c0-.3,0-.8-.3-1.2h1.3c.2,0,.5,0,.7-.2.3-.2.4-.7.4-1.3,0-1-.4-2.2-2.1-3.6.7-1.3,1.4-3.1,1.9-4.4h-3v12.5h-1.2v-13.7h4.9l.9.5v.2Z"/>
          </g>
        </g>
        <g>
          <path class="cls-6" d="M767,292.3c1.1,0,2,.9,2,2v34c0,1.1-.9,2-2,2h-154c-1.1,0-2-.9-2-2v-34c0-1.1.9-2,2-2h154M767,291.3h-154c-1.6,0-3,1.3-3,3v34c0,1.7,1.4,3,3,3h154c1.7,0,3-1.3,3-3v-34c0-1.7-1.3-3-3-3h0Z"/>
          <g>
            <path d="M663.4,314.3h-1.6v2.8h-1.2v-.7h-3.8v1.1c0,.7-.2,1-.7,1.2s-1.3.2-2.7.2c0-.3-.3-.7-.4-1h2.2c.3,0,.4-.1.4-.4v-1.1h-5.2v-.9h5.2v-1.2h-6.5v-.9h6.5v-1.1h-5v-.9h5v-1.1h-4.6v-2.8h4.6v-.9h-6.2v-1h6.2v-1.3h1.2v1.3h6.4v1h-6.4v.9h4.8v2.8h-4.8v1.1h5v2h1.6v.9ZM655.6,309.4v-1.2h-3.4v1.2h3.4ZM656.7,308.3v1.2h3.6v-1.2h-3.6ZM656.7,313.4h3.8v-1.1h-3.8v1.1ZM660.6,314.3h-3.8v1.2h3.8v-1.2Z"/>
            <path d="M674.7,315c1.5,1.2,3.7,2.1,5.7,2.5-.3.3-.6.7-.8,1.1-2.1-.6-4.5-1.8-6-3.3v3.5h-1.2v-3.4c-1.5,1.4-3.9,2.5-6,3.2-.2-.3-.5-.8-.8-1,2-.4,4.2-1.4,5.7-2.5h-5.2v-1h6.3v-1.2h-4.8v-.9h4.8v-1.2h-5.6v-1h3.5c0-.5-.5-1.1-.8-1.6h.6c0-.1-3.9-.1-3.9-.1v-1h2.5c-.2-.6-.8-1.6-1.3-2.3l1-.3c.5.7,1.1,1.7,1.4,2.4l-.8.3h2v-2.8h1.1v2.8h1.9v-2.8h1.1v2.8h1.9l-.6-.2c.4-.7.9-1.7,1.2-2.4l1.2.3c-.4.8-1,1.7-1.4,2.3h2.5v1h-3.2c-.3.6-.7,1.2-1,1.7h3.6v1h-5.8v1.2h5v.9h-5v1.2h6.4v1h-5.3v-.2ZM670.7,308.1c.3.5.7,1.2.8,1.6h-.5c0,.1,3.8.1,3.8.1h-.2c.3-.5.6-1.2.8-1.7h-4.7,0Z"/>
            <path d="M687.7,304.4c1.2.9,2.7,2.2,3.5,3l-.8.9c-.7-.8-2-2-3.1-2.9-.4.6-1,1.2-1.6,1.9h3.7v.9h-3.9v-.7c-.7.6-1.4,1.2-2.3,1.8,0-.2-.5-.6-.8-.8,2-1.2,3.4-2.8,4.2-4.1h1.1,0ZM685,313.4c0,.3,0,.7,0,1h5.7v4.3h-1.1v-.5h-3.7v.7h-1v-4.2c-.3,1.4-.8,2.7-1.7,3.8,0-.2-.6-.6-.8-.7,1.5-1.8,1.7-4.3,1.7-6.1v-2.6h6.3v4.4h-5.4,0ZM689.3,312.6v-.9h-4.2v.9h4.2ZM685.1,309.9v.9h4.2v-.9h-4.2ZM685.9,315.4v1.9h3.7v-1.9h-3.7ZM692.8,315h-1.1v-8.8h1.1v8.8ZM696.4,304.5v12.7c0,.8-.2,1.2-.7,1.4-.5.2-1.3.2-2.8.2,0-.3-.2-.8-.4-1.2h2.3c.3,0,.4,0,.4-.4v-12.7h1.2Z"/>
            <path d="M709.1,311v2.4h3.8v1.1h-3.8v2.6c0,.5,0,.6.6.6h1.8c.5,0,.6-.3.6-2,.3.2.8.4,1.1.5,0,2-.4,2.6-1.6,2.6h-2.1c-1.3,0-1.7-.4-1.7-1.7v-2.6h-2.9c-.3,1.7-1.2,3.3-4.3,4.4,0-.3-.5-.7-.8-.9,2.7-.9,3.6-2.2,3.9-3.5h-3.6v-1.1h3.7v-2.4h-1.7v-.6c-.8.6-1.6,1-2.4,1.4-.2-.3-.5-.7-.7-.9,1.1-.4,2.3-1.2,3.2-2.1-.5-.5-1.3-1.2-1.9-1.7l.7-.6c.6.5,1.4,1.1,1.9,1.6.6-.7,1.1-1.4,1.5-2.1h-4v-1.1h4.8l.8.3c-.7,1.9-1.9,3.4-3.3,4.6h7.5c-1.6-1.4-2.8-3.2-3.6-5.3l1-.3c.3.7.6,1.4,1,2,.7-.6,1.5-1.3,2-1.9l.9.6c-.7.7-1.6,1.5-2.4,2,.3.4.7.8,1,1.2.8-.6,1.7-1.5,2.3-2.1l.9.6c-.7.7-1.7,1.5-2.5,2.1.9.8,1.9,1.4,3,1.9-.3.2-.6.7-.8,1-.8-.4-1.6-.8-2.3-1.4v.6h-1.8l.2.2ZM707.9,311h-2.8v2.4h2.8v-2.4Z"/>
            <path d="M730.5,317.3v1.1h-14.1v-1.1h6.4v-2h-4.9v-1.1h4.9v-1.8c-1.9,0-3.7.1-5.1.2v-1.1h2.2c.5-.7,1-1.6,1.4-2.3h-2.9v-1.1h10.5v1.1h-6.2c-.4.8-1,1.6-1.5,2.3,1.8,0,3.8,0,5.8-.2-.5-.4-1.1-.8-1.6-1.2l.8-.6c1.3.8,3,2.1,3.7,3.1l-.9.7c-.2-.3-.6-.6-.9-1-1.3,0-2.7,0-4,.1v1.8h5.1v1.1h-5.1v2h6.5-.1ZM717.7,308.4h-1.1v-2.9h6.2v-1.2h1.2v1.2h6.3v2.9h-1.2v-1.8h-11.4v1.8Z"/>
          </g>
        </g>
        <g>
          <path class="cls-6" d="M647,365.5c1.1,0,2,.9,2,2v34c0,1.1-.9,2-2,2h-154c-1.1,0-2-.9-2-2v-34c0-1.1.9-2,2-2h154M647,364.5h-154c-1.6,0-3,1.3-3,3v34c0,1.7,1.4,3,3,3h154c1.7,0,3-1.3,3-3v-34c0-1.7-1.3-3-3-3h0Z"/>
          <g>
            <path d="M517.7,381.2c-1.2,1.9-3.2,4.5-5.8,6.5,1,1,2.1,2.2,2.7,2.9l-1.2.9c-.6-.8-1.9-2.2-2.9-3.3-1-1-2.8-2.6-3.7-3.2l1-.8c.6.4,1.9,1.5,3,2.5,2.4-1.8,4.2-4.1,5-5.6h-11v-1.4c.4,0,1.1.1,1.6.1h9.5c.4,0,.8,0,1-.1l1,.8c-.2.2-.3.4-.4.5l.2.2Z"/>
            <path d="M523.9,384h10.5v1.6h-12.7v-1.6h2.2Z"/>
            <path d="M543,379.6c-.2.5-.4,1-.6,1.6h9.1v1.4h-4.2c-.3,4.6-2,7.3-4.8,9l-1.4-.9c.4-.2.9-.4,1.3-.7,1.6-1.2,3.3-3.3,3.5-7.3h-4.1c-.7,1.2-1.7,2.7-2.7,3.4l-1.3-.8c1.2-.8,2.3-2.5,2.8-3.4.4-.8.7-1.6.9-2.2,0-.4.2-.9.2-1.3l1.5.3c0,.4-.3.8-.4,1.1l.2-.2Z"/>
            <path d="M556.5,383.1h11.7v1.3h-5.6c0,1.7-.3,3.2-.9,4.4-.6,1.1-1.8,2.2-3.2,2.9l-1.2-.9c1.2-.5,2.4-1.4,3-2.4.7-1.1.9-2.5.9-4h-6.2v-1.3h1.5ZM558.5,379.1h8v1.3h-9.5v-1.3h1.5Z"/>
            <path d="M578.1,384.3c1.5-.9,3-2.2,3.8-3.3l1,1c-.8.9-2.2,2-3.6,3v7.1h-1.5v-6.3c-1.3.7-3.2,1.6-5,2.1l-.6-1.2c2.1-.5,4.5-1.6,5.8-2.4h0Z"/>
            <path d="M595.9,387.5c2.5-1.6,4.4-3.9,5.3-5.9l.8,1.4c-1.1,2-3,4.2-5.4,5.7-1.6,1-3.6,2-6.3,2.5l-.8-1.3c2.8-.4,4.9-1.4,6.4-2.3h0ZM594.9,382.4l-1,1c-.8-.8-2.8-2.5-4-3.3l.9-1c1.1.8,3.2,2.4,4.1,3.3Z"/>
            <path d="M611.2,380c0,.2-.2.4-.4.7h4.3c.4,0,.8,0,1-.1l1.1.6c0,.2-.3.6-.4.8-.4,1.6-1.4,3.8-2.8,5.5-1.5,1.8-3.4,3.2-6.4,4.4l-1.2-1.1c2.9-.9,4.9-2.3,6.4-4,1.2-1.5,2.2-3.5,2.5-5h-5.4c-1,1.4-2.3,2.8-4.1,3.9l-1.1-.8c2.8-1.6,4.3-4,5-5.4.2-.3.4-.9.5-1.3l1.5.5c-.3.4-.5,1-.7,1.2h.2ZM617.6,380.2l-.9.4c-.3-.6-.9-1.6-1.3-2.2l.8-.4c.4.6,1,1.5,1.3,2.2h.1ZM619.3,379.6l-.9.4c-.4-.7-.9-1.6-1.3-2.2l.8-.4c.4.6,1,1.6,1.3,2.2h.1Z"/>
            <path d="M621.5,383.6h8.2v1.1h-8.2v-1.1ZM629.5,380.2h-7.6v-1h3.2v-1.7h1.1v1.7h3.2v1h0ZM622.6,386.1h6.3v5.9h-1.2v-.8h-4v.9h-1.1v-6ZM623.6,383.4c0-.7-.4-1.8-.7-2.6l1-.2c.4.8.7,1.9.7,2.6l-1,.2ZM623.7,387.1v2.9h4v-2.9h-4ZM626.6,383.2c.3-.7.7-1.9.9-2.7l1.1.3c-.3.9-.7,2-1.1,2.7l-1-.2h0ZM636.2,378.9c-.7,1.5-1.5,3.3-2.2,4.8,1.6,1.5,2,2.7,2,3.9s-.2,1.7-.8,2.1c-.3.2-.6.3-1,.4h-1.4c0-.3,0-.8-.3-1.2h1.3c.2,0,.5,0,.7-.2.3-.2.4-.7.4-1.3,0-1-.4-2.2-2.1-3.6.7-1.3,1.4-3.1,1.9-4.4h-3v12.5h-1.2v-13.7h4.9l.9.5v.2Z"/>
          </g>
        </g>
        <g>
          <path d="M538.8,902.5c0,.2-.2.4-.4.7h4.3c.4,0,.8,0,1-.2l1.1.7c0,.2-.3.6-.4.8-.4,1.6-1.4,3.8-2.8,5.5-1.5,1.8-3.4,3.2-6.4,4.4l-1.2-1c2.9-.9,4.9-2.3,6.4-4,1.2-1.5,2.2-3.5,2.6-5h-5.4c-1,1.3-2.3,2.8-4.1,3.9l-1.1-.8c2.8-1.6,4.3-4,5-5.4.2-.3.4-.8.5-1.3l1.5.5c-.3.4-.6,1-.7,1.3h.1Z"/>
          <path d="M558.2,902.5v1.6h3.9v1.3h-3.8c0,2.4,0,5.6,0,7.6,0,.8-.5,1.3-1.5,1.3h-2.6v-1.3c.7,0,1.6.2,2.1.2s.6-.2.6-.6v-5.8c-1.3,1.9-4.1,4.5-7,6l-.9-1c3.2-1.6,6.1-4.2,7.4-6.2h-6.8v-1.4h7.3v-1.6c0-.6,0-1,0-1.3h1.5v1.3h-.2Z"/>
          <path d="M569.4,902.8v6.5h-1.5v-7.7h1.5v1.2ZM576.9,902.9v2.6c0,3.8-.5,5.1-1.7,6.5-1,1.2-2.6,1.9-3.8,2.3l-1-1.1c1.5-.4,2.8-1,3.8-2.1,1.1-1.3,1.3-2.6,1.3-5.7v-3.9h1.5v1.4h0Z"/>
          <path d="M584.2,906h11.7v1.3h-5.6c0,1.7-.3,3.2-.9,4.4-.6,1.1-1.8,2.2-3.2,2.9l-1.2-.9c1.2-.5,2.4-1.4,3-2.4.7-1.1.9-2.5.9-4h-6.2v-1.3h1.5ZM586.2,902h8v1.3h-9.5v-1.3h1.5Z"/>
          <path d="M605.8,907.2c1.5-.9,3-2.2,3.8-3.3l1,1c-.8.9-2.2,2-3.6,3v7.1h-1.5v-6.3c-1.3.7-3.2,1.6-5,2.1l-.6-1.2c2.1-.5,4.5-1.6,5.8-2.4h0Z"/>
          <path d="M622.8,902.5c0,.2-.2.4-.4.7h4.3c.4,0,.8,0,1-.2l1.1.7c0,.2-.3.6-.4.8-.4,1.6-1.4,3.8-2.8,5.5-1.5,1.8-3.4,3.2-6.4,4.4l-1.2-1c2.9-.9,4.9-2.3,6.4-4,1.2-1.5,2.2-3.5,2.6-5h-5.4c-1,1.3-2.3,2.8-4.1,3.9l-1.1-.8c2.8-1.6,4.3-4,5-5.4.2-.3.4-.8.5-1.3l1.5.5c-.3.4-.6,1-.7,1.3h.1Z"/>
          <path d="M645.5,906.5c-.4,1.6-1.2,3.2-2.3,4.5-1.7,1.8-3.7,2.8-5.7,3.3l-1-1.1c2.3-.5,4.3-1.5,5.6-2.9,1-1,1.6-2.4,1.9-3.5h-10.1v-1.3h10c.4,0,.7,0,.9,0l.9.6c0,0-.2.4-.2.5h0ZM636.8,901.9h7.8v1.3h-9.2v-1.3h1.4Z"/>
          <path d="M661.9,902.5l-.6.3.8.5c0,.2-.2.5-.2.8-.4,1.7-1.1,4.3-2.4,5.9-1.5,1.9-3.4,3.4-6.3,4.3l-1.1-1.2c3.1-.8,4.9-2.1,6.2-3.8,1.1-1.5,1.9-3.7,2.1-5.2h-9.8v-1.4c.4,0,1.1,0,1.6,0h8.7c-.3-.6-.8-1.4-1.2-1.9l.9-.4c.4.5.9,1.5,1.3,2.1h0ZM664,902.1l-.9.4c-.4-.7-.9-1.6-1.3-2.1l.9-.4c.4.5,1,1.5,1.3,2.1Z"/>
          <path d="M670.9,908.9c-.2-.5-.8-1.6-1.2-2.4v8.4h-1.2v-7.8c-.5,1.8-1.3,3.5-2,4.6,0-.3-.4-.8-.7-1.1,1-1.3,2-3.9,2.5-6h-2.2v-1.1h2.3v-3.1h1.2v3.1h2v1.1h-2v.5c.4.6,1.7,2.6,2,3.1l-.7.8h0ZM677.5,908.3c.8,1.9,2.1,3.8,3.4,4.8-.3.2-.7.6-.9.9-1.2-1.1-2.4-3-3.3-5v5.9h-1.2v-5.7c-1,2-2.4,3.9-3.9,5-.2-.3-.5-.7-.8-.9,1.6-1,3.1-2.9,4-4.9h-3.1v-1.1h3.8v-2.8h-2c-.3.9-.6,1.7-1,2.4-.2-.2-.7-.5-1-.6.8-1.2,1.4-3.2,1.6-5.1l1.1.2c0,.7-.3,1.4-.4,2h1.7v-3h1.2v3h3.1v1.1h-3.1v2.8h3.7v1.1h-3,.1Z"/>
          <path d="M692.5,904.4c.4,5.4,1.6,9.3,3.2,9.3s.6-.9.7-3c.3.3.7.5,1.1.7-.2,2.8-.7,3.6-1.9,3.6-2.6,0-3.9-4.6-4.4-10.5h-8.3v-1.2h8.2v-2.9h1.2v2.9h4.7v1.2h-4.7.2ZM687.6,912.4c1.1-.2,2.3-.5,3.4-.7v1c-2.6.7-5.5,1.3-7.6,1.8l-.4-1.2c.9-.2,2.1-.4,3.3-.7v-4.6h-2.8v-1.2h7v1.2h-3v4.4h0ZM695.7,903.1c-.5-.6-1.5-1.4-2.3-2l.8-.7c.8.5,1.8,1.4,2.3,1.9l-.8.8Z"/>
          <path d="M707.4,900.3c1.7,2.4,4.5,4.4,7,5.5-.3.3-.6.7-.8,1.1-2.5-1.2-5.3-3.3-6.8-5.4-1.3,1.9-3.9,4.1-6.6,5.5,0-.3-.4-.7-.7-.9,2.7-1.3,5.4-3.6,6.6-5.7h1.3ZM700.4,908.3h13.2v1.1h-7.5c-.6,1.2-1.2,2.6-1.9,3.7,2,0,4.2,0,6.5-.2-.7-.8-1.4-1.5-2.1-2.2l1-.5c1.5,1.3,3,3,3.8,4.2l-1.1.7c-.2-.3-.4-.7-.7-1.1-3.9.2-8.1.4-10.8.5l-.2-1.2h2.4c.6-1.1,1.3-2.6,1.7-3.7h-4.2v-1.3ZM710.7,905.2v1.1h-7.6v-1.1h7.6Z"/>
          <path d="M722.3,910.3c-.4-.5-1.3-1.4-2-2v6.6h-1.2v-6.2c-.8.8-1.6,1.5-2.4,2,0-.3-.4-.8-.6-1.1,1.9-1.1,3.9-3.1,5-5.3h-4.4v-1.1h2.5v-3h1.2v3h1.6l.7.4c-.5,1.2-1.2,2.4-2.1,3.5.8.6,2.2,1.8,2.6,2.2l-.7,1h-.2ZM731.2,913.3v1.2h-9v-1.2h4v-6.6h-3.4v-1.2h3.4v-5.1h1.2v5.1h3.4v1.2h-3.4v6.6h3.8Z"/>
        </g>
        <g>
          <path d="M566.1,782.4v1h-13.8v-1h6.2v-1.5h1.2v1.5h6.4ZM565.5,794.1c0,.6-.1,1-.6,1.2-.5.2-1.4.2-2.7.2,0-.3-.2-.8-.4-1.1,1,0,1.9,0,2.2,0,.3,0,.3,0,.3-.3v-4.4h-10.2v5.9h-1.1v-6.9h12.5v5.5ZM563.5,784.3v3.3h-8.6v-3.3h8.6ZM562.3,785.2h-6.2v1.6h6.2v-1.6ZM557.2,794v.8h-1.1v-4.2h6.1v3.4h-5ZM557.2,791.5v1.6h3.9v-1.6h-3.9Z"/>
          <path d="M571.3,786.6c.4.6,1.6,2.4,1.9,2.8l-.6.9c-.2-.5-.8-1.5-1.2-2.3v7.5h-1.1v-7.3c-.5,1.7-1.2,3.3-1.8,4.3-.1-.3-.4-.8-.6-1,1-1.3,1.9-3.8,2.4-6h-2v-1.1h2.1v-3.5h1.1v3.5h1.8v1.1h-1.8v1.2ZM579.7,784.5c.8,1,1.9,1.9,3,2.4-.2.2-.6.6-.8.9-.6-.3-1.1-.7-1.7-1.2v1.9h-5.1v-1.9c-.5.5-1.1.9-1.7,1.3-.2-.3-.5-.6-.7-.8,1.3-.7,2.2-1.6,2.9-2.5h-2.4v-.9h2.9c.2-.3.3-.7.4-1-.9,0-1.9,0-2.8.1,0-.2-.2-.6-.3-.8,2.5,0,5.6-.3,7.2-.7l.7.8c-1,.2-2.3.4-3.7.5-.1.4-.2.7-.4,1.1h5v.9h-2.6ZM582.1,794.3c0,.6-.1.9-.5,1-.4.2-1.1.2-2.1.2,0-.3-.2-.7-.4-1,.8,0,1.4,0,1.6,0,.2,0,.3,0,.3-.2v-4.1h-6.5v5.4h-1.1v-6.3h8.6v5.1ZM576.6,793.9v.7h-.9v-3.7h4.1v3h-3.2ZM576.8,784.5c-.2.3-.4.7-.6,1h3.1c-.2-.3-.5-.6-.7-1h-1.8ZM579.2,786.3h-3v1.4h3v-1.4ZM576.6,791.7v1.4h2.3v-1.4h-2.3Z"/>
          <path d="M590.1,783.5c-.1.2-.2.4-.4.7h4.3c.4,0,.8,0,1-.1l1.1.6c-.1.2-.3.6-.4.8-.4,1.6-1.4,3.8-2.8,5.5-1.5,1.8-3.4,3.2-6.4,4.4l-1.2-1.1c2.9-.9,4.9-2.3,6.4-4,1.2-1.5,2.2-3.5,2.5-5h-5.4c-1,1.4-2.3,2.8-4.1,3.9l-1.1-.8c2.8-1.6,4.3-4,5-5.4.2-.3.4-.9.5-1.3l1.5.5c-.3.4-.5,1-.7,1.2ZM596.5,783.7l-.9.4c-.3-.6-.9-1.6-1.3-2.2l.8-.4c.4.6,1,1.5,1.3,2.2ZM598.3,783l-.9.4c-.4-.7-.9-1.6-1.3-2.2l.8-.4c.4.6,1,1.6,1.3,2.2Z"/>
          <path d="M600.8,789.9c.5-1.5.5-4.7.5-6.4s0-.8-.1-1.2h1.5c0,.2,0,.7,0,1.2,0,1.8,0,5.2-.5,6.8-.5,1.7-1.5,3.3-2.8,4.4l-1.2-.8c1.3-1,2.3-2.4,2.8-3.9ZM605.4,793v-9.6c0-.6,0-1.1,0-1.2h1.5c0,.1,0,.6,0,1.2v9.2c1.5-.7,3.4-2.1,4.7-3.9l.8,1.1c-1.4,1.9-3.6,3.5-5.5,4.4-.3.1-.4.3-.5.4l-.8-.7c0-.3.1-.6.1-.9Z"/>
          <path d="M616.4,787.4h8.8c.8,0,1.4,0,1.7,0v1.6c-.3,0-1,0-1.7,0h-8.8c-.9,0-1.7,0-2.2,0v-1.6c.5,0,1.3,0,2.2,0Z"/>
          <path d="M640.5,781c1,0,1.8.8,1.8,1.8s-.8,1.8-1.8,1.8-.4,0-.6,0c0,0,0,.1,0,.2-.3,1.7-1.1,4.3-2.4,5.9-1.5,1.9-3.4,3.4-6.3,4.3l-1.1-1.2c3.1-.8,4.9-2.1,6.2-3.8,1.1-1.5,1.9-3.7,2.1-5.2h-8.2c-.6,0-1.2,0-1.6,0v-1.4c.4,0,1.1.1,1.6.1h8c.1,0,.3,0,.5,0,0-.2,0-.3,0-.5,0-1,.8-1.8,1.8-1.8ZM640.5,783.8c.6,0,1.1-.5,1.1-1.1s-.5-1.1-1.1-1.1-1.1.5-1.1,1.1.5,1.1,1.1,1.1Z"/>
          <path d="M647.8,789.5c-.2-.5-.8-1.6-1.2-2.4v8.4h-1.2v-7.8c-.5,1.8-1.3,3.5-2,4.6-.1-.3-.4-.8-.7-1.1,1-1.3,2-3.9,2.5-6h-2.2v-1.1h2.3v-3.1h1.2v3.1h2v1.1h-2v.5c.4.6,1.7,2.6,2,3.1l-.7.8ZM654.4,788.9c.8,1.9,2.1,3.8,3.4,4.8-.3.2-.7.6-.9.9-1.2-1.1-2.4-3-3.3-5v5.9h-1.2v-5.7c-1,2-2.4,3.9-3.9,5-.2-.3-.5-.7-.8-.9,1.6-1,3.1-2.9,4-4.9h-3.1v-1.1h3.8v-2.8h-2c-.3.9-.6,1.7-1,2.4-.2-.2-.7-.5-1-.6.8-1.2,1.4-3.2,1.6-5.1l1.1.2c-.1.7-.3,1.4-.4,2h1.7v-3h1.2v3h3.1v1.1h-3.1v2.8h3.7v1.1h-3Z"/>
          <path d="M668.6,785c.4,5.4,1.6,9.3,3.2,9.3s.6-.9.7-3c.3.3.7.5,1.1.7-.2,2.8-.7,3.6-1.9,3.6-2.6,0-3.9-4.6-4.4-10.5h-8.3v-1.2h8.2c0-.9,0-1.9,0-2.9h1.2c0,1,0,2,0,2.9h4.7v1.2h-4.7ZM663.7,792.9c1.1-.2,2.3-.5,3.4-.7v1c-2.6.7-5.5,1.3-7.6,1.8l-.4-1.2c.9-.2,2.1-.4,3.3-.7v-4.6h-2.8v-1.2h7v1.2h-3v4.4ZM671.8,783.7c-.5-.6-1.5-1.4-2.3-2l.8-.7c.8.5,1.8,1.4,2.3,1.9l-.8.8Z"/>
          <path d="M682.7,780.9c1.7,2.4,4.5,4.4,7,5.5-.3.3-.6.7-.8,1.1-2.5-1.2-5.3-3.3-6.8-5.4-1.3,1.9-3.9,4.1-6.6,5.5-.1-.3-.4-.7-.7-.9,2.7-1.3,5.4-3.6,6.6-5.7h1.2ZM675.7,788.9h13.2v1.1h-7.5c-.6,1.2-1.2,2.6-1.9,3.7,2,0,4.2-.1,6.5-.2-.7-.8-1.4-1.5-2.1-2.2l1-.5c1.5,1.3,3,3,3.8,4.2l-1.1.7c-.2-.3-.4-.7-.7-1.1-3.9.2-8.1.4-10.8.5l-.2-1.2c.7,0,1.5,0,2.4,0,.6-1.1,1.3-2.6,1.7-3.7h-4.2v-1.1ZM686,785.8v1.1h-7.6v-1.1h7.6Z"/>
          <path d="M696.8,790.9c-.4-.5-1.3-1.4-2-2v6.6h-1.2v-6.2c-.8.8-1.6,1.5-2.4,2-.1-.3-.4-.8-.6-1.1,1.9-1.1,3.9-3.1,5-5.2h-4.5v-1.1h2.5v-3h1.2v3h1.6s.7.4.7.4c-.5,1.2-1.2,2.4-2.1,3.5.8.6,2.2,1.8,2.6,2.2l-.7,1ZM705.7,793.9v1.2h-9v-1.2h4v-6.6h-3.4v-1.2h3.4v-5.1h1.2v5.1h3.4v1.2h-3.4v6.6h3.7Z"/>
        </g>
      </g>
    </g>
  </g>
</svg>