<?xml version="1.0" encoding="utf-8"?>
<!-- Generator: Adobe Illustrator 27.3.1, SVG Export Plug-In . SVG Version: 6.00 Build 0)  -->
<svg version="1.1" id="レイヤー_1" xmlns="http://www.w3.org/2000/svg" xmlns:xlink="http://www.w3.org/1999/xlink" x="0px"
	 y="0px" width="800px" height="928px" viewBox="0 0 800 928" style="enable-background:new 0 0 800 928;" xml:space="preserve">
<style type="text/css">
	.st0{fill:none;stroke:#D4D4D4;stroke-miterlimit:10;}
	.st1{fill:none;stroke:#D4D4D4;stroke-width:1.4142;stroke-miterlimit:10;}
	.st2{fill:#8ACCFF;}
	.st3{fill:#63BBFF;}
	.st4{fill:#FFFFFF;}
</style>
<g>
	<polyline class="st0" points="480,907.4 440,907.4 440,727.4 520,727.4 	"/>
	<line class="st0" x1="480" y1="787.4" x2="520" y2="787.4"/>
	<polyline class="st0" points="520,847.4 480,847.4 480,667.4 520,667.4 	"/>
	<g>
		<line class="st0" x1="400" y1="97.4" x2="440" y2="97.4"/>
		<polyline class="st0" points="480,127.4 440,127.4 440,67.4 480,67.4 		"/>
	</g>
	<g>
		<line class="st0" x1="400" y1="277.4" x2="440" y2="277.4"/>
		<polyline class="st0" points="480,307.4 440,307.4 440,247.4 480,247.4 		"/>
	</g>
	<line class="st0" x1="400" y1="487.4" x2="480" y2="487.4"/>
	<polyline class="st1" points="480,547.4 440,547.4 440,427.4 480,427.4 	"/>
	<line class="st0" x1="400" y1="787.4" x2="440" y2="787.4"/>
	<line class="st0" x1="160" y1="367.4" x2="310" y2="367.4"/>
	<line class="st0" x1="310" y1="277.4" x2="360" y2="277.4"/>
	<line class="st0" x1="310" y1="487.4" x2="360" y2="487.4"/>
	<polyline class="st0" points="360,787.4 310,787.4 310,97.4 360,97.4 	"/>
	<line class="st0" x1="80" y1="159.4" x2="80" y2="219.4"/>
	<line class="st0" x1="80" y1="259.4" x2="80" y2="347.4"/>
	<g>
		<path class="st2" d="M157,120.4c1.1,0,2,0.9,2,2v34c0,1.1-0.9,2-2,2H3c-1.1,0-2-0.9-2-2v-34c0-1.1,0.9-2,2-2H157 M157,119.4H3
			c-1.6,0-3,1.3-3,3v34c0,1.6,1.4,3,3,3h154c1.7,0,3-1.4,3-3v-34C160,120.7,158.7,119.4,157,119.4L157,119.4z"/>
	</g>
	<g>
		<path class="st2" d="M157,220.4c1.1,0,2,0.9,2,2v34c0,1.1-0.9,2-2,2H3c-1.1,0-2-0.9-2-2v-34c0-1.1,0.9-2,2-2H157 M157,219.4H3
			c-1.6,0-3,1.3-3,3v34c0,1.6,1.4,3,3,3h154c1.7,0,3-1.4,3-3v-34C160,220.7,158.7,219.4,157,219.4L157,219.4z"/>
	</g>
	<g>
		<path class="st2" d="M157,348.4c1.1,0,2,0.9,2,2v34c0,1.1-0.9,2-2,2H3c-1.1,0-2-0.9-2-2v-34c0-1.1,0.9-2,2-2H157 M157,347.4H3
			c-1.6,0-3,1.4-3,3v34c0,1.6,1.4,3,3,3h154c1.7,0,3-1.4,3-3v-34C160,348.7,158.7,347.4,157,347.4L157,347.4z"/>
	</g>
	<g>
		<path class="st2" d="M637,48.4c1.1,0,2,0.9,2,2v34c0,1.1-0.9,2-2,2H483c-1.1,0-2-0.9-2-2v-34c0-1.1,0.9-2,2-2H637 M637,47.4H483
			c-1.6,0-3,1.3-3,3v34c0,1.7,1.4,3,3,3h154c1.7,0,3-1.3,3-3v-34C640,48.7,638.7,47.4,637,47.4L637,47.4z"/>
	</g>
	<g>
		<path class="st2" d="M637,108.4c1.1,0,2,0.9,2,2v34c0,1.1-0.9,2-2,2H483c-1.1,0-2-0.9-2-2v-34c0-1.1,0.9-2,2-2H637 M637,107.4H483
			c-1.6,0-3,1.3-3,3v34c0,1.6,1.4,3,3,3h154c1.7,0,3-1.4,3-3v-34C640,108.7,638.7,107.4,637,107.4L637,107.4z"/>
	</g>
	<g>
		<path class="st2" d="M637,228.4c1.1,0,2,0.9,2,2v34c0,1.1-0.9,2-2,2H483c-1.1,0-2-0.9-2-2v-34c0-1.1,0.9-2,2-2H637 M637,227.4H483
			c-1.6,0-3,1.4-3,3v34c0,1.6,1.4,3,3,3h154c1.7,0,3-1.4,3-3v-34C640,228.7,638.7,227.4,637,227.4L637,227.4z"/>
	</g>
	<g>
		<path class="st2" d="M637,288.4c1.1,0,2,0.9,2,2v34c0,1.1-0.9,2-2,2H483c-1.1,0-2-0.9-2-2v-34c0-1.1,0.9-2,2-2H637 M637,287.4H483
			c-1.6,0-3,1.4-3,3v34c0,1.6,1.4,3,3,3h154c1.7,0,3-1.4,3-3v-34C640,288.7,638.7,287.4,637,287.4L637,287.4z"/>
	</g>
	<g>
		<path class="st2" d="M637,408.4c1.1,0,2,0.9,2,2v34c0,1.1-0.9,2-2,2H483c-1.1,0-2-0.9-2-2v-34c0-1.1,0.9-2,2-2H637 M637,407.4H483
			c-1.6,0-3,1.4-3,3v34c0,1.7,1.4,3,3,3h154c1.7,0,3-1.3,3-3v-34C640,408.7,638.7,407.4,637,407.4L637,407.4z"/>
	</g>
	<g>
		<path class="st2" d="M637,528.4c1.1,0,2,0.9,2,2v34c0,1.1-0.9,2-2,2H483c-1.1,0-2-0.9-2-2v-34c0-1.1,0.9-2,2-2H637 M637,527.4H483
			c-1.6,0-3,1.3-3,3v34c0,1.6,1.4,3,3,3h154c1.7,0,3-1.4,3-3v-34C640,528.7,638.7,527.4,637,527.4L637,527.4z"/>
	</g>
	<g>
		<path class="st2" d="M637,468.4c1.1,0,2,0.9,2,2v34c0,1.1-0.9,2-2,2H483c-1.1,0-2-0.9-2-2v-34c0-1.1,0.9-2,2-2H637 M637,467.4H483
			c-1.6,0-3,1.4-3,3v34c0,1.6,1.4,3,3,3h154c1.7,0,3-1.4,3-3v-34C640,468.7,638.7,467.4,637,467.4L637,467.4z"/>
	</g>
	<g>
		<path class="st2" d="M282,274.4c1.1,0,2,0.9,2,2v54c0,1.1-0.9,2-2,2h-94c-1.1,0-2-0.9-2-2v-54c0-1.1,0.9-2,2-2H282 M282,273.4h-94
			c-1.6,0-3,1.4-3,3v54c0,1.6,1.4,3,3,3h94c1.6,0,3-1.4,3-3v-54C285,274.7,283.6,273.4,282,273.4L282,273.4z"/>
	</g>
	<g>
		<path class="st2" d="M397,48.4c1.1,0,2,0.9,2,2v94c0,1.1-0.9,2-2,2h-34c-1.1,0-2-0.9-2-2v-94c0-1.1,0.9-2,2-2H397 M397,47.4h-34
			c-1.6,0-3,1.3-3,3v94c0,1.7,1.4,3,3,3h34c1.6,0,3-1.3,3-3v-94C400,48.7,398.6,47.4,397,47.4L397,47.4z"/>
	</g>
	<g>
		<path d="M375.7,68.3c-0.5,1.3-1.3,2.6-2.1,3.4c-0.2-0.2-0.7-0.5-1-0.7c0.8-0.7,1.5-1.8,2-3L375.7,68.3z M379,67.7h-5.6v-10h5.6
			V67.7z M377.9,58.7h-3.3v2h3.3V58.7z M377.9,61.7h-3.3v2h3.3V61.7z M377.9,64.6h-3.3v2.1h3.3V64.6z M377.7,68
			c0.7,0.8,1.4,1.8,1.7,2.5l-1,0.5c-0.3-0.7-1-1.8-1.7-2.6L377.7,68z M387.3,62h-2v8.2c0,0.7-0.2,1.1-0.6,1.3
			c-0.4,0.2-1.2,0.2-2.4,0.2c0-0.3-0.2-0.8-0.4-1.2c0.9,0,1.7,0,1.9,0c0.3,0,0.4-0.1,0.4-0.4v-6.7c-1.1,2.3-2.6,4.4-4.1,5.7
			c-0.2-0.3-0.6-0.7-0.8-0.9c1.8-1.3,3.5-3.8,4.5-6.3h-4.2v-1.1h4.6v-3.7h1.2v3.7h2V62z"/>
		<path d="M377.4,82.7c0.3-0.7,0.6-1.6,0.9-2.6h-1.5v6.6c0,0.6-0.1,0.9-0.5,1.1c-0.4,0.2-1,0.2-2,0.2c0-0.3-0.2-0.8-0.4-1.1
			c0.7,0,1.3,0,1.5,0c0.2,0,0.3-0.1,0.3-0.2v-5.1c-0.6,1.5-1.5,3-2.3,3.9c-0.1-0.3-0.4-0.8-0.6-1.1c1-0.9,2-2.7,2.6-4.3h-2.4v-1h4.3
			c-0.8-0.7-2.3-1.6-3.6-2.1l0.7-0.8c0.5,0.2,1,0.5,1.6,0.7c0.6-0.4,1.2-1,1.7-1.6H373v-1h5.4l0.2,0l0.8,0.5c-0.6,1-1.6,2-2.6,2.7
			c0.5,0.3,1,0.7,1.3,1l-0.6,0.7h1.2l0.2-0.1l0.7,0.3c-0.1,0.3-0.2,0.6-0.2,0.8c1.1-0.3,2-0.7,2.9-1.2c-0.6-0.6-1.2-1.2-1.6-2
			c-0.4,0.4-0.8,0.8-1.2,1.1c-0.2-0.2-0.7-0.5-1-0.7c1.2-0.9,2.4-2.4,3-3.9l1.1,0.3c-0.2,0.5-0.5,0.9-0.7,1.4h5.3v1h-1.2
			c-0.4,1.1-1.1,2-1.9,2.7c1,0.6,2.2,1.1,3.5,1.4c-0.2,0.3-0.6,0.7-0.8,1c-1.3-0.4-2.6-0.9-3.6-1.7c-1,0.7-2.2,1.2-3.5,1.6
			c-0.1-0.2-0.3-0.4-0.4-0.6c-0.3,0.9-0.6,1.8-0.9,2.5L377.4,82.7z M386.8,82.4c0,0,0,0.3,0,0.5c-0.3,3-0.6,4.2-1.1,4.7
			c-0.3,0.3-0.6,0.4-1,0.4c-0.4,0-1.1,0-1.8,0c0-0.3-0.1-0.8-0.3-1.1c0.7,0.1,1.3,0.1,1.6,0.1c0.3,0,0.4,0,0.5-0.2
			c0.3-0.3,0.5-1.2,0.8-3.4h-2.7c-0.6,2-1.7,3.7-4.2,4.7c-0.1-0.3-0.5-0.7-0.7-0.9c2.2-0.8,3.2-2.1,3.7-3.8h-2.5v-1h2.8
			c0.1-0.5,0.2-1,0.2-1.6h1.2c0,0.5-0.1,1.1-0.2,1.6H386.8z M381.3,76.2c0.4,0.8,1.1,1.5,1.8,2.1c0.7-0.6,1.2-1.2,1.6-2.1H381.3z"/>
		<path d="M374.5,99.1c-0.2,1.5-0.6,3-1.1,4.1c-0.2-0.1-0.7-0.4-0.9-0.4c0.5-1,0.9-2.4,1-3.8L374.5,99.1z M376.3,97.9v6.7h-1.1v-6.6
			c-0.9,0-1.8,0.1-2.5,0.1l-0.1-1.1l1.1,0c0.3-0.4,0.7-0.9,1.1-1.5c-0.5-0.7-1.3-1.6-2.1-2.3l0.6-0.8c0.2,0.1,0.3,0.3,0.5,0.4
			c0.5-0.9,1.1-2.1,1.4-3l1,0.4c-0.5,1.1-1.2,2.3-1.8,3.2c0.4,0.4,0.7,0.7,0.9,1c0.6-1,1.2-2,1.6-2.9l1,0.4
			c-0.9,1.5-2.1,3.4-3.2,4.8l2.4-0.1c-0.2-0.5-0.5-1-0.8-1.4l0.8-0.3c0.7,1,1.3,2.4,1.5,3.3l-0.9,0.4c-0.1-0.3-0.2-0.6-0.3-0.9
			L376.3,97.9z M377.7,98.8c0.4,0.9,0.9,2.1,1,2.9l-0.9,0.3c-0.2-0.8-0.6-2-1-2.9L377.7,98.8z M383.5,103h3.9v1.1h-9.1V103h4.1v-2.6
			h-3v-1.1h3V97h1.2v2.3h3.2v1.1h-3.2V103z M386.6,91c-0.6,1.7-1.6,3.1-2.9,4.2c1.1,0.7,2.3,1.2,3.7,1.6c-0.2,0.3-0.6,0.7-0.7,1
			c-1.5-0.4-2.8-1-3.9-1.8c-1.2,0.8-2.5,1.4-3.9,1.9c-0.2-0.3-0.4-0.7-0.7-1c1.3-0.4,2.5-0.9,3.6-1.6c-0.9-0.9-1.7-2-2.3-3.2
			l0.6-0.2h-1.6v-1.1h6.9l0.2,0L386.6,91z M380.8,91.8c0.5,1,1.2,2,2.1,2.7c0.9-0.8,1.6-1.7,2.2-2.7H380.8z"/>
		<path d="M377.9,117.6c-1.7,0.6-3.5,1.2-5,1.7l-0.3-1.2c0.6-0.2,1.3-0.4,2.1-0.7v-4.3H373V112h1.8v-3.5h-2v-1.1h5v1.1h-1.8v3.5h1.6
			v1.1h-1.6v4l1.7-0.6L377.9,117.6z M387.4,119.3v1.1h-10.3v-1.1h4.9v-2.2h-3.6V116h3.6v-1.9h-3.4V107h8.1v7.1h-3.5v1.9h3.7v1.1
			h-3.7v2.2H387.4z M379.6,110.1h2.4v-2h-2.4V110.1z M379.6,113.1h2.4v-2h-2.4V113.1z M385.5,108.1h-2.4v2h2.4V108.1z M385.5,111.1
			h-2.4v2h2.4V111.1z"/>
		<path d="M372.7,128.8h8.2v1.1h-8.2V128.8z M380.7,125.5h-7.6v-1h3.2v-1.7h1.1v1.7h3.2V125.5z M373.8,131.3h6.3v5.9h-1.2v-0.8h-4
			v0.9h-1.1V131.3z M374.8,128.7c-0.1-0.7-0.4-1.8-0.7-2.6l1-0.2c0.4,0.8,0.7,1.9,0.7,2.6L374.8,128.7z M374.9,132.4v2.9h4v-2.9
			H374.9z M377.8,128.5c0.3-0.7,0.7-1.9,0.9-2.7l1.1,0.3c-0.3,0.9-0.7,2-1.1,2.7L377.8,128.5z M387.4,124.1
			c-0.7,1.5-1.5,3.3-2.2,4.8c1.6,1.5,2,2.7,2,3.9c0,1-0.2,1.7-0.8,2.1c-0.3,0.2-0.6,0.3-1,0.4c-0.4,0-0.9,0-1.4,0
			c0-0.3-0.1-0.8-0.3-1.2c0.5,0,0.9,0,1.3,0c0.2,0,0.5-0.1,0.7-0.2c0.3-0.2,0.4-0.7,0.4-1.3c0-1-0.4-2.2-2.1-3.6
			c0.7-1.3,1.4-3.1,1.9-4.4h-3v12.5h-1.2v-13.7h4.7l0.2,0L387.4,124.1z"/>
	</g>
	<g>
		<path class="st2" d="M397,408.4c1.1,0,2,0.9,2,2v154c0,1.1-0.9,2-2,2h-34c-1.1,0-2-0.9-2-2v-154c0-1.1,0.9-2,2-2H397 M397,407.4
			h-34c-1.6,0-3,1.4-3,3v154c0,1.7,1.4,3,3,3h34c1.6,0,3-1.3,3-3v-154C400,408.7,398.6,407.4,397,407.4L397,407.4z"/>
	</g>
	<g>
		<path d="M381.8,440c-0.4,0.6-0.7,1.2-1.1,1.8v10.5h-1.3v-8.9c-1.6,1.8-3.6,3.5-5.8,4.7c-0.2-0.3-0.6-0.8-0.8-1
			c3.2-1.6,5.9-4.2,7.5-7h-7.1v-1.2h13.7v1.2H381.8z M381.8,442.7c1.9,1.2,4.3,3,5.5,4.2l-0.9,0.9c-1.1-1.2-3.5-3.1-5.4-4.4
			L381.8,442.7z"/>
		<path d="M387,458.2c0,0,0,0.4,0,0.6c-0.2,6.7-0.3,8.9-0.9,9.6c-0.3,0.4-0.6,0.5-1.1,0.6c-0.4,0.1-1.2,0-1.9,0
			c0-0.3-0.2-0.8-0.3-1.1c0.8,0.1,1.5,0.1,1.8,0.1c0.3,0,0.4,0,0.6-0.3c0.4-0.5,0.6-2.6,0.7-8.4h-2.3c-0.2,4.3-0.9,7.7-3.7,9.9
			c-0.2-0.3-0.6-0.7-0.9-0.8c0.3-0.2,0.5-0.4,0.7-0.6c-2.4,0.3-4.9,0.6-6.7,0.8l-0.2-1c1-0.1,2.2-0.2,3.5-0.3v-1.4h-3v-0.9h3v-1h-3
			v-4.8h3v-1h-3.5v-0.9h3.5v-1.1c-1,0.1-2.1,0.1-3,0.2c0-0.3-0.2-0.6-0.3-0.9c2.4-0.1,5.2-0.4,6.9-0.8l0.6,0.9
			c-0.9,0.2-2,0.3-3.1,0.5v1.2h3.4v0.9h-3.4v1h3.1v4.8h-3.1v1h3.1v0.9h-3.1v1.3c1-0.1,2.1-0.2,3.2-0.3v0.1c1.4-1.9,1.8-4.5,2-7.5
			h-1.9v-1.1h1.9c0-1.1,0-2.3,0-3.5h1.1c0,1.2,0,2.4,0,3.5H387z M374.2,461.1h2V460h-2V461.1z M376.2,463.1v-1.2h-2v1.2H376.2z
			 M377.3,460v1.2h2.1V460H377.3z M379.4,461.9h-2.1v1.2h2.1V461.9z"/>
		<path d="M387.1,476v1.1h-11.9v1.4c0,2.1-0.3,5.2-1.7,7.4c-0.2-0.2-0.7-0.6-0.9-0.8c1.3-2,1.5-4.7,1.5-6.6V476h3.1
			c-0.1-0.6-0.5-1.4-0.8-2.1l0.8-0.2h-3.3v-1h5.6v-1.4h1.2v1.4h5.7v1h-2.8l0.6,0.1c-0.4,0.8-0.8,1.6-1.2,2.1H387.1z M381.8,484.5
			h5.2v1h-11.4v-1h5v-2H377v-1h3.6v-1.7h-3c-0.4,0.6-0.8,1.1-1.1,1.5c-0.2-0.2-0.7-0.4-0.9-0.6c0.9-0.8,1.6-2.1,2-3.3l1.1,0.3
			c-0.1,0.4-0.3,0.8-0.5,1.2h2.5v-1.4h1.2v1.4h4.2v1h-4.2v1.7h3.8v1h-3.8V484.5z M377.4,473.7c0.4,0.7,0.8,1.5,0.9,2.1l-0.7,0.2h4.9
			l-0.6-0.2c0.3-0.6,0.7-1.5,0.9-2.1H377.4z"/>
		<path d="M387.2,498.2h-1.6v2.8h-1.2v-0.7h-3.8v1.1c0,0.7-0.2,1-0.7,1.2c-0.5,0.2-1.3,0.2-2.7,0.2c-0.1-0.3-0.3-0.7-0.4-1
			c1,0,1.9,0,2.2,0c0.3,0,0.4-0.1,0.4-0.4v-1.1h-5.2v-0.9h5.2v-1.2h-6.5v-0.9h6.5v-1.1h-5v-0.9h5v-1.1h-4.6v-2.8h4.6v-0.9h-6.2v-1
			h6.2v-1.3h1.2v1.3h6.4v1h-6.4v0.9h4.8v2.8h-4.8v1.1h5v2h1.6V498.2z M379.4,493.3v-1.2h-3.4v1.2H379.4z M380.5,492.1v1.2h3.6v-1.2
			H380.5z M380.5,497.2h3.8v-1.1h-3.8V497.2z M384.4,498.2h-3.8v1.2h3.8V498.2z"/>
		<path d="M381.7,515.7c1.5,1.2,3.7,2.1,5.7,2.5c-0.3,0.3-0.6,0.7-0.8,1.1c-2.1-0.6-4.5-1.8-6-3.3v3.5h-1.2v-3.4
			c-1.5,1.4-3.9,2.5-6,3.2c-0.2-0.3-0.5-0.8-0.8-1c2-0.4,4.2-1.4,5.7-2.5h-5.2v-1h6.3v-1.2h-4.8v-0.9h4.8v-1.2h-5.6v-1h3.5
			c-0.1-0.5-0.5-1.1-0.8-1.6l0.6-0.1h-3.9v-1h2.5c-0.2-0.6-0.8-1.6-1.3-2.3l1-0.3c0.5,0.7,1.1,1.7,1.4,2.4l-0.8,0.3h2v-2.8h1.1v2.8
			h1.9v-2.8h1.1v2.8h1.9l-0.6-0.2c0.4-0.7,0.9-1.7,1.2-2.4l1.2,0.3c-0.4,0.8-1,1.7-1.4,2.3h2.5v1h-3.2c-0.3,0.6-0.7,1.2-1,1.7h3.6v1
			h-5.8v1.2h5v0.9h-5v1.2h6.4v1H381.7z M377.7,508.7c0.3,0.5,0.7,1.2,0.8,1.6l-0.5,0.1h3.8l-0.2,0c0.3-0.5,0.6-1.1,0.8-1.7H377.7z"
			/>
		<path d="M372.7,527.8h8.2v1.1h-8.2V527.8z M380.7,524.5h-7.6v-1h3.2v-1.7h1.1v1.7h3.2V524.5z M373.8,530.3h6.3v5.9h-1.2v-0.8h-4
			v0.9h-1.1V530.3z M374.8,527.7c-0.1-0.7-0.4-1.8-0.7-2.6l1-0.2c0.4,0.8,0.7,1.9,0.7,2.6L374.8,527.7z M374.9,531.4v2.9h4v-2.9
			H374.9z M377.8,527.5c0.3-0.7,0.7-1.9,0.9-2.7l1.1,0.3c-0.3,0.9-0.7,2-1.1,2.7L377.8,527.5z M387.4,523.1
			c-0.7,1.5-1.5,3.3-2.2,4.8c1.6,1.5,2,2.7,2,3.9c0,1-0.2,1.7-0.8,2.1c-0.3,0.2-0.6,0.3-1,0.4c-0.4,0-0.9,0-1.4,0
			c0-0.3-0.1-0.8-0.3-1.2c0.5,0,0.9,0,1.3,0c0.2,0,0.5-0.1,0.7-0.2c0.3-0.2,0.4-0.7,0.4-1.3c0-1-0.4-2.2-2.1-3.6
			c0.7-1.3,1.4-3.1,1.9-4.4h-3v12.5h-1.2v-13.7h4.7l0.2,0L387.4,523.1z"/>
	</g>
	<g>
		<path class="st2" d="M397,228.4c1.1,0,2,0.9,2,2v94c0,1.1-0.9,2-2,2h-34c-1.1,0-2-0.9-2-2v-94c0-1.1,0.9-2,2-2H397 M397,227.4h-34
			c-1.6,0-3,1.4-3,3v94c0,1.6,1.4,3,3,3h34c1.6,0,3-1.4,3-3v-94C400,228.7,398.6,227.4,397,227.4L397,227.4z"/>
	</g>
	<g>
		<path d="M374.5,246.3c-0.2,1.5-0.6,3-1.1,4c-0.2-0.1-0.7-0.4-0.9-0.4c0.5-1,0.8-2.4,1-3.8L374.5,246.3z M376.3,244.9v6.8h-1V245
			c-0.9,0.1-1.8,0.1-2.5,0.2l-0.2-1.1c0.3,0,0.7,0,1.1-0.1c0.3-0.4,0.7-0.9,1-1.4c-0.5-0.7-1.3-1.6-2-2.3l0.6-0.8
			c0.2,0.1,0.3,0.3,0.5,0.5c0.5-0.9,1.1-2.1,1.4-3l1,0.4c-0.5,1.1-1.2,2.4-1.8,3.3c0.3,0.4,0.6,0.7,0.8,1c0.6-1,1.2-2,1.7-2.9l1,0.5
			c-0.9,1.5-2.1,3.3-3.2,4.6l2.4-0.2c-0.3-0.4-0.5-0.9-0.8-1.3l0.9-0.4c0.7,1,1.5,2.4,1.7,3.2l-0.9,0.4c-0.1-0.3-0.2-0.7-0.4-1.1
			L376.3,244.9z M377.7,246.1c0.4,0.9,0.8,2.1,1,2.9l-0.9,0.3c-0.1-0.8-0.5-2-0.9-2.9L377.7,246.1z M378,250.6
			c0.7-0.8,1.1-2.2,1.3-3.4l1,0.2c-0.2,1.3-0.6,2.8-1.3,3.7L378,250.6z M381.9,237.5c-0.6,1.6-1.6,3.1-2.7,4.1
			c-0.2-0.2-0.7-0.5-1-0.7c1.1-0.9,2-2.2,2.5-3.7L381.9,237.5z M379,243.4c0.4,0,1,0,1.6-0.1c0.5-1.1,1.1-2.5,1.4-3.6l1.2,0.3
			c-0.4,1-1,2.3-1.5,3.2c0.9-0.1,2-0.1,3-0.2c-0.3-0.5-0.7-0.9-1-1.3l0.9-0.4c0.9,1,1.9,2.4,2.3,3.3l-1,0.6
			c-0.1-0.3-0.4-0.8-0.6-1.2c-2.2,0.2-4.4,0.4-6,0.5L379,243.4z M383.8,250.7c0.4,0,0.4-0.2,0.5-1.7c0.2,0.2,0.7,0.3,1,0.4
			c-0.1,1.8-0.4,2.3-1.3,2.3h-1.6c-1.2,0-1.4-0.3-1.4-1.4v-3.5h1.1v3.5c0,0.4,0.1,0.4,0.5,0.4H383.8z M381.7,244.7
			c1,0.5,2.1,1.3,2.7,1.9l-0.8,0.7c-0.5-0.7-1.6-1.5-2.6-2L381.7,244.7z M384.6,237.2c0.7,1.2,1.9,2.6,2.9,3.3
			c-0.2,0.2-0.6,0.6-0.8,0.8c-1-0.8-2.3-2.4-3.1-3.7L384.6,237.2z M385.6,247c0.9,1.1,1.6,2.6,1.9,3.6l-1,0.5c-0.2-1-1-2.5-1.8-3.7
			L385.6,247z"/>
		<path d="M377.4,262.7c0.3-0.7,0.6-1.6,0.9-2.6h-1.5v6.6c0,0.6-0.1,0.9-0.5,1.1c-0.4,0.2-1,0.2-2,0.2c0-0.3-0.2-0.8-0.4-1.1
			c0.7,0,1.3,0,1.5,0c0.2,0,0.3-0.1,0.3-0.2v-5.1c-0.6,1.5-1.5,3-2.3,3.9c-0.1-0.3-0.4-0.8-0.6-1.1c1-0.9,2-2.7,2.6-4.3h-2.4v-1h4.3
			c-0.8-0.7-2.3-1.6-3.6-2.1l0.7-0.8c0.5,0.2,1,0.5,1.6,0.7c0.6-0.4,1.2-1,1.7-1.6H373v-1h5.4l0.2,0l0.8,0.5c-0.6,1-1.6,2-2.6,2.7
			c0.5,0.3,1,0.7,1.3,1l-0.6,0.7h1.2l0.2-0.1l0.7,0.3c-0.1,0.3-0.2,0.6-0.2,0.8c1.1-0.3,2-0.7,2.9-1.2c-0.6-0.6-1.2-1.2-1.6-2
			c-0.4,0.4-0.8,0.8-1.2,1.1c-0.2-0.2-0.7-0.5-1-0.7c1.2-0.9,2.4-2.4,3-3.9l1.1,0.3c-0.2,0.5-0.5,0.9-0.7,1.4h5.3v1h-1.2
			c-0.4,1.1-1.1,2-1.9,2.7c1,0.6,2.2,1.1,3.5,1.4c-0.2,0.3-0.6,0.7-0.8,1c-1.3-0.4-2.6-0.9-3.6-1.7c-1,0.7-2.2,1.2-3.5,1.6
			c-0.1-0.2-0.3-0.4-0.4-0.6c-0.3,0.9-0.6,1.8-0.9,2.5L377.4,262.7z M386.8,262.4c0,0,0,0.3,0,0.5c-0.3,3-0.6,4.2-1.1,4.7
			c-0.3,0.3-0.6,0.4-1,0.4c-0.4,0-1.1,0-1.8,0c0-0.3-0.1-0.8-0.3-1.1c0.7,0.1,1.3,0.1,1.6,0.1c0.3,0,0.4,0,0.5-0.2
			c0.3-0.3,0.5-1.2,0.8-3.4h-2.7c-0.6,2-1.7,3.7-4.2,4.7c-0.1-0.3-0.5-0.7-0.7-0.9c2.2-0.8,3.2-2.1,3.7-3.8h-2.5v-1h2.8
			c0.1-0.5,0.2-1,0.2-1.6h1.2c0,0.5-0.1,1.1-0.2,1.6H386.8z M381.3,256.2c0.4,0.8,1.1,1.5,1.8,2.1c0.7-0.6,1.2-1.2,1.6-2.1H381.3z"
			/>
		<path d="M380.5,270.4c0,0.2,0,0.5,0,0.7c0.1,2.1,1,9.5,7,12.3c-0.3,0.3-0.7,0.7-0.9,1c-4.1-2-5.9-6.1-6.7-9.3
			c-0.7,3.2-2.4,7.1-6.4,9.3c-0.2-0.3-0.6-0.7-1-0.9c6.5-3.3,6.5-10.9,6.6-13.1H380.5z"/>
		<path d="M387.2,296.4h-1.6v2.8h-1.2v-0.7h-3.8v1.1c0,0.7-0.2,1-0.7,1.2c-0.5,0.2-1.3,0.2-2.7,0.2c-0.1-0.3-0.3-0.7-0.4-1
			c1,0,1.9,0,2.2,0c0.3,0,0.4-0.1,0.4-0.4v-1.1h-5.2v-0.9h5.2v-1.2h-6.5v-0.9h6.5v-1.1h-5v-0.9h5v-1.1h-4.6v-2.8h4.6v-0.9h-6.2v-1
			h6.2v-1.3h1.2v1.3h6.4v1h-6.4v0.9h4.8v2.8h-4.8v1.1h5v2h1.6V296.4z M379.4,291.5v-1.2h-3.4v1.2H379.4z M380.5,290.3v1.2h3.6v-1.2
			H380.5z M380.5,295.4h3.8v-1.1h-3.8V295.4z M384.4,296.4h-3.8v1.2h3.8V296.4z"/>
		<path d="M372.7,308.8h8.2v1.1h-8.2V308.8z M380.7,305.5h-7.6v-1h3.2v-1.7h1.1v1.7h3.2V305.5z M373.8,311.3h6.3v5.9h-1.2v-0.8h-4
			v0.9h-1.1V311.3z M374.8,308.7c-0.1-0.7-0.4-1.8-0.7-2.6l1-0.2c0.4,0.8,0.7,1.9,0.7,2.6L374.8,308.7z M374.9,312.4v2.9h4v-2.9
			H374.9z M377.8,308.5c0.3-0.7,0.7-1.9,0.9-2.7l1.1,0.3c-0.3,0.9-0.7,2-1.1,2.7L377.8,308.5z M387.4,304.1
			c-0.7,1.5-1.5,3.3-2.2,4.8c1.6,1.5,2,2.7,2,3.9c0,1-0.2,1.7-0.8,2.1c-0.3,0.2-0.6,0.3-1,0.4c-0.4,0-0.9,0-1.4,0
			c0-0.3-0.1-0.8-0.3-1.2c0.5,0,0.9,0,1.3,0c0.2,0,0.5-0.1,0.7-0.2c0.3-0.2,0.4-0.7,0.4-1.3c0-1-0.4-2.2-2.1-3.6
			c0.7-1.3,1.4-3.1,1.9-4.4h-3v12.5h-1.2v-13.7h4.7l0.2,0L387.4,304.1z"/>
	</g>
	<g>
		<path class="st2" d="M397,648.4c1.1,0,2,0.9,2,2v274c0,1.1-0.9,2-2,2h-34c-1.1,0-2-0.9-2-2v-274c0-1.1,0.9-2,2-2H397 M397,647.4
			h-34c-1.6,0-3,1.3-3,3v274c0,1.6,1.4,3,3,3h34c1.6,0,3-1.4,3-3v-274C400,648.7,398.6,647.4,397,647.4L397,647.4z"/>
	</g>
	<g>
		<path d="M387.2,763.4h-1.6v2.8h-1.2v-0.7h-3.8v1.1c0,0.7-0.2,1-0.7,1.2c-0.5,0.2-1.3,0.2-2.7,0.2c-0.1-0.3-0.3-0.7-0.4-1
			c1,0,1.9,0,2.2,0c0.3,0,0.4-0.1,0.4-0.4v-1.1h-5.2v-0.9h5.2v-1.2h-6.5v-0.9h6.5v-1.1h-5v-0.9h5v-1.1h-4.6v-2.8h4.6v-0.9h-6.2v-1
			h6.2v-1.3h1.2v1.3h6.4v1h-6.4v0.9h4.8v2.8h-4.8v1.1h5v2h1.6V763.4z M379.4,758.5v-1.2h-3.4v1.2H379.4z M380.5,757.3v1.2h3.6v-1.2
			H380.5z M380.5,762.4h3.8v-1.1h-3.8V762.4z M384.4,763.4h-3.8v1.2h3.8V763.4z"/>
		<path d="M381.7,780.9c1.5,1.2,3.7,2.1,5.7,2.5c-0.3,0.3-0.6,0.7-0.8,1.1c-2.1-0.6-4.5-1.8-6-3.3v3.5h-1.2v-3.4
			c-1.5,1.4-3.9,2.5-6,3.2c-0.2-0.3-0.5-0.8-0.8-1c2-0.4,4.2-1.4,5.7-2.5h-5.2v-1h6.3v-1.2h-4.8v-0.9h4.8v-1.2h-5.6v-1h3.5
			c-0.1-0.5-0.5-1.1-0.8-1.6l0.6-0.1h-3.9v-1h2.5c-0.2-0.6-0.8-1.6-1.3-2.3l1-0.3c0.5,0.7,1.1,1.7,1.4,2.4l-0.8,0.3h2v-2.8h1.1v2.8
			h1.9v-2.8h1.1v2.8h1.9l-0.6-0.2c0.4-0.7,0.9-1.7,1.2-2.4l1.2,0.3c-0.4,0.8-1,1.7-1.4,2.3h2.5v1h-3.2c-0.3,0.6-0.7,1.2-1,1.7h3.6v1
			h-5.8v1.2h5v0.9h-5v1.2h6.4v1H381.7z M377.7,773.9c0.3,0.5,0.7,1.2,0.8,1.6l-0.5,0.1h3.8l-0.2,0c0.3-0.5,0.6-1.1,0.8-1.7H377.7z"
			/>
		<path d="M381.3,791.4c1.3,2.7,3.6,5.3,6.1,6.5c-0.3,0.2-0.7,0.7-0.9,1c-2.4-1.3-4.6-3.8-6-6.5v4.9h3v1.2h-3v3h-1.2v-3h-3.1v-1.2
			h3.1v-4.9c-1.5,2.8-3.6,5.2-6,6.5c-0.2-0.3-0.6-0.7-0.8-1c2.4-1.3,4.8-3.9,6.1-6.6h-5.6v-1.2h6.3v-3.3h1.2v3.3h6.3v1.2H381.3z"/>
		<path d="M372.7,809.8h8.2v1.1h-8.2V809.8z M380.7,806.5h-7.6v-1h3.2v-1.7h1.1v1.7h3.2V806.5z M373.8,812.3h6.3v5.9h-1.2v-0.8h-4
			v0.9h-1.1V812.3z M374.8,809.7c-0.1-0.7-0.4-1.8-0.7-2.6l1-0.2c0.4,0.8,0.7,1.9,0.7,2.6L374.8,809.7z M374.9,813.4v2.9h4v-2.9
			H374.9z M377.8,809.5c0.3-0.7,0.7-1.9,0.9-2.7l1.1,0.3c-0.3,0.9-0.7,2-1.1,2.7L377.8,809.5z M387.4,805.1
			c-0.7,1.5-1.5,3.3-2.2,4.8c1.6,1.5,2,2.7,2,3.9c0,1-0.2,1.7-0.8,2.1c-0.3,0.2-0.6,0.3-1,0.4c-0.4,0-0.9,0-1.4,0
			c0-0.3-0.1-0.8-0.3-1.2c0.5,0,0.9,0,1.3,0c0.2,0,0.5-0.1,0.7-0.2c0.3-0.2,0.4-0.7,0.4-1.3c0-1-0.4-2.2-2.1-3.6
			c0.7-1.3,1.4-3.1,1.9-4.4h-3v12.5h-1.2v-13.7h4.7l0.2,0L387.4,805.1z"/>
	</g>
	<g>
		<path d="M52,140.9c-0.2-0.5-0.8-1.6-1.2-2.4v8.4h-1.2v-7.8c-0.5,1.8-1.3,3.5-2,4.6c-0.1-0.3-0.4-0.8-0.7-1.1c1-1.3,2-3.9,2.5-6
			h-2.2v-1.1h2.3v-3.1h1.2v3.1h2v1.1h-2v0.5c0.4,0.6,1.7,2.6,2,3.1L52,140.9z M58.6,140.3c0.8,1.9,2.1,3.8,3.4,4.8
			c-0.3,0.2-0.7,0.6-0.9,0.9c-1.2-1.1-2.4-3-3.3-5v5.9h-1.2v-5.7c-1,2-2.4,3.9-3.9,5c-0.2-0.3-0.5-0.7-0.8-0.9c1.6-1,3.1-2.9,4-4.9
			h-3.1v-1.1h3.8v-2.8h-2c-0.3,0.9-0.6,1.7-1,2.4c-0.2-0.2-0.7-0.5-1-0.6c0.8-1.2,1.4-3.2,1.6-5.1l1.1,0.2c-0.1,0.7-0.3,1.4-0.4,2
			h1.7v-3h1.2v3H61v1.1h-3.1v2.8h3.7v1.1H58.6z"/>
		<path d="M78.3,145.2v1.2H64.2v-1.2h6.4v-3.9h-4.9v-1.1h4.9v-3.5h-5.7v-1.2h7c-0.6-0.7-1.8-1.7-2.7-2.4l1-0.7
			c1,0.7,2.3,1.8,2.9,2.6l-0.8,0.5h5.2v1.2h-5.7v3.5h5v1.1h-5v3.9H78.3z"/>
		<path d="M82.5,141.5c-0.2,1.5-0.6,3-1.1,4c-0.2-0.1-0.7-0.4-0.9-0.4c0.5-1,0.8-2.4,1-3.8L82.5,141.5z M84.3,140.1v6.8h-1v-6.7
			c-0.9,0.1-1.8,0.1-2.5,0.2l-0.2-1.1c0.3,0,0.7,0,1.1-0.1c0.3-0.4,0.7-0.9,1-1.4c-0.5-0.7-1.3-1.6-2-2.3l0.6-0.8
			c0.2,0.1,0.3,0.3,0.5,0.5c0.5-0.9,1.1-2.1,1.4-3l1,0.4c-0.5,1.1-1.2,2.4-1.8,3.3c0.3,0.4,0.6,0.7,0.8,1c0.6-1,1.2-2,1.7-2.9l1,0.5
			c-0.9,1.5-2.1,3.3-3.2,4.6l2.4-0.2c-0.3-0.4-0.5-0.9-0.8-1.3l0.9-0.4c0.7,1,1.5,2.4,1.7,3.2l-0.9,0.4c-0.1-0.3-0.2-0.7-0.4-1.1
			L84.3,140.1z M85.7,141.3c0.4,0.9,0.8,2.1,1,2.9l-0.9,0.3c-0.1-0.8-0.5-2-0.9-2.9L85.7,141.3z M86,145.8c0.7-0.8,1.1-2.2,1.3-3.4
			l1,0.2c-0.2,1.3-0.6,2.8-1.3,3.7L86,145.8z M89.9,132.8c-0.6,1.6-1.6,3.1-2.7,4.1c-0.2-0.2-0.7-0.5-1-0.7c1.1-0.9,2-2.2,2.5-3.7
			L89.9,132.8z M87,138.6c0.4,0,1,0,1.6-0.1c0.5-1.1,1.1-2.5,1.4-3.6l1.2,0.3c-0.4,1-1,2.3-1.5,3.2c0.9-0.1,2-0.1,3-0.2
			c-0.3-0.5-0.7-0.9-1-1.3l0.9-0.4c0.9,1,1.9,2.4,2.3,3.3l-1,0.6c-0.1-0.3-0.4-0.8-0.6-1.2c-2.2,0.2-4.4,0.4-6,0.5L87,138.6z
			 M91.8,145.9c0.4,0,0.4-0.2,0.5-1.7c0.2,0.2,0.7,0.3,1,0.4c-0.1,1.8-0.4,2.3-1.3,2.3h-1.6c-1.2,0-1.4-0.3-1.4-1.4V142H90v3.5
			c0,0.4,0.1,0.4,0.5,0.4H91.8z M89.7,139.9c1,0.5,2.1,1.3,2.7,1.9l-0.8,0.7c-0.5-0.7-1.6-1.5-2.6-2L89.7,139.9z M92.6,132.5
			c0.7,1.2,1.9,2.6,2.9,3.3c-0.2,0.2-0.6,0.6-0.8,0.8c-1-0.8-2.3-2.4-3.1-3.7L92.6,132.5z M93.6,142.2c0.9,1.1,1.6,2.6,1.9,3.6
			l-1,0.5c-0.2-1-1-2.5-1.8-3.7L93.6,142.2z"/>
		<path d="M105.3,132.3c1.7,2.4,4.5,4.4,7,5.5c-0.3,0.3-0.6,0.7-0.8,1.1c-2.5-1.2-5.3-3.3-6.8-5.4c-1.3,1.9-3.9,4.1-6.6,5.5
			c-0.1-0.3-0.4-0.7-0.7-0.9c2.7-1.3,5.4-3.6,6.6-5.6H105.3z M98.3,140.3h13.2v1.1h-7.5c-0.6,1.2-1.2,2.6-1.9,3.7
			c2-0.1,4.2-0.1,6.5-0.2c-0.7-0.8-1.4-1.5-2.1-2.2l1-0.5c1.5,1.3,3,3,3.8,4.2l-1.1,0.7c-0.2-0.3-0.4-0.7-0.7-1.1
			c-3.9,0.2-8.1,0.4-10.8,0.5l-0.2-1.2c0.7,0,1.5,0,2.4-0.1c0.6-1.1,1.3-2.6,1.7-3.7h-4.2V140.3z M108.6,137.2v1.1H101v-1.1H108.6z"
			/>
	</g>
	<g>
		<path class="st3" d="M3,40c-1.4,0-2.5-1.1-2.5-2.5v-34C0.5,2.1,1.6,1,3,1h154c1.4,0,2.5,1.1,2.5,2.5v34c0,1.4-1.1,2.5-2.5,2.5H3z"
			/>
		<path class="st3" d="M157,1.5c1.1,0,2,0.9,2,2v34c0,1.1-0.9,2-2,2H3c-1.1,0-2-0.9-2-2v-34c0-1.1,0.9-2,2-2H157 M157,0.5H3
			c-1.6,0-3,1.4-3,3v34c0,1.7,1.4,3,3,3h154c1.7,0,3-1.3,3-3v-34C160,1.9,158.7,0.5,157,0.5L157,0.5z"/>
	</g>
	<g>
		<path class="st4" d="M44.5,14.9v1H30.7v-1h6.2v-1.5h1.2v1.5H44.5z M43.9,26.6c0,0.6-0.1,1-0.6,1.2C42.7,28,41.9,28,40.6,28
			c-0.1-0.3-0.2-0.8-0.4-1.1c1,0,1.9,0,2.2,0c0.3,0,0.3-0.1,0.3-0.3v-4.4H32.5V28h-1.1v-6.9h12.5V26.6z M41.9,16.9v3.3h-8.6v-3.3
			H41.9z M40.7,17.7h-6.2v1.6h6.2V17.7z M35.6,26.5v0.8h-1.1v-4.2h6v3.4H35.6z M35.6,24v1.6h3.9V24H35.6z"/>
		<path class="st4" d="M50.5,19.2c0.4,0.6,1.6,2.4,1.9,2.8l-0.6,0.9c-0.2-0.5-0.8-1.5-1.2-2.3V28h-1.1v-7.3
			c-0.5,1.7-1.2,3.3-1.8,4.3c-0.1-0.3-0.4-0.8-0.6-1c1-1.3,1.9-3.8,2.4-6h-2v-1.1h2.1v-3.5h1.1v3.5h1.8V18h-1.8V19.2z M58.9,17
			c0.8,1,1.9,1.9,3,2.4c-0.2,0.2-0.6,0.6-0.8,0.9c-0.6-0.3-1.1-0.7-1.7-1.2V21h-5.1v-1.9c-0.5,0.5-1.1,0.9-1.7,1.3
			c-0.2-0.3-0.5-0.6-0.7-0.8c1.3-0.7,2.2-1.6,2.9-2.5h-2.4v-0.9h2.9c0.2-0.3,0.3-0.7,0.4-1c-0.9,0.1-1.9,0.1-2.8,0.1
			c0-0.2-0.2-0.6-0.3-0.8c2.5-0.1,5.6-0.3,7.2-0.7l0.7,0.8c-1,0.2-2.3,0.4-3.7,0.5c-0.1,0.4-0.2,0.7-0.4,1.1h5V17H58.9z M61.3,26.8
			c0,0.6-0.1,0.9-0.5,1C60.3,28,59.7,28,58.7,28c-0.1-0.3-0.2-0.7-0.4-1c0.8,0,1.4,0,1.6,0c0.2,0,0.3-0.1,0.3-0.2v-4.1h-6.5V28h-1.1
			v-6.3h8.6V26.8z M55.8,26.5v0.7h-0.9v-3.7H59v3H55.8z M56,17c-0.2,0.3-0.4,0.7-0.6,1h3.1c-0.2-0.3-0.5-0.6-0.7-1H56z M58.4,18.8
			h-3v1.4h3V18.8z M55.8,24.3v1.4h2.3v-1.4H55.8z"/>
		<path class="st4" d="M68.8,22c-0.2-0.5-0.8-1.6-1.2-2.4V28h-1.2v-7.8c-0.5,1.8-1.3,3.5-2,4.6c-0.1-0.3-0.4-0.8-0.7-1.1
			c1-1.3,2-3.9,2.5-6h-2.2v-1.1h2.3v-3.1h1.2v3.1h2v1.1h-2v0.5c0.4,0.6,1.7,2.6,2,3.1L68.8,22z M75.4,21.4c0.8,1.9,2.1,3.8,3.4,4.8
			c-0.3,0.2-0.7,0.6-0.9,0.9c-1.2-1.1-2.4-3-3.3-5V28h-1.2v-5.7c-1,2-2.4,3.9-3.9,5c-0.2-0.3-0.5-0.7-0.8-0.9c1.6-1,3.1-2.9,4-4.9
			h-3.1v-1.1h3.8v-2.8h-2c-0.3,0.9-0.6,1.7-1,2.4c-0.2-0.2-0.7-0.5-1-0.6c0.8-1.2,1.4-3.2,1.6-5.1l1.1,0.2c-0.1,0.7-0.3,1.4-0.4,2
			h1.7v-3h1.2v3h3.1v1.1h-3.1v2.8h3.7v1.1H75.4z"/>
		<path class="st4" d="M90.4,17.5c0.4,5.4,1.6,9.3,3.2,9.3c0.4,0,0.6-0.9,0.7-3c0.3,0.3,0.7,0.5,1.1,0.7c-0.2,2.8-0.7,3.6-1.9,3.6
			c-2.6,0-3.9-4.6-4.4-10.5h-8.3v-1.2h8.2c0-0.9-0.1-1.9-0.1-2.9h1.2c0,1,0,2,0.1,2.9h4.7v1.2H90.4z M85.5,25.5
			c1.1-0.2,2.3-0.5,3.4-0.7l0.1,1c-2.7,0.7-5.6,1.3-7.7,1.8L81,26.4c0.9-0.2,2.1-0.4,3.3-0.7v-4.6h-2.8v-1.2h7v1.2h-3V25.5z
			 M93.6,16.2c-0.5-0.6-1.5-1.4-2.3-2l0.8-0.7c0.8,0.5,1.8,1.4,2.3,1.9L93.6,16.2z"/>
		<path class="st4" d="M105.3,13.4c1.7,2.4,4.5,4.4,7,5.5c-0.3,0.3-0.6,0.7-0.8,1.1c-2.5-1.2-5.3-3.3-6.8-5.4
			c-1.3,1.9-3.9,4.1-6.6,5.5c-0.1-0.3-0.4-0.7-0.7-0.9c2.7-1.3,5.4-3.6,6.6-5.7H105.3z M98.3,21.4h13.2v1.1h-7.5
			c-0.6,1.2-1.2,2.6-1.9,3.7c2-0.1,4.2-0.1,6.5-0.2c-0.7-0.8-1.4-1.5-2.1-2.2l1-0.5c1.5,1.3,3,3,3.8,4.2l-1.1,0.7
			c-0.2-0.3-0.4-0.7-0.7-1.1c-3.9,0.2-8.1,0.4-10.8,0.5l-0.2-1.2c0.7,0,1.5,0,2.4-0.1c0.6-1.1,1.3-2.6,1.7-3.7h-4.2V21.4z
			 M108.6,18.3v1.1H101v-1.1H108.6z"/>
		<path class="st4" d="M120.2,23.4c-0.4-0.5-1.3-1.4-2-2V28h-1.2v-6.2c-0.8,0.8-1.6,1.5-2.4,2c-0.1-0.3-0.4-0.8-0.6-1.1
			c1.9-1.1,3.9-3.1,5-5.2h-4.5v-1.1h2.5v-3h1.2v3h1.4l0.2,0l0.7,0.4c-0.5,1.2-1.2,2.4-2.1,3.5c0.8,0.6,2.2,1.8,2.6,2.2L120.2,23.4z
			 M129.1,26.4v1.2h-9v-1.2h4v-6.6h-3.4v-1.2h3.4v-5.1h1.2v5.1h3.4v1.2h-3.4v6.6H129.1z"/>
	</g>
	<g>
		<path d="M53.9,234.6v12.5h-1.2v-2.9c-2,0.3-4.1,0.6-5.6,0.9l-0.2-1.2c0.4,0,1-0.1,1.6-0.2v-9.1h-1.2v-1.1H55v1.1H53.9z
			 M52.7,234.6h-3.1v2.1h3.1V234.6z M52.7,237.8h-3.1v2.2h3.1V237.8z M49.6,243.5c1-0.1,2-0.3,3.1-0.4v-2h-3.1V243.5z M61.3,234.9
			c-0.4,3.4-1.3,6.1-2.6,8.1c0.9,1.3,2,2.3,3.3,3c-0.3,0.2-0.7,0.7-0.8,1c-1.3-0.7-2.3-1.7-3.2-2.9c-0.9,1.2-2,2.1-3.3,2.8
			c-0.2-0.3-0.5-0.7-0.8-1c1.3-0.7,2.4-1.6,3.4-3c-1.1-1.9-1.9-4.2-2.4-6.8l1.1-0.2c0.4,2.2,1.1,4.2,2,5.9c0.9-1.6,1.6-3.6,2-6h-5.4
			v-1.2h5.7l0.2,0L61.3,234.9z"/>
		<path d="M65.6,241.8c-0.2,1.5-0.6,3-1.1,4c-0.2-0.1-0.6-0.3-0.9-0.4c0.5-1,0.8-2.4,1-3.8L65.6,241.8z M68.3,237.6
			c0.6,1.1,1.2,2.4,1.4,3.3l-0.9,0.4c0-0.3-0.1-0.6-0.3-1l-1.2,0.1v6.7h-1v-6.7c-0.9,0.1-1.7,0.1-2.4,0.2l-0.1-1.1
			c0.4,0,0.8,0,1.2,0c0.3-0.4,0.6-0.8,0.9-1.3c-0.5-0.7-1.3-1.6-2-2.3l0.6-0.7c0.2,0.1,0.3,0.3,0.5,0.5c0.5-0.9,1.1-2.1,1.4-3l1,0.4
			c-0.5,1.1-1.2,2.4-1.8,3.3c0.3,0.4,0.6,0.7,0.8,1c0.6-1,1.2-2,1.6-2.9l1,0.4c-0.9,1.5-2,3.3-3.1,4.7l2.1-0.1
			c-0.2-0.5-0.4-1-0.6-1.4L68.3,237.6z M68.6,241.5c0.4,0.9,0.7,2.1,0.8,2.9l-0.9,0.3c0-0.8-0.4-2-0.7-2.9L68.6,241.5z M78.4,237
			v2.7h-1.1V238h-6.7v1.7h-1.1V237h2.3c-0.1-0.6-0.4-1.4-0.7-2l0.1,0h-1.6v-1h3.7v-1.5h1.2v1.5h3.7v1h-1.4c-0.3,0.7-0.6,1.4-0.9,2
			H78.4z M77.5,244.3c0,0.5-0.1,0.8-0.5,1c-0.4,0.2-0.9,0.2-1.7,0.2c0-0.3-0.2-0.7-0.4-1c0.6,0,1.1,0,1.2,0c0.1,0,0.2,0,0.2-0.2V241
			h-2v6.1h-1.1V241h-1.9v4.5h-1.1V240h3v-1.5h1.1v1.5h3.1V244.3z M72.3,235c0.3,0.7,0.6,1.5,0.7,2h1.8c0.3-0.6,0.6-1.4,0.8-2H72.3z"
			/>
		<path d="M85.8,236.1c-0.4,0.8-1,1.5-1.6,2.2v8.8H83v-7.5c-0.6,0.6-1.3,1.2-1.9,1.7c-0.1-0.3-0.5-0.8-0.7-1.1
			c1.6-1.1,3.3-2.8,4.3-4.5L85.8,236.1z M85.3,233c-1,1.4-2.5,3-4,3.9c-0.1-0.3-0.4-0.7-0.6-1c1.3-0.8,2.8-2.2,3.5-3.4L85.3,233z
			 M94.2,239.8c-0.6,1.9-1.7,3.4-3.1,4.5c1.2,0.8,2.7,1.4,4.4,1.7c-0.3,0.2-0.6,0.7-0.8,1c-1.8-0.4-3.3-1.1-4.6-2
			c-1.3,0.9-2.9,1.6-4.4,2.1c-0.1-0.3-0.4-0.8-0.7-1c1.5-0.4,2.9-1,4.2-1.8c-1-1-1.8-2.1-2.3-3.5l0.8-0.3h-1.8v-1.1h7.2l0.2,0
			L94.2,239.8z M88.4,235c0,1.4-0.4,3.1-2.1,4.2c-0.2-0.2-0.7-0.6-0.9-0.7c1.6-1,1.9-2.4,1.9-3.5v-1.9h5.4v3.8c0,0.3,0,0.5,0.1,0.6
			c0.1,0,0.2,0.1,0.3,0.1h0.6c0.1,0,0.3,0,0.4,0c0.1,0,0.2-0.2,0.2-0.4c0-0.2,0.1-0.7,0.1-1.3c0.2,0.2,0.6,0.4,0.9,0.5
			c0,0.6-0.1,1.3-0.2,1.6c-0.1,0.3-0.3,0.4-0.5,0.5c-0.2,0.1-0.6,0.2-0.8,0.2h-0.9c-0.4,0-0.7-0.1-1-0.3c-0.3-0.2-0.3-0.5-0.3-1.4
			v-2.7h-3.1V235z M88,240.6c0.5,1.2,1.2,2.2,2.2,3c1-0.8,1.8-1.9,2.4-3H88z"/>
		<path d="M105.3,232.5c1.7,2.4,4.5,4.4,7,5.5c-0.3,0.3-0.6,0.7-0.8,1.1c-2.5-1.2-5.3-3.3-6.8-5.4c-1.3,1.9-3.9,4.1-6.6,5.5
			c-0.1-0.3-0.4-0.7-0.7-0.9c2.7-1.3,5.4-3.6,6.6-5.6H105.3z M98.3,240.5h13.2v1.1h-7.5c-0.6,1.2-1.2,2.6-1.9,3.7
			c2-0.1,4.2-0.1,6.5-0.2c-0.7-0.8-1.4-1.5-2.1-2.2l1-0.5c1.5,1.3,3,3,3.8,4.2l-1.1,0.7c-0.2-0.3-0.4-0.7-0.7-1.1
			c-3.9,0.2-8.1,0.4-10.8,0.5l-0.2-1.2c0.7,0,1.5,0,2.4-0.1c0.6-1.1,1.3-2.6,1.7-3.7h-4.2V240.5z M108.6,237.5v1.1H101v-1.1H108.6z"
			/>
	</g>
	<g>
		<path d="M44.1,360.4c-0.5,1.1-1.1,2.2-1.7,3.2v10.8h-1.2v-9.1c-0.7,0.9-1.4,1.7-2.1,2.4c-0.1-0.3-0.5-0.9-0.7-1.2
			c1.8-1.6,3.6-4,4.6-6.5L44.1,360.4z M48.4,365.8c0.5,4.2,1.6,7.1,3.3,7.3c0.5,0,0.7-0.9,0.9-2.8c0.2,0.2,0.8,0.5,1,0.6
			c-0.4,2.7-1,3.6-1.8,3.5c-2.6-0.2-3.9-3.5-4.5-8.5l-3.8,0.5l-0.2-1.1l3.9-0.5c-0.1-1.5-0.2-3.1-0.3-4.7H48c0,1.6,0.1,3.2,0.3,4.6
			l4.8-0.6l0.2,1.1L48.4,365.8z M52,363.4c-0.5-0.7-1.6-1.8-2.6-2.6l0.9-0.6c1,0.8,2.1,1.8,2.6,2.6L52,363.4z"/>
		<path d="M69.3,368.2c-1,0.8-2.3,1.7-3.4,2.3c1.1,1.3,2.5,2.3,4.3,2.8c-0.3,0.2-0.6,0.7-0.8,1c-3.4-1.2-5.5-3.7-6.6-7.3
			c-0.7,0.7-1.5,1.3-2.4,1.9v3.6c1.3-0.3,2.6-0.6,4-1l0.1,1.1c-2.5,0.7-5.2,1.3-7.1,1.8l-0.4-1.1c0.6-0.1,1.4-0.3,2.2-0.5v-3.2
			c-1.1,0.6-2.2,1.1-3.2,1.4c-0.2-0.3-0.5-0.7-0.8-1c2.1-0.6,4.5-1.8,6.1-3.1h-5.5v-1h6.3v-1.4h-5v-1h5v-1.3h-5.7v-1h5.7v-1.3h1.2
			v1.3h5.8v1h-5.8v1.3h5.2v1h-5.2v1.4h6.4v1H64c0.3,1,0.8,2,1.3,2.8c1-0.7,2.3-1.6,3-2.3L69.3,368.2z"/>
		<path d="M79.1,361.9v12.5h-1.2v-2.9c-2,0.3-4.1,0.6-5.6,0.9l-0.2-1.2c0.4,0,1-0.1,1.6-0.2v-9.1h-1.2v-1.1h7.8v1.1H79.1z
			 M77.9,361.9h-3.1v2.1h3.1V361.9z M77.9,365.1h-3.1v2.2h3.1V365.1z M74.8,370.9c1-0.1,2-0.3,3.1-0.4v-2h-3.1V370.9z M86.5,362.2
			c-0.4,3.4-1.3,6.1-2.6,8.1c0.9,1.3,2,2.3,3.3,3c-0.3,0.2-0.7,0.7-0.8,1c-1.3-0.7-2.3-1.7-3.2-2.9c-0.9,1.2-2,2.1-3.3,2.8
			c-0.2-0.3-0.5-0.7-0.8-1c1.3-0.7,2.4-1.6,3.4-3c-1.1-1.9-1.9-4.2-2.4-6.8l1.1-0.2c0.4,2.2,1.1,4.2,2,5.9c0.9-1.6,1.6-3.6,2-6h-5.4
			V362h5.7l0.2,0L86.5,362.2z"/>
		<path d="M90.8,369.1c-0.2,1.5-0.6,3-1.1,4c-0.2-0.1-0.6-0.3-0.9-0.4c0.5-1,0.8-2.4,1-3.8L90.8,369.1z M93.5,364.9
			c0.6,1.1,1.2,2.4,1.4,3.3l-0.9,0.4c0-0.3-0.1-0.6-0.3-1l-1.2,0.1v6.7h-1v-6.7c-0.9,0.1-1.7,0.1-2.4,0.2l-0.1-1.1
			c0.4,0,0.8,0,1.2,0c0.3-0.4,0.6-0.8,0.9-1.3c-0.5-0.7-1.3-1.6-2-2.3l0.6-0.7c0.2,0.1,0.3,0.3,0.5,0.5c0.5-0.9,1.1-2.1,1.4-3l1,0.4
			c-0.5,1.1-1.2,2.4-1.8,3.3c0.3,0.4,0.6,0.7,0.8,1c0.6-1,1.2-2,1.6-2.9l1,0.4c-0.9,1.5-2,3.3-3.1,4.7l2.1-0.1
			c-0.2-0.5-0.4-1-0.6-1.4L93.5,364.9z M93.8,368.9c0.4,0.9,0.7,2.1,0.8,2.9l-0.9,0.3c0-0.8-0.4-2-0.7-2.9L93.8,368.9z M103.6,364.3
			v2.7h-1.1v-1.7h-6.7v1.7h-1.1v-2.7H97c-0.1-0.6-0.4-1.4-0.7-2l0.1,0h-1.6v-1h3.7v-1.5h1.2v1.5h3.7v1H102c-0.3,0.7-0.6,1.4-0.9,2
			H103.6z M102.7,371.6c0,0.5-0.1,0.8-0.5,1c-0.4,0.2-0.9,0.2-1.7,0.2c0-0.3-0.2-0.7-0.4-1c0.6,0,1.1,0,1.2,0c0.1,0,0.2,0,0.2-0.2
			v-3.2h-2v6.1h-1.1v-6.1h-1.9v4.5h-1.1v-5.5h3v-1.5h1.1v1.5h3.1V371.6z M97.5,362.3c0.3,0.7,0.6,1.5,0.7,2h1.8
			c0.3-0.6,0.6-1.4,0.8-2H97.5z"/>
		<path d="M111,363.4c-0.4,0.8-1,1.5-1.6,2.2v8.8h-1.2v-7.5c-0.6,0.6-1.3,1.2-1.9,1.7c-0.1-0.3-0.5-0.8-0.7-1.1
			c1.6-1.1,3.3-2.8,4.3-4.5L111,363.4z M110.5,360.3c-1,1.4-2.5,3-4,3.9c-0.1-0.3-0.4-0.7-0.6-1c1.3-0.8,2.8-2.2,3.5-3.4
			L110.5,360.3z M119.4,367.2c-0.6,1.9-1.7,3.4-3.1,4.5c1.2,0.8,2.7,1.4,4.4,1.7c-0.3,0.2-0.6,0.7-0.8,1c-1.8-0.4-3.3-1.1-4.6-2
			c-1.3,0.9-2.9,1.6-4.4,2.1c-0.1-0.3-0.4-0.8-0.7-1c1.5-0.4,2.9-1,4.2-1.8c-1-1-1.8-2.1-2.3-3.5l0.8-0.3h-1.8v-1.1h7.2l0.2,0
			L119.4,367.2z M113.6,362.3c0,1.4-0.4,3.1-2.1,4.2c-0.2-0.2-0.7-0.6-0.9-0.7c1.6-1,1.9-2.4,1.9-3.5v-1.9h5.4v3.8
			c0,0.3,0,0.5,0.1,0.6c0.1,0,0.2,0.1,0.3,0.1h0.6c0.1,0,0.3,0,0.4,0c0.1,0,0.2-0.2,0.2-0.4c0-0.2,0.1-0.7,0.1-1.3
			c0.2,0.2,0.6,0.4,0.9,0.5c0,0.6-0.1,1.3-0.2,1.6c-0.1,0.3-0.3,0.4-0.5,0.5c-0.2,0.1-0.6,0.2-0.8,0.2H118c-0.4,0-0.7-0.1-1-0.3
			c-0.3-0.2-0.3-0.5-0.3-1.4v-2.7h-3.1V362.3z M113.2,367.9c0.5,1.2,1.2,2.2,2.2,3c1-0.8,1.8-1.9,2.4-3H113.2z"/>
	</g>
	<g>
		<path d="M538.5,71.6c-0.5,1.3-1.3,2.6-2.1,3.4c-0.2-0.2-0.7-0.5-1-0.7c0.8-0.7,1.5-1.8,2-3L538.5,71.6z M541.8,71h-5.6V61h5.6V71z
			 M540.7,62h-3.3v2h3.3V62z M540.7,64.9h-3.3v2h3.3V64.9z M540.7,67.9h-3.3V70h3.3V67.9z M540.5,71.3c0.7,0.8,1.4,1.8,1.7,2.5
			l-1,0.5c-0.3-0.7-1-1.8-1.7-2.6L540.5,71.3z M550.1,65.3h-2v8.2c0,0.7-0.2,1.1-0.6,1.3c-0.4,0.2-1.2,0.2-2.4,0.2
			c0-0.3-0.2-0.8-0.4-1.2c0.9,0,1.7,0,1.9,0c0.3,0,0.4-0.1,0.4-0.4v-6.7c-1.1,2.3-2.6,4.4-4.1,5.7c-0.2-0.3-0.6-0.7-0.8-0.9
			c1.8-1.3,3.5-3.8,4.5-6.3h-4.2v-1.1h4.6v-3.7h1.2v3.7h2V65.3z"/>
		<path d="M557,69.6c0.3-0.7,0.6-1.6,0.9-2.6h-1.5v6.6c0,0.6-0.1,0.9-0.5,1.1c-0.4,0.2-1,0.2-2,0.2c0-0.3-0.2-0.8-0.4-1.1
			c0.7,0,1.3,0,1.5,0c0.2,0,0.3-0.1,0.3-0.2v-5.1c-0.6,1.5-1.5,3-2.3,3.9c-0.1-0.3-0.4-0.8-0.6-1.1c1-0.9,2-2.7,2.6-4.3h-2.4v-1h4.3
			c-0.8-0.7-2.3-1.6-3.6-2.1l0.7-0.8c0.5,0.2,1,0.5,1.6,0.7c0.6-0.4,1.2-1,1.7-1.6h-4.5v-1h5.4l0.2,0l0.8,0.5c-0.6,1-1.6,2-2.6,2.7
			c0.5,0.3,1,0.7,1.3,1l-0.6,0.7h1.2l0.2-0.1l0.7,0.3c-0.1,0.3-0.2,0.6-0.2,0.8c1.1-0.3,2-0.7,2.9-1.2c-0.6-0.6-1.2-1.2-1.6-2
			c-0.4,0.4-0.8,0.8-1.2,1.1c-0.2-0.2-0.7-0.5-1-0.7c1.2-0.9,2.4-2.4,3-3.9l1.1,0.3c-0.2,0.5-0.5,0.9-0.7,1.4h5.3v1h-1.2
			c-0.4,1.1-1.1,2-1.9,2.7c1,0.6,2.2,1.1,3.5,1.4c-0.2,0.3-0.6,0.7-0.8,1c-1.3-0.4-2.6-0.9-3.6-1.7c-1,0.7-2.2,1.2-3.5,1.6
			c-0.1-0.2-0.3-0.4-0.4-0.6c-0.3,0.9-0.6,1.8-0.9,2.5L557,69.6z M566.4,69.3c0,0,0,0.3,0,0.5c-0.3,3-0.6,4.2-1.1,4.7
			c-0.3,0.3-0.6,0.4-1,0.4c-0.4,0-1.1,0-1.8,0c0-0.3-0.1-0.8-0.3-1.1c0.7,0.1,1.3,0.1,1.6,0.1c0.3,0,0.4,0,0.5-0.2
			c0.3-0.3,0.5-1.2,0.8-3.4h-2.7c-0.6,2-1.7,3.7-4.2,4.7c-0.1-0.3-0.5-0.7-0.7-0.9c2.2-0.8,3.2-2.1,3.7-3.8h-2.5v-1h2.8
			c0.1-0.5,0.2-1,0.2-1.6h1.2c0,0.5-0.1,1.1-0.2,1.6H566.4z M560.9,63.1c0.4,0.8,1.1,1.5,1.8,2.1c0.7-0.6,1.2-1.2,1.6-2.1H560.9z"/>
		<path d="M574.7,64h-5.6v-1h5.6V64z M574.3,74.1h-3.5v0.7h-1v-5.4h4.5V74.1z M574.3,66.1h-4.5v-0.9h4.5V66.1z M569.8,67.3h4.5v1
			h-4.5V67.3z M574.2,61.9h-4.4v-1h4.4V61.9z M570.8,70.4v2.7h2.5v-2.7H570.8z M580.4,69.6c0.9,1.4,2.3,2.9,3.5,3.6
			c-0.3,0.2-0.6,0.6-0.8,0.9c-1.1-0.8-2.4-2.2-3.3-3.7V75h-1.2v-4.4c-0.9,1.5-2.2,2.9-3.5,3.7c-0.2-0.3-0.5-0.7-0.8-0.9
			c1.4-0.8,2.8-2.2,3.7-3.7h-3.2v-1.1h3.7v-1.3h-3.1V61h7.5v6.2h-3.2v1.3h3.7v1.1H580.4z M576.6,63.6h2.1V62h-2.1V63.6z M576.6,66.3
			h2.1v-1.6h-2.1V66.3z M581.9,62h-2.2v1.6h2.2V62z M581.9,64.6h-2.2v1.6h2.2V64.6z"/>
	</g>
	<g>
		<path d="M537.3,129.8c-0.2,1.5-0.6,3-1.1,4.1c-0.2-0.1-0.7-0.4-0.9-0.4c0.5-1,0.9-2.4,1-3.8L537.3,129.8z M539.1,128.6v6.7H538
			v-6.6c-0.9,0-1.8,0.1-2.5,0.1l-0.1-1.1l1.1,0c0.3-0.4,0.7-0.9,1.1-1.5c-0.5-0.7-1.3-1.6-2.1-2.3l0.6-0.8c0.2,0.1,0.3,0.3,0.5,0.4
			c0.5-0.9,1.1-2.1,1.4-3l1,0.4c-0.5,1.1-1.2,2.3-1.8,3.2c0.4,0.4,0.7,0.7,0.9,1c0.6-1,1.2-2,1.6-2.9l1,0.4
			c-0.9,1.5-2.1,3.4-3.2,4.8l2.4-0.1c-0.2-0.5-0.5-1-0.8-1.4l0.8-0.3c0.7,1,1.3,2.4,1.5,3.3l-0.9,0.4c-0.1-0.3-0.2-0.6-0.3-0.9
			L539.1,128.6z M540.5,129.5c0.4,0.9,0.9,2.1,1,2.9l-0.9,0.3c-0.2-0.8-0.6-2-1-2.9L540.5,129.5z M546.3,133.7h3.9v1.1h-9.1v-1.1
			h4.1V131h-3V130h3v-2.3h1.2v2.3h3.2v1.1h-3.2V133.7z M549.4,121.7c-0.6,1.7-1.6,3.1-2.9,4.2c1.1,0.7,2.3,1.2,3.7,1.6
			c-0.2,0.3-0.6,0.7-0.7,1c-1.5-0.4-2.8-1-3.9-1.8c-1.2,0.8-2.5,1.4-3.9,1.9c-0.2-0.3-0.4-0.7-0.7-1c1.3-0.4,2.5-0.9,3.6-1.6
			c-0.9-0.9-1.7-2-2.3-3.2l0.6-0.2h-1.6v-1.1h6.9l0.2,0L549.4,121.7z M543.6,122.5c0.5,1,1.2,2,2.1,2.7c0.9-0.8,1.6-1.7,2.2-2.7
			H543.6z"/>
		<path d="M557.5,131.9c-1.7,0.6-3.5,1.2-5,1.7l-0.3-1.2c0.6-0.2,1.3-0.4,2.1-0.7v-4.3h-1.8v-1.1h1.8v-3.5h-2v-1.1h5v1.1h-1.8v3.5
			h1.6v1.1h-1.6v4l1.7-0.6L557.5,131.9z M567,133.6v1.1h-10.3v-1.1h4.9v-2.2h-3.6v-1.1h3.6v-1.9h-3.4v-7.1h8.1v7.1h-3.5v1.9h3.7v1.1
			h-3.7v2.2H567z M559.2,124.4h2.4v-2h-2.4V124.4z M559.2,127.4h2.4v-2h-2.4V127.4z M565.1,122.4h-2.4v2h2.4V122.4z M565.1,125.4
			h-2.4v2h2.4V125.4z"/>
		<path d="M574.7,124.2h-5.6v-1h5.6V124.2z M574.3,134.3h-3.5v0.7h-1v-5.4h4.5V134.3z M574.3,126.3h-4.5v-0.9h4.5V126.3z
			 M569.8,127.5h4.5v1h-4.5V127.5z M574.2,122.1h-4.4v-1h4.4V122.1z M570.8,130.6v2.7h2.5v-2.7H570.8z M580.4,129.8
			c0.9,1.4,2.3,2.9,3.5,3.6c-0.3,0.2-0.6,0.6-0.8,0.9c-1.1-0.8-2.4-2.2-3.3-3.7v4.5h-1.2v-4.4c-0.9,1.5-2.2,2.9-3.5,3.7
			c-0.2-0.3-0.5-0.7-0.8-0.9c1.4-0.8,2.8-2.2,3.7-3.7h-3.2v-1.1h3.7v-1.3h-3.1v-6.2h7.5v6.2h-3.2v1.3h3.7v1.1H580.4z M576.6,123.9
			h2.1v-1.6h-2.1V123.9z M576.6,126.5h2.1v-1.6h-2.1V126.5z M581.9,122.2h-2.2v1.6h2.2V122.2z M581.9,124.8h-2.2v1.6h2.2V124.8z"/>
	</g>
	<g>
		<path d="M537.3,250.5c-0.2,1.5-0.6,3-1.1,4c-0.2-0.1-0.7-0.4-0.9-0.4c0.5-1,0.8-2.4,1-3.8L537.3,250.5z M539.1,249.1v6.8h-1v-6.7
			c-0.9,0.1-1.8,0.1-2.5,0.2l-0.2-1.1c0.3,0,0.7,0,1.1-0.1c0.3-0.4,0.7-0.9,1-1.4c-0.5-0.7-1.3-1.6-2-2.3l0.6-0.8
			c0.2,0.1,0.3,0.3,0.5,0.5c0.5-0.9,1.1-2.1,1.4-3l1,0.4c-0.5,1.1-1.2,2.4-1.8,3.3c0.3,0.4,0.6,0.7,0.8,1c0.6-1,1.2-2,1.7-2.9l1,0.5
			c-0.9,1.5-2.1,3.3-3.2,4.6l2.4-0.2c-0.3-0.4-0.5-0.9-0.8-1.3l0.9-0.4c0.7,1,1.5,2.4,1.7,3.2l-0.9,0.4c-0.1-0.3-0.2-0.7-0.4-1.1
			L539.1,249.1z M540.5,250.3c0.4,0.9,0.8,2.1,1,2.9l-0.9,0.3c-0.1-0.8-0.5-2-0.9-2.9L540.5,250.3z M540.8,254.8
			c0.7-0.8,1.1-2.2,1.3-3.4l1,0.2c-0.2,1.3-0.6,2.8-1.3,3.7L540.8,254.8z M544.7,241.7c-0.6,1.6-1.6,3.1-2.7,4.1
			c-0.2-0.2-0.7-0.5-1-0.7c1.1-0.9,2-2.2,2.5-3.7L544.7,241.7z M541.8,247.6c0.4,0,1,0,1.6-0.1c0.5-1.1,1.1-2.5,1.4-3.6l1.2,0.3
			c-0.4,1-1,2.3-1.5,3.2c0.9-0.1,2-0.1,3-0.2c-0.3-0.5-0.7-0.9-1-1.3l0.9-0.4c0.9,1,1.9,2.4,2.3,3.3l-1,0.6
			c-0.1-0.3-0.4-0.8-0.6-1.2c-2.2,0.2-4.4,0.4-6,0.5L541.8,247.6z M546.6,254.9c0.4,0,0.4-0.2,0.5-1.7c0.2,0.2,0.7,0.3,1,0.4
			c-0.1,1.8-0.4,2.3-1.3,2.3h-1.6c-1.2,0-1.4-0.3-1.4-1.4V251h1.1v3.5c0,0.4,0.1,0.4,0.5,0.4H546.6z M544.5,248.9
			c1,0.5,2.1,1.3,2.7,1.9l-0.8,0.7c-0.5-0.7-1.6-1.5-2.6-2L544.5,248.9z M547.4,241.4c0.7,1.2,1.9,2.6,2.9,3.3
			c-0.2,0.2-0.6,0.6-0.8,0.8c-1-0.8-2.3-2.4-3.1-3.7L547.4,241.4z M548.4,251.2c0.9,1.1,1.6,2.6,1.9,3.6l-1,0.5
			c-0.2-1-1-2.5-1.8-3.7L548.4,251.2z"/>
		<path d="M557,250.5c0.3-0.7,0.6-1.6,0.9-2.6h-1.5v6.6c0,0.6-0.1,0.9-0.5,1.1c-0.4,0.2-1,0.2-2,0.2c0-0.3-0.2-0.8-0.4-1.1
			c0.7,0,1.3,0,1.5,0c0.2,0,0.3-0.1,0.3-0.2v-5.1c-0.6,1.5-1.5,3-2.3,3.9c-0.1-0.3-0.4-0.8-0.6-1.1c1-0.9,2-2.7,2.6-4.3h-2.4v-1h4.3
			c-0.8-0.7-2.3-1.6-3.6-2.1l0.7-0.8c0.5,0.2,1,0.5,1.6,0.7c0.6-0.4,1.2-1,1.7-1.6h-4.5v-1h5.4l0.2,0l0.8,0.5c-0.6,1-1.6,2-2.6,2.7
			c0.5,0.3,1,0.7,1.3,1l-0.6,0.7h1.2l0.2-0.1l0.7,0.3c-0.1,0.3-0.2,0.6-0.2,0.8c1.1-0.3,2-0.7,2.9-1.2c-0.6-0.6-1.2-1.2-1.6-2
			c-0.4,0.4-0.8,0.8-1.2,1.1c-0.2-0.2-0.7-0.5-1-0.7c1.2-0.9,2.4-2.4,3-3.9l1.1,0.3c-0.2,0.5-0.5,0.9-0.7,1.4h5.3v1h-1.2
			c-0.4,1.1-1.1,2-1.9,2.7c1,0.6,2.2,1.1,3.5,1.4c-0.2,0.3-0.6,0.7-0.8,1c-1.3-0.4-2.6-0.9-3.6-1.7c-1,0.7-2.2,1.2-3.5,1.6
			c-0.1-0.2-0.3-0.4-0.4-0.6c-0.3,0.9-0.6,1.8-0.9,2.5L557,250.5z M566.4,250.2c0,0,0,0.3,0,0.5c-0.3,3-0.6,4.2-1.1,4.7
			c-0.3,0.3-0.6,0.4-1,0.4c-0.4,0-1.1,0-1.8,0c0-0.3-0.1-0.8-0.3-1.1c0.7,0.1,1.3,0.1,1.6,0.1c0.3,0,0.4,0,0.5-0.2
			c0.3-0.3,0.5-1.2,0.8-3.4h-2.7c-0.6,2-1.7,3.7-4.2,4.7c-0.1-0.3-0.5-0.7-0.7-0.9c2.2-0.8,3.2-2.1,3.7-3.8h-2.5v-1h2.8
			c0.1-0.5,0.2-1,0.2-1.6h1.2c0,0.5-0.1,1.1-0.2,1.6H566.4z M560.9,244c0.4,0.8,1.1,1.5,1.8,2.1c0.7-0.6,1.2-1.2,1.6-2.1H560.9z"/>
		<path d="M574.7,244.9h-5.6v-1h5.6V244.9z M574.3,255h-3.5v0.7h-1v-5.4h4.5V255z M574.3,247h-4.5v-0.9h4.5V247z M569.8,248.2h4.5v1
			h-4.5V248.2z M574.2,242.8h-4.4v-1h4.4V242.8z M570.8,251.3v2.7h2.5v-2.7H570.8z M580.4,250.5c0.9,1.4,2.3,2.9,3.5,3.6
			c-0.3,0.2-0.6,0.6-0.8,0.9c-1.1-0.8-2.4-2.2-3.3-3.7v4.5h-1.2v-4.4c-0.9,1.5-2.2,2.9-3.5,3.7c-0.2-0.3-0.5-0.7-0.8-0.9
			c1.4-0.8,2.8-2.2,3.7-3.7h-3.2v-1.1h3.7v-1.3h-3.1V242h7.5v6.2h-3.2v1.3h3.7v1.1H580.4z M576.6,244.6h2.1v-1.6h-2.1V244.6z
			 M576.6,247.2h2.1v-1.6h-2.1V247.2z M581.9,242.9h-2.2v1.6h2.2V242.9z M581.9,245.5h-2.2v1.6h2.2V245.5z"/>
	</g>
	<g>
		<path d="M543.3,301.6c0,0.2,0,0.5,0,0.7c0.1,2.1,1,9.5,7,12.3c-0.3,0.3-0.7,0.7-0.9,1c-4.1-2-5.9-6.1-6.7-9.3
			c-0.7,3.2-2.4,7.1-6.4,9.3c-0.2-0.3-0.6-0.7-1-0.9c6.5-3.3,6.5-10.9,6.6-13.1H543.3z"/>
		<path d="M566.8,311.2h-1.6v2.8H564v-0.7h-3.8v1.1c0,0.7-0.2,1-0.7,1.2c-0.5,0.2-1.3,0.2-2.7,0.2c-0.1-0.3-0.3-0.7-0.4-1
			c1,0,1.9,0,2.2,0c0.3,0,0.4-0.1,0.4-0.4v-1.1h-5.2v-0.9h5.2v-1.2h-6.5v-0.9h6.5v-1.1h-5v-0.9h5v-1.1h-4.6v-2.8h4.6v-0.9h-6.2v-1
			h6.2v-1.3h1.2v1.3h6.4v1h-6.4v0.9h4.8v2.8h-4.8v1.1h5v2h1.6V311.2z M559,306.3v-1.2h-3.4v1.2H559z M560.1,305.2v1.2h3.6v-1.2
			H560.1z M560.1,310.3h3.8v-1.1h-3.8V310.3z M564,311.2h-3.8v1.2h3.8V311.2z"/>
		<path d="M574.7,304.8h-5.6v-1h5.6V304.8z M574.3,314.8h-3.5v0.7h-1v-5.4h4.5V314.8z M574.3,306.9h-4.5V306h4.5V306.9z
			 M569.8,308.1h4.5v1h-4.5V308.1z M574.2,302.7h-4.4v-1h4.4V302.7z M570.8,311.2v2.7h2.5v-2.7H570.8z M580.4,310.4
			c0.9,1.4,2.3,2.9,3.5,3.6c-0.3,0.2-0.6,0.6-0.8,0.9c-1.1-0.8-2.4-2.2-3.3-3.7v4.5h-1.2v-4.4c-0.9,1.5-2.2,2.9-3.5,3.7
			c-0.2-0.3-0.5-0.7-0.8-0.9c1.4-0.8,2.8-2.2,3.7-3.7h-3.2v-1.1h3.7V308h-3.1v-6.2h7.5v6.2h-3.2v1.3h3.7v1.1H580.4z M576.6,304.4
			h2.1v-1.6h-2.1V304.4z M576.6,307h2.1v-1.6h-2.1V307z M581.9,302.8h-2.2v1.6h2.2V302.8z M581.9,305.4h-2.2v1.6h2.2V305.4z"/>
	</g>
	<g>
		<path d="M550.1,423.2h-3.5c0.4,0.4,0.7,0.9,0.9,1.3l-1.1,0.4c-0.2-0.5-0.6-1.1-1.1-1.7H544c-0.3,0.4-0.6,0.7-0.9,1h0.2v1.2h6.2v3
			h-1.2v-2h-11.1v2h-1.1v-3h6v-1c-0.2-0.1-0.5-0.3-0.7-0.4c0.4-0.3,0.7-0.5,1-0.9h-2.8c0.3,0.5,0.5,1,0.6,1.3l-1.1,0.3
			c-0.1-0.4-0.4-1.1-0.8-1.6h-0.7c-0.4,0.7-0.9,1.2-1.4,1.7c-0.2-0.2-0.7-0.5-1-0.6c1-0.8,1.8-2.1,2.3-3.3l1.1,0.3
			c-0.1,0.3-0.3,0.7-0.5,1h4.2v0.9c0.6-0.7,1.1-1.4,1.4-2.2l1.1,0.3c-0.1,0.3-0.3,0.7-0.5,1h5.4V423.2z M539.6,431.6h8.7v3.9h-1.2
			v-0.5h-7.5v0.5h-1.1v-8.2h8.8v3.2h-7.7V431.6z M539.6,428.3v1.4h6.5v-1.4H539.6z M539.6,432.6v1.6h7.5v-1.6H539.6z"/>
		<path d="M557.5,432.3c-1.7,0.6-3.5,1.2-5,1.7l-0.3-1.2c0.6-0.2,1.3-0.4,2.1-0.7v-4.3h-1.8v-1.1h1.8v-3.5h-2v-1.1h5v1.1h-1.8v3.5
			h1.6v1.1h-1.6v4l1.7-0.6L557.5,432.3z M567,434v1.1h-10.3V434h4.9v-2.2h-3.6v-1.1h3.6v-1.9h-3.4v-7.1h8.1v7.1h-3.5v1.9h3.7v1.1
			h-3.7v2.2H567z M559.2,424.8h2.4v-2h-2.4V424.8z M559.2,427.8h2.4v-2h-2.4V427.8z M565.1,422.7h-2.4v2h2.4V422.7z M565.1,425.8
			h-2.4v2h2.4V425.8z"/>
		<path d="M574.7,424.6h-5.6v-1h5.6V424.6z M574.3,434.7h-3.5v0.7h-1V430h4.5V434.7z M574.3,426.7h-4.5v-0.9h4.5V426.7z
			 M569.8,427.9h4.5v1h-4.5V427.9z M574.2,422.5h-4.4v-1h4.4V422.5z M570.8,431v2.7h2.5V431H570.8z M580.4,430.2
			c0.9,1.4,2.3,2.9,3.5,3.6c-0.3,0.2-0.6,0.6-0.8,0.9c-1.1-0.8-2.4-2.2-3.3-3.7v4.5h-1.2v-4.4c-0.9,1.5-2.2,2.9-3.5,3.7
			c-0.2-0.3-0.5-0.7-0.8-0.9c1.4-0.8,2.8-2.2,3.7-3.7h-3.2v-1.1h3.7v-1.3h-3.1v-6.2h7.5v6.2h-3.2v1.3h3.7v1.1H580.4z M576.6,424.3
			h2.1v-1.6h-2.1V424.3z M576.6,426.9h2.1v-1.6h-2.1V426.9z M581.9,422.6h-2.2v1.6h2.2V422.6z M581.9,425.2h-2.2v1.6h2.2V425.2z"/>
	</g>
	<g>
		<path d="M541.3,486.4c0,0,0,0.4,0,0.5c-0.1,5.3-0.2,7.1-0.6,7.6c-0.3,0.4-0.5,0.5-0.9,0.5c-0.4,0-1,0-1.7,0c0-0.3-0.1-0.8-0.3-1.1
			c0.7,0.1,1.2,0.1,1.5,0.1c0.2,0,0.4,0,0.5-0.2c0.3-0.4,0.4-1.9,0.5-6.4h-1.9c-0.2,3-0.7,5.8-2,7.6c-0.2-0.3-0.6-0.6-0.9-0.8
			c1.7-2.2,1.9-6.2,1.9-10.1h-1.7v-1.1h2.8v-2.6h1.1v2.6h2.8v1.1h-3.8c0,0.7,0,1.5-0.1,2.2H541.3z M543.9,483.8
			c-0.4,1-1,1.9-1.6,2.6c-0.2-0.2-0.7-0.6-0.9-0.8c1.1-1.2,1.9-3.1,2.4-5.1l1.2,0.2c-0.2,0.7-0.4,1.4-0.6,2h5.7v1.1H543.9z
			 M548.3,494c0.7,0,0.8-0.3,0.9-1.8c0.3,0.2,0.7,0.4,1,0.4c-0.1,1.9-0.5,2.4-1.8,2.4h-3.2c-1.6,0-2-0.4-2-1.8v-3.9l-1,0.4l-0.4-1
			l1.4-0.7v-2.5h1.1v2l1.5-0.7v-2.5h1v2l1.8-0.8l0.1-0.1l0.2-0.1l0.8,0.3l0,0.2c0,2.3,0,4.3-0.1,4.7c0,0.5-0.3,0.8-0.7,0.9
			c-0.4,0.1-0.8,0.1-1.2,0.1c0-0.3-0.1-0.7-0.3-0.9c0.3,0,0.7,0,0.8,0c0.2,0,0.3,0,0.3-0.3c0-0.2,0.1-1.6,0.1-3.6l-1.7,0.8v4.8h-1
			v-4.3l-1.5,0.7v4.4c0,0.6,0.1,0.7,1,0.7H548.3z"/>
		<path d="M558.3,484.1h-6v-1h6V484.1z M557.7,494.1H554v0.7h-1v-5.4h4.8V494.1z M553,485.3h4.7v0.9H553V485.3z M553,487.4h4.7v1
			H553V487.4z M557.7,482h-4.6v-1h4.6V482z M554,490.5v2.7h2.7v-2.7H554z M560.7,482.9c0,1.4-0.4,3.1-2,4.2
			c-0.2-0.2-0.6-0.6-0.9-0.8c1.5-1,1.8-2.3,1.8-3.4V481h5v3.9c0,0.4,0,0.4,0.3,0.4h0.8c0.3,0,0.4-0.2,0.4-1.7c0.2,0.2,0.7,0.4,1,0.4
			c-0.1,1.9-0.4,2.3-1.2,2.3h-1.1c-1,0-1.3-0.3-1.3-1.4V482h-2.7V482.9z M566.1,487.6c-0.5,2-1.5,3.5-2.7,4.7c1,0.8,2.3,1.4,3.7,1.7
			c-0.3,0.2-0.6,0.7-0.8,1c-1.5-0.4-2.7-1.1-3.8-2c-1.2,0.9-2.6,1.6-4,2c-0.1-0.3-0.4-0.8-0.6-1c1.4-0.4,2.7-0.9,3.8-1.8
			c-0.9-1-1.7-2.1-2.2-3.5l1.1-0.3c0.5,1.2,1.2,2.2,2.1,3.1c0.9-0.8,1.6-1.9,2.1-3.1h-6.1v-1.1h6.6l0.2,0L566.1,487.6z"/>
		<path d="M574.7,484.1h-5.6v-1h5.6V484.1z M574.3,494.1h-3.5v0.7h-1v-5.4h4.5V494.1z M574.3,486.2h-4.5v-0.9h4.5V486.2z
			 M569.8,487.4h4.5v1h-4.5V487.4z M574.2,482h-4.4v-1h4.4V482z M570.8,490.5v2.7h2.5v-2.7H570.8z M580.4,489.7
			c0.9,1.4,2.3,2.9,3.5,3.6c-0.3,0.2-0.6,0.6-0.8,0.9c-1.1-0.8-2.4-2.2-3.3-3.7v4.5h-1.2v-4.4c-0.9,1.5-2.2,2.9-3.5,3.7
			c-0.2-0.3-0.5-0.7-0.8-0.9c1.4-0.8,2.8-2.2,3.7-3.7h-3.2v-1.1h3.7v-1.3h-3.1v-6.2h7.5v6.2h-3.2v1.3h3.7v1.1H580.4z M576.6,483.7
			h2.1v-1.6h-2.1V483.7z M576.6,486.3h2.1v-1.6h-2.1V486.3z M581.9,482.1h-2.2v1.6h2.2V482.1z M581.9,484.7h-2.2v1.6h2.2V484.7z"/>
	</g>
	<g>
		<path d="M521.9,549.5c0.6-0.3,1.2-0.5,1.8-0.8l0.2,1.1c-1.7,0.8-3.5,1.6-4.9,2.2l-0.5-1.2c0.6-0.2,1.4-0.5,2.2-0.9v-5.1h-2v-1.1h2
			v-3.6h1.1v3.6h1.9v1.1h-1.9V549.5z M531.1,553.1c0.9,0,1.1-0.4,1.2-2.3c0.3,0.2,0.7,0.4,1.1,0.5c-0.2,2.2-0.6,2.9-2.2,2.9h-3.9
			c-1.8,0-2.4-0.4-2.4-2.1v-5l-1.3,0.5l-0.5-1l1.7-0.7v-4.4h1.1v3.9l2.1-0.9v-4.4h1.1v4l2.1-0.9l0.3-0.2l0.2-0.2l0.8,0.3l-0.1,0.2
			c0,3,0,5.4-0.2,6c-0.1,0.7-0.4,0.9-0.8,1.1c-0.4,0.1-1.1,0.1-1.5,0.1c0-0.3-0.1-0.8-0.3-1c0.4,0,0.9,0,1.1,0
			c0.2,0,0.4-0.1,0.5-0.4c0.1-0.4,0.1-2.2,0.1-4.7l-2.2,0.9v5.9h-1.1v-5.4l-2.1,0.9v5.5c0,0.8,0.2,1.1,1.2,1.1H531.1z"/>
		<path d="M540.1,550.2c-1.5,0.8-3,1.5-4.3,2.1l-0.5-1.2c0.5-0.2,1.1-0.5,1.8-0.8v-5.5h-1.7v-1.1h1.7v-3.7h1.1v3.7h1.5v1.1h-1.5v5
			c0.5-0.2,1-0.5,1.5-0.7L540.1,550.2z M545.3,551.1c-1.9,0.6-3.9,1.1-5.4,1.6l-0.3-1.1c1.4-0.3,3.6-0.9,5.6-1.5L545.3,551.1z
			 M549.6,545c-0.6,2.1-1.3,3.9-2.3,5.5c0.4,1.7,0.9,2.8,1.5,2.8c0.3,0,0.4-0.6,0.5-2.3c0.2,0.3,0.6,0.5,0.8,0.6
			c-0.2,2.1-0.5,2.8-1.5,2.8c-1,0-1.7-1-2.2-2.7c-0.8,1-1.7,1.9-2.7,2.6c-0.2-0.2-0.6-0.6-0.9-0.8c1.3-0.8,2.4-1.9,3.2-3.2
			c-0.4-1.9-0.6-4.4-0.7-7.1h-5.4v-1.1h5.3c0-0.8,0-1.6,0-2.3h1.2c0,0.8,0,1.6,0,2.3h2.5c-0.4-0.5-1.2-1.2-1.9-1.7l0.7-0.6
			c0.7,0.5,1.6,1.2,2,1.6l-0.7,0.7h0.8v1.1h-3.4c0.1,2.1,0.2,4,0.4,5.6c0.7-1.2,1.2-2.6,1.5-4.1L549.6,545z M544.5,544.8v4.6h-4
			v-4.6H544.5z M543.5,545.8h-2.1v2.7h2.1V545.8z"/>
		<path d="M555.6,551.3c0.8,1.2,2.2,1.7,4,1.8c1.8,0.1,5.4,0,7.4-0.1c-0.1,0.3-0.3,0.8-0.4,1.2c-1.8,0.1-5.2,0.1-7,0
			c-2.1-0.1-3.5-0.6-4.5-1.9c-0.7,0.7-1.4,1.4-2.2,2l-0.6-1.1c0.7-0.5,1.5-1.2,2.2-1.8v-4.1h-2v-1.1h3.2V551.3z M555.1,543.6
			c-0.5-0.8-1.6-1.9-2.5-2.7l0.9-0.7c1,0.7,2.1,1.8,2.6,2.6L555.1,543.6z M560.8,550.7h-4.5v-1h4.5v-1.1h-3.5v-5.2h3.5v-1.1h-4.3v-1
			h4.3v-1.4h1.2v1.4h4.5v1h-4.5v1.1h3.7v5.2h-3.7v1.1h4.8v1h-4.8v1.8h-1.2V550.7z M558.3,545.5h2.4v-1.3h-2.4V545.5z M560.8,547.7
			v-1.3h-2.4v1.3H560.8z M561.9,544.3v1.3h2.6v-1.3H561.9z M564.5,546.4h-2.6v1.3h2.6V546.4z"/>
		<path d="M574,547.7c-0.6,0.2-1.2,0.4-1.8,0.6v4.8c0,0.7-0.1,1-0.5,1.2c-0.4,0.2-1,0.2-2,0.2c0-0.3-0.2-0.8-0.4-1.1
			c0.7,0,1.3,0,1.5,0c0.2,0,0.3,0,0.3-0.3v-4.5c-0.7,0.2-1.3,0.4-1.9,0.6l-0.3-1.2c0.6-0.2,1.4-0.4,2.2-0.7v-3.3h-2v-1.1h2v-3.2h1.1
			v3.2h1.7v0.3c0.9-0.9,1.7-2.2,2.1-3.6l1,0.3c-0.2,0.5-0.4,1-0.6,1.5h2.3c0.3-0.6,0.6-1.2,0.8-1.7l1.2,0.3c-0.3,0.5-0.5,1-0.8,1.4
			h3.4v0.9h-3.5v1h3.1v0.8h-3.1v1h3.1v0.8h-3.1v1h3.6v0.9h-8.3v-4.3c-0.3,0.4-0.6,0.7-0.9,1c-0.1-0.1-0.3-0.3-0.5-0.5h-1.6v2.9
			c0.5-0.2,1.1-0.4,1.6-0.5L574,547.7z M583.5,550.7c-0.2,2.1-0.4,3-0.8,3.4c-0.3,0.2-0.6,0.3-1,0.4c-0.4,0-1.1,0-1.9,0
			c0-0.3-0.1-0.7-0.3-1c0.8,0.1,1.6,0.1,1.9,0.1c0.3,0,0.4,0,0.5-0.1c0.2-0.2,0.4-0.8,0.6-2.2h-2c-0.1,0.3-0.1,0.5-0.2,0.8l-1-0.2
			c0.2-0.5,0.3-1.2,0.5-1.9h-2c-0.3,2.4-1.4,3.8-3.4,4.7c-0.1-0.2-0.5-0.7-0.8-0.9c1.8-0.7,2.8-1.8,3-3.8h-2.2v-1h6.7
			c-0.1,0.4-0.2,0.9-0.3,1.4h3L583.5,550.7z M578.7,542.5h-2.5v1h2.5V542.5z M578.7,544.3h-2.5v1h2.5V544.3z M578.7,546.1h-2.5v1
			h2.5V546.1z"/>
		<path d="M591.5,543.5h-5.6v-1h5.6V543.5z M591.1,553.6h-3.5v0.7h-1v-5.4h4.5V553.6z M591.1,545.6h-4.5v-0.9h4.5V545.6z
			 M586.6,546.8h4.5v1h-4.5V546.8z M591,541.4h-4.4v-1h4.4V541.4z M587.6,549.9v2.7h2.5v-2.7H587.6z M597.2,549.1
			c0.9,1.4,2.3,2.9,3.5,3.6c-0.3,0.2-0.6,0.6-0.8,0.9c-1.1-0.8-2.4-2.2-3.3-3.7v4.5h-1.2V550c-0.9,1.5-2.2,2.9-3.5,3.7
			c-0.2-0.3-0.5-0.7-0.8-0.9c1.4-0.8,2.8-2.2,3.7-3.7h-3.2v-1.1h3.7v-1.3h-3.1v-6.2h7.5v6.2h-3.2v1.3h3.7v1.1H597.2z M593.4,543.1
			h2.1v-1.6h-2.1V543.1z M593.4,545.8h2.1v-1.6h-2.1V545.8z M598.7,541.5h-2.2v1.6h2.2V541.5z M598.7,544.1h-2.2v1.6h2.2V544.1z"/>
	</g>
	<g>
		<path class="st2" d="M717,888.4c1.1,0,2,0.9,2,2v34c0,1.1-0.9,2-2,2H483c-1.1,0-2-0.9-2-2v-34c0-1.1,0.9-2,2-2H717 M717,887.4H483
			c-1.6,0-3,1.3-3,3v34c0,1.6,1.4,3,3,3h234c1.7,0,3-1.4,3-3v-34C720,888.7,718.7,887.4,717,887.4L717,887.4z"/>
	</g>
	<g>
		<path d="M506.4,904.3c-0.1,0.2-0.2,0.4-0.4,0.7h4.3c0.4,0,0.8,0,1-0.1l1.1,0.6c-0.1,0.2-0.3,0.6-0.4,0.8c-0.4,1.6-1.4,3.8-2.8,5.5
			c-1.5,1.8-3.4,3.2-6.4,4.4l-1.2-1.1c2.9-0.9,4.9-2.3,6.4-4c1.2-1.5,2.2-3.5,2.5-5h-5.4c-1,1.4-2.3,2.8-4.1,3.9l-1.1-0.8
			c2.8-1.6,4.3-4,5-5.4c0.2-0.3,0.4-0.9,0.5-1.3l1.5,0.5C506.9,903.5,506.6,904,506.4,904.3z M512.8,904.5l-0.9,0.4
			c-0.3-0.6-0.9-1.6-1.3-2.2l0.8-0.4C511.8,902.9,512.4,903.8,512.8,904.5z M514.6,903.8l-0.9,0.4c-0.4-0.7-0.9-1.6-1.3-2.2l0.8-0.4
			C513.6,902.2,514.2,903.2,514.6,903.8z"/>
		<path d="M519.8,910.7c0.5-1.5,0.5-4.7,0.5-6.4c0-0.5,0-0.8-0.1-1.2h1.5c0,0.2-0.1,0.7-0.1,1.2c0,1.8-0.1,5.2-0.5,6.8
			c-0.5,1.7-1.5,3.3-2.8,4.4l-1.2-0.8C518.4,913.7,519.4,912.3,519.8,910.7z M524.5,913.9v-9.6c0-0.6-0.1-1.1-0.1-1.2h1.5
			c0,0.1-0.1,0.6-0.1,1.2v9.2c1.5-0.7,3.4-2.1,4.7-3.9l0.8,1.1c-1.4,1.9-3.6,3.5-5.5,4.4c-0.3,0.1-0.4,0.3-0.5,0.4l-0.8-0.7
			C524.5,914.5,524.5,914.2,524.5,913.9z"/>
		<path d="M536.7,908.2h8.8c0.8,0,1.4,0,1.7-0.1v1.6c-0.3,0-1-0.1-1.7-0.1h-8.8c-0.9,0-1.7,0-2.2,0.1v-1.6
			C534.9,908.2,535.8,908.2,536.7,908.2z"/>
		<path d="M563.5,901.8c1,0,1.8,0.8,1.8,1.8c0,1-0.8,1.8-1.8,1.8c-0.2,0-0.4,0-0.6-0.1c0,0,0,0.1,0,0.2c-0.3,1.7-1.1,4.3-2.4,5.9
			c-1.5,1.9-3.4,3.4-6.3,4.3l-1.1-1.2c3.1-0.8,4.9-2.1,6.2-3.8c1.1-1.5,1.9-3.7,2.1-5.2h-8.2c-0.6,0-1.2,0-1.6,0V904
			c0.4,0.1,1.1,0.1,1.6,0.1h8c0.1,0,0.3,0,0.5,0c0-0.2-0.1-0.3-0.1-0.5C561.7,902.6,562.5,901.8,563.5,901.8z M563.5,904.7
			c0.6,0,1.1-0.5,1.1-1.1c0-0.6-0.5-1.1-1.1-1.1c-0.6,0-1.1,0.5-1.1,1.1C562.5,904.2,563,904.7,563.5,904.7z"/>
		<path d="M580.9,905.4c-1.2,1.9-3.2,4.5-5.8,6.5c1,1,2.1,2.2,2.7,2.9l-1.2,0.9c-0.6-0.8-1.9-2.2-2.9-3.3c-1-1-2.8-2.6-3.7-3.2
			l1-0.8c0.6,0.4,1.9,1.5,3,2.5c2.4-1.8,4.2-4.1,5-5.6h-9.4c-0.6,0-1.3,0.1-1.6,0.1v-1.4c0.4,0.1,1.1,0.1,1.6,0.1h9.5
			c0.4,0,0.8,0,1-0.1l1,0.8C581.1,905.1,581,905.3,580.9,905.4z"/>
		<path d="M587.1,908.2h8.8c0.8,0,1.4,0,1.7-0.1v1.6c-0.3,0-1-0.1-1.7-0.1h-8.8c-0.9,0-1.7,0-2.2,0.1v-1.6
			C585.3,908.2,586.2,908.2,587.1,908.2z"/>
		<path d="M606.2,903.8c-0.2,0.5-0.4,1-0.6,1.6h7.6c0.4,0,1,0,1.5-0.1v1.4c-0.5,0-1.1,0-1.5,0h-2.7c-0.3,4.6-2,7.3-4.8,9l-1.4-0.9
			c0.4-0.2,0.9-0.4,1.3-0.7c1.6-1.2,3.3-3.3,3.5-7.3H605c-0.7,1.2-1.7,2.7-2.7,3.4l-1.3-0.8c1.2-0.8,2.3-2.5,2.8-3.4
			c0.4-0.8,0.7-1.6,0.9-2.2c0.1-0.4,0.2-0.9,0.2-1.3l1.5,0.3C606.5,903.1,606.3,903.5,606.2,903.8z"/>
		<path d="M619.7,907.3h10.5c0.3,0,0.9,0,1.2-0.1v1.3c-0.4,0-0.9,0-1.2,0h-4.4c0,1.7-0.3,3.2-0.9,4.4c-0.6,1.1-1.8,2.2-3.2,2.9
			l-1.2-0.9c1.2-0.5,2.4-1.4,3-2.4c0.7-1.1,0.9-2.5,0.9-4h-4.8c-0.5,0-0.9,0-1.4,0v-1.3C618.8,907.3,619.2,907.3,619.7,907.3z
			 M621.7,903.3h6.5c0.4,0,1,0,1.5-0.1v1.3c-0.5,0-1,0-1.5,0h-6.5c-0.5,0-1.1,0-1.5,0v-1.3C620.7,903.3,621.2,903.3,621.7,903.3z"/>
		<path d="M641.3,908.5c1.5-0.9,3-2.2,3.8-3.3l1,1c-0.8,0.9-2.2,2-3.6,3v5.7c0,0.5,0,1.2,0.1,1.4h-1.5c0-0.3,0.1-0.9,0.1-1.4V910
			c-1.3,0.7-3.2,1.6-5,2.1l-0.6-1.2C637.7,910.5,640,909.3,641.3,908.5z"/>
		<path d="M659.1,911.7c2.5-1.6,4.4-3.9,5.3-5.9l0.8,1.4c-1.1,2-3,4.2-5.4,5.7c-1.6,1-3.6,2-6.3,2.5l-0.8-1.3
			C655.5,913.7,657.5,912.7,659.1,911.7z M658.1,906.7l-1,1c-0.8-0.8-2.8-2.5-4-3.3l0.9-1C655.2,904.1,657.2,905.8,658.1,906.7z"/>
		<path d="M674.4,904.3c-0.1,0.2-0.2,0.4-0.4,0.7h4.3c0.4,0,0.8,0,1-0.1l1.1,0.6c-0.1,0.2-0.3,0.6-0.4,0.8c-0.4,1.6-1.4,3.8-2.8,5.5
			c-1.5,1.8-3.4,3.2-6.4,4.4l-1.2-1.1c2.9-0.9,4.9-2.3,6.4-4c1.2-1.5,2.2-3.5,2.5-5h-5.4c-1,1.4-2.3,2.8-4.1,3.9l-1.1-0.8
			c2.8-1.6,4.3-4,5-5.4c0.2-0.3,0.4-0.9,0.5-1.3l1.5,0.5C674.9,903.5,674.6,904,674.4,904.3z M680.8,904.5l-0.9,0.4
			c-0.3-0.6-0.9-1.6-1.3-2.2l0.8-0.4C679.8,902.9,680.4,903.8,680.8,904.5z M682.6,903.8l-0.9,0.4c-0.4-0.7-0.9-1.6-1.3-2.2l0.8-0.4
			C681.6,902.2,682.2,903.2,682.6,903.8z"/>
		<path d="M684.7,907.9h8.2v1.1h-8.2V907.9z M692.7,904.5h-7.6v-1h3.2v-1.7h1.1v1.7h3.2V904.5z M685.8,910.3h6.3v5.9h-1.2v-0.8h-4
			v0.9h-1.1V910.3z M686.8,907.7c-0.1-0.7-0.4-1.8-0.7-2.6l1-0.2c0.4,0.8,0.7,1.9,0.7,2.6L686.8,907.7z M686.9,911.4v2.9h4v-2.9
			H686.9z M689.8,907.5c0.3-0.7,0.7-1.9,0.9-2.7l1.1,0.3c-0.3,0.9-0.7,2-1.1,2.7L689.8,907.5z M699.3,903.1
			c-0.7,1.5-1.5,3.3-2.2,4.8c1.6,1.5,2,2.7,2,3.9c0,1-0.2,1.7-0.8,2.1c-0.3,0.2-0.6,0.3-1,0.4c-0.4,0-0.9,0-1.4,0
			c0-0.3-0.1-0.8-0.3-1.2c0.5,0,0.9,0,1.3,0c0.2,0,0.5-0.1,0.7-0.2c0.3-0.2,0.4-0.7,0.4-1.3c0-1-0.4-2.2-2.1-3.6
			c0.7-1.3,1.4-3.1,1.9-4.4h-3v12.5h-1.2v-13.7h4.7l0.2,0L699.3,903.1z"/>
	</g>
	<g>
		<path d="M214,293.2c-0.5,1.8-1.3,3.2-2.4,4.2c1.8,0.7,3.4,1.5,4.5,2.2l-0.9,1c-1.1-0.8-2.8-1.6-4.6-2.4c-1.7,1.2-3.9,1.9-6.7,2.4
			c-0.1-0.3-0.5-0.8-0.7-1.1c2.6-0.3,4.6-0.9,6.2-1.8c-1.1-0.4-2.1-0.8-3.1-1.1c-0.1,0.2-0.3,0.5-0.4,0.7l-1.2-0.3
			c0.6-1,1.4-2.4,2.1-3.8h-3.9v-1.1h4.5c0.4-0.9,0.9-1.8,1.3-2.6l1.2,0.3c-0.3,0.7-0.7,1.5-1.1,2.3h8.3v1.1H214z M204.4,291.1h-1.2
			v-3.4h5.9V286h1.2v1.7h6.1v3.4h-1.2v-2.3h-10.8V291.1z M208,293.2c-0.4,0.9-0.9,1.7-1.3,2.5c1.2,0.4,2.4,0.8,3.7,1.2
			c1.1-0.9,1.8-2.1,2.2-3.7H208z"/>
		<path d="M227.1,285.9c1.7,2.3,4.5,4.7,6.9,5.9c-0.3,0.3-0.6,0.7-0.8,1.1c-2.4-1.4-5.2-3.8-6.7-5.8c-1.3,1.9-3.9,4.3-6.5,5.9
			c-0.1-0.3-0.5-0.7-0.7-0.9c2.7-1.5,5.4-4,6.6-6.1H227.1z M227.2,299.1h6.2v1.1h-13.5v-1.1h6.1v-2.6h-4.8v-1.1h4.8v-2.5h-4v-1.1
			h9.5v1.1h-4.2v2.5h4.8v1.1h-4.8V299.1z"/>
		<path d="M250.7,288.2h-3.5c0.4,0.4,0.7,0.9,0.9,1.3l-1.1,0.4c-0.2-0.5-0.6-1.1-1.1-1.7h-1.3c-0.3,0.4-0.6,0.7-0.9,1h0.2v1.2h6.2v3
			H249v-2h-11.1v2h-1.1v-3h6v-1c-0.2-0.1-0.5-0.3-0.7-0.4c0.4-0.3,0.7-0.5,1-0.9h-2.8c0.3,0.5,0.5,1,0.6,1.3l-1.1,0.3
			c-0.1-0.4-0.4-1.1-0.8-1.6h-0.7c-0.4,0.7-0.9,1.2-1.4,1.7c-0.2-0.2-0.7-0.5-1-0.6c1-0.8,1.8-2.1,2.3-3.3l1.1,0.3
			c-0.1,0.3-0.3,0.7-0.5,1h4.2v0.9c0.6-0.7,1.1-1.4,1.4-2.2l1.1,0.3c-0.1,0.3-0.3,0.7-0.5,1h5.4V288.2z M240.2,296.6h8.7v3.9h-1.2
			v-0.5h-7.5v0.5h-1.1v-8.2h8.8v3.2h-7.7V296.6z M240.2,293.3v1.4h6.5v-1.4H240.2z M240.2,297.6v1.6h7.5v-1.6H240.2z"/>
		<path d="M258.1,297.3c-1.7,0.6-3.5,1.2-5,1.7l-0.3-1.2c0.6-0.2,1.3-0.4,2.1-0.7v-4.3h-1.8v-1.1h1.8v-3.5h-2v-1.1h5v1.1h-1.8v3.5
			h1.6v1.1h-1.6v4l1.7-0.6L258.1,297.3z M267.6,299v1.1h-10.3V299h4.9v-2.2h-3.6v-1.1h3.6v-1.9h-3.4v-7.1h8.1v7.1h-3.5v1.9h3.7v1.1
			h-3.7v2.2H267.6z M259.8,289.8h2.4v-2h-2.4V289.8z M259.8,292.8h2.4v-2h-2.4V292.8z M265.7,287.7h-2.4v2h2.4V287.7z M265.7,290.8
			h-2.4v2h2.4V290.8z"/>
		<path d="M217.6,314.3c-0.3,0.4-0.5,0.8-0.8,1.3h8.7v1h-3.3c-0.4,1-1.1,1.8-1.9,2.4c1.8,0.5,3.5,1,4.7,1.5l-0.7,1
			c-1.3-0.6-3.2-1.2-5.2-1.7c-1.8,1-4.2,1.5-7.4,1.7c-0.1-0.3-0.3-0.8-0.5-1.1c2.6-0.1,4.6-0.5,6.1-1.1c-0.9-0.2-1.9-0.4-2.9-0.6
			l-0.3,0.4l-1.1-0.4c0.5-0.6,1-1.4,1.6-2.3H211v-1h4.4c0.4-0.6,0.8-1.2,1.1-1.7L217.6,314.3v-3c-1.5,1.6-3.9,3-6,3.6
			c-0.1-0.3-0.5-0.7-0.7-0.9c1.9-0.5,4-1.6,5.4-2.8h-5.1v-1h6.4v-1.6c-1.7,0.1-3.5,0.2-5.1,0.2c0-0.3-0.2-0.7-0.3-0.9
			c3.6-0.1,8.1-0.4,10.5-1l0.9,0.8c-1.3,0.3-3,0.5-4.9,0.7v1.7h6.5v1h-5.1c1.4,1.2,3.5,2.1,5.4,2.6c-0.3,0.3-0.6,0.7-0.8,1
			c-2.2-0.7-4.5-2-6.1-3.5v3.1L217.6,314.3L217.6,314.3z M216.1,316.6c-0.3,0.4-0.6,0.9-0.9,1.3c1.2,0.2,2.5,0.5,3.7,0.8
			c0.8-0.5,1.5-1.2,2-2.1H216.1z"/>
		<path d="M232.5,318.9l1.1,0.7c-1.3,0.8-3.3,1.6-5,2c-0.2-0.2-0.6-0.6-0.9-0.9C229.3,320.3,231.4,319.6,232.5,318.9h-3.1v-6.9h11.3
			v6.9H232.5z M240.1,311.2h-10v-3.6h10V311.2z M230.6,314.1h8.9V313h-8.9V314.1z M230.6,316.1h8.9v-1.1h-8.9V316.1z M230.6,318.1
			h8.9v-1.2h-8.9V318.1z M238.8,308.5h-7.6v1.7h7.6V308.5z M237.3,319c1.6,0.5,3.8,1.3,5,1.8l-1,0.9c-1.2-0.6-3.3-1.4-5-1.9
			L237.3,319z"/>
		<path d="M252.3,307c1.7,2.4,4.5,4.4,7,5.5c-0.3,0.3-0.6,0.7-0.8,1.1c-2.5-1.2-5.3-3.3-6.8-5.4c-1.3,1.9-3.9,4.1-6.6,5.5
			c-0.1-0.3-0.4-0.7-0.7-0.9c2.7-1.3,5.4-3.6,6.6-5.6H252.3z M245.3,315h13.2v1.1h-7.5c-0.6,1.2-1.2,2.6-1.9,3.7
			c2-0.1,4.2-0.1,6.5-0.2c-0.7-0.8-1.4-1.5-2.1-2.2l1-0.5c1.5,1.3,3,3,3.8,4.2l-1.1,0.7c-0.2-0.3-0.4-0.7-0.7-1.1
			c-3.9,0.2-8.1,0.4-10.8,0.5l-0.2-1.2c0.7,0,1.5,0,2.4-0.1c0.6-1.1,1.3-2.6,1.7-3.7h-4.2V315z M255.6,311.9v1.1H248v-1.1H255.6z"/>
	</g>
	<g>
		<path class="st2" d="M797,648.4c1.1,0,2,0.9,2,2v34c0,1.1-0.9,2-2,2H523c-1.1,0-2-0.9-2-2v-34c0-1.1,0.9-2,2-2H797 M797,647.4H523
			c-1.7,0-3,1.3-3,3v34c0,1.6,1.3,3,3,3h274c1.7,0,3-1.4,3-3v-34C800,648.7,798.7,647.4,797,647.4L797,647.4z"/>
	</g>
	<g>
		<path class="st2" d="M797,708.4c1.1,0,2,0.9,2,2v34c0,1.1-0.9,2-2,2H523c-1.1,0-2-0.9-2-2v-34c0-1.1,0.9-2,2-2H797 M797,707.4H523
			c-1.7,0-3,1.3-3,3v34c0,1.6,1.3,3,3,3h274c1.7,0,3-1.4,3-3v-34C800,708.7,798.7,707.4,797,707.4L797,707.4z"/>
	</g>
	<g>
		<path class="st2" d="M797,768.4c1.1,0,2,0.9,2,2v34c0,1.1-0.9,2-2,2H523c-1.1,0-2-0.9-2-2v-34c0-1.1,0.9-2,2-2H797 M797,767.4H523
			c-1.7,0-3,1.3-3,3v34c0,1.6,1.3,3,3,3h274c1.7,0,3-1.4,3-3v-34C800,768.7,798.7,767.4,797,767.4L797,767.4z"/>
	</g>
	<g>
		<path class="st2" d="M797,828.4c1.1,0,2,0.9,2,2v34c0,1.1-0.9,2-2,2H523c-1.1,0-2-0.9-2-2v-34c0-1.1,0.9-2,2-2H797 M797,827.4H523
			c-1.7,0-3,1.3-3,3v34c0,1.6,1.3,3,3,3h274c1.7,0,3-1.4,3-3v-34C800,828.7,798.7,827.4,797,827.4L797,827.4z"/>
	</g>
	<g>
		<path d="M571.6,663.8c-0.5,1.4-1.6,3.2-2.7,4.7c1.7,1.4,3.6,3.5,4.7,4.8l-1.1,1c-1.1-1.4-2.8-3.3-4.4-4.8
			c-1.7,1.8-3.9,3.6-6.2,4.7l-1-1.1c2.6-1,4.9-2.9,6.6-4.8c1.1-1.2,2.3-3.1,2.7-4.4h-6.2c-0.6,0-1.4,0.1-1.6,0.1v-1.5
			c0.2,0,1.1,0.1,1.6,0.1h6.2c0.5,0,0.9,0,1.2-0.1l0.8,0.6C571.9,663.2,571.7,663.5,571.6,663.8z"/>
		<path d="M578.1,672.3l-1.1-0.7c1.1-1,2.4-2.9,3.1-4.2l1.1,0.5C580.5,669.3,579,671.3,578.1,672.3z M584.6,662.6v1.6h4.2
			c0.4,0,0.9,0,1.3-0.1v1.3c-0.4,0-0.9,0-1.3,0h-4.2v7.7c0,0.8-0.4,1.3-1.4,1.3c-0.7,0-1.6,0-2.3-0.1l-0.1-1.3
			c0.7,0.1,1.4,0.2,1.8,0.2c0.4,0,0.6-0.2,0.6-0.6v-7.2h-4.5c-0.5,0-0.9,0-1.4,0v-1.3c0.4,0,0.8,0.1,1.4,0.1h4.5v-1.6
			c0-0.4,0-0.9-0.1-1.1h1.5C584.6,661.6,584.6,662.2,584.6,662.6z M590.6,671.5l-1.2,0.7c-0.6-1.2-1.8-3.2-2.7-4.3l1.1-0.6
			C588.7,668.4,590,670.4,590.6,671.5z M589.1,660.2c1,0,1.8,0.8,1.8,1.8c0,1-0.8,1.7-1.8,1.7c-1,0-1.7-0.8-1.7-1.7
			C587.3,661,588.1,660.2,589.1,660.2z M589.1,663c0.6,0,1-0.4,1-1c0-0.6-0.5-1-1-1c-0.6,0-1,0.5-1,1
			C588.1,662.5,588.5,663,589.1,663z"/>
		<path d="M596.7,666.9h8.8c0.8,0,1.4,0,1.7-0.1v1.6c-0.3,0-1-0.1-1.7-0.1h-8.8c-0.9,0-1.7,0-2.2,0.1v-1.6
			C594.9,666.9,595.8,666.9,596.7,666.9z"/>
		<path d="M614.2,667.1l-1.3,0.5c-0.3-1-1.4-3.7-1.8-4.4l1.3-0.5C612.8,663.6,613.9,666,614.2,667.1z M623.7,663.7
			c-0.5,2-1.3,4.3-2.7,6c-1.6,2.2-4,3.8-6.3,4.6l-1.1-1.1c2.3-0.7,4.7-2.2,6.3-4.3c1.3-1.6,2.2-4.2,2.6-6.6l1.5,0.4
			C623.9,663,623.8,663.4,623.7,663.7z M618.5,665.9l-1.2,0.4c-0.3-0.9-1.2-3.4-1.6-4.2l1.2-0.4C617.3,662.5,618.2,665,618.5,665.9z
			"/>
		<path d="M634.1,662.6c0,0.6,0,1.1-0.1,1.6h3.8c0.4,0,0.8,0,1-0.1l0.9,0.4c0,0.3-0.1,0.6-0.1,0.8c-0.1,1.5-0.3,6.2-1,7.7
			c-0.3,0.7-0.8,1-1.7,1c-0.8,0-1.7,0-2.6-0.1l-0.2-1.3c0.9,0.1,1.7,0.2,2.4,0.2c0.5,0,0.8-0.1,0.9-0.5c0.6-1.2,0.8-5.2,0.8-6.9
			h-4.5c-0.6,4.6-2.2,7-4.9,8.9l-1.2-0.9c0.5-0.3,1.2-0.7,1.6-1.2c1.6-1.4,2.7-3.4,3.2-6.7H630c-0.6,0-1.3,0-1.8,0.1v-1.3
			c0.6,0,1.2,0.1,1.8,0.1h2.8c0-0.5,0.1-1.1,0.1-1.6c0-0.4,0-1-0.1-1.3h1.5C634.2,661.7,634.1,662.3,634.1,662.6z M639.8,663.4
			l-0.9,0.4c-0.3-0.6-0.9-1.6-1.3-2.2l0.8-0.4C638.9,661.8,639.4,662.8,639.8,663.4z M641.5,662.7l-0.8,0.4
			c-0.4-0.7-0.9-1.6-1.3-2.2l0.8-0.4C640.6,661.2,641.3,662.2,641.5,662.7z"/>
		<path d="M647.1,666.9h8.8c0.8,0,1.4,0,1.7-0.1v1.6c-0.3,0-1-0.1-1.7-0.1h-8.8c-0.9,0-1.7,0-2.2,0.1v-1.6
			C645.3,666.9,646.2,666.9,647.1,666.9z"/>
		<path d="M662.7,666.2h10.5c0.3,0,0.9,0,1.2-0.1v1.3c-0.4,0-0.9,0-1.2,0h-4.4c0,1.7-0.3,3.2-0.9,4.4c-0.6,1.1-1.8,2.2-3.2,2.9
			l-1.2-0.9c1.2-0.5,2.4-1.4,3-2.4c0.7-1.1,0.9-2.4,0.9-4h-4.8c-0.5,0-0.9,0-1.4,0v-1.3C661.8,666.1,662.2,666.2,662.7,666.2z
			 M664.7,662.2h5.5c0.5,0,1,0,1.5-0.1v1.3c-0.5,0-1,0-1.5,0h-5.5c-0.5,0-1.1,0-1.5,0v-1.3C663.7,662.1,664.2,662.2,664.7,662.2z
			 M673.9,663l-0.9,0.4c-0.3-0.7-0.9-1.6-1.3-2.2l0.8-0.4C673,661.3,673.6,662.3,673.9,663z M675.7,662.3l-0.9,0.4
			c-0.4-0.7-0.9-1.6-1.3-2.2l0.8-0.4C674.7,660.7,675.4,661.7,675.7,662.3z"/>
		<path d="M685.5,670.4c2.5-1.6,4.4-3.9,5.3-5.9l0.8,1.4c-1.1,2-3,4.2-5.4,5.7c-1.6,1-3.6,2-6.3,2.5l-0.8-1.3
			C681.9,672.3,683.9,671.4,685.5,670.4z M684.5,665.3l-1,1c-0.8-0.8-2.8-2.5-4-3.3l0.9-1C681.6,662.8,683.6,664.4,684.5,665.3z"/>
		<path d="M699.2,669c-0.2-0.5-0.8-1.6-1.2-2.4v8.4h-1.2v-7.8c-0.5,1.8-1.3,3.5-2,4.6c-0.1-0.3-0.4-0.8-0.7-1.1c1-1.3,2-3.9,2.5-6
			h-2.2v-1.1h2.3v-3.1h1.2v3.1h2v1.1h-2v0.5c0.4,0.6,1.7,2.6,2,3.1L699.2,669z M705.8,668.3c0.8,1.9,2.1,3.8,3.4,4.8
			c-0.3,0.2-0.7,0.6-0.9,0.9c-1.2-1.1-2.4-3-3.3-5v5.9h-1.2v-5.7c-1,2-2.4,3.9-3.9,5c-0.2-0.3-0.5-0.7-0.8-0.9c1.6-1,3.1-2.9,4-4.9
			h-3.1v-1.1h3.8v-2.8h-2c-0.3,0.9-0.6,1.7-1,2.4c-0.2-0.2-0.7-0.5-1-0.6c0.8-1.2,1.4-3.2,1.6-5.1l1.1,0.2c-0.1,0.7-0.3,1.4-0.4,2
			h1.7v-3h1.2v3h3.1v1.1h-3.1v2.8h3.7v1.1H705.8z"/>
		<path d="M720.8,664.5c0.4,5.4,1.6,9.3,3.2,9.3c0.4,0,0.6-0.9,0.7-3c0.3,0.3,0.7,0.5,1.1,0.7c-0.2,2.8-0.7,3.6-1.9,3.6
			c-2.6,0-3.9-4.6-4.4-10.5h-8.3v-1.2h8.2c0-0.9-0.1-1.9-0.1-2.9h1.2c0,1,0,2,0.1,2.9h4.7v1.2H720.8z M715.9,672.4
			c1.1-0.2,2.3-0.5,3.4-0.7l0.1,1c-2.7,0.7-5.6,1.3-7.7,1.8l-0.4-1.2c0.9-0.2,2.1-0.4,3.3-0.7V668h-2.8v-1.2h7v1.2h-3V672.4z
			 M724,663.1c-0.5-0.6-1.5-1.4-2.3-2l0.8-0.7c0.8,0.5,1.8,1.4,2.3,1.9L724,663.1z"/>
		<path d="M735.7,660.4c1.7,2.4,4.5,4.4,7,5.5c-0.3,0.3-0.6,0.7-0.8,1.1c-2.5-1.2-5.3-3.3-6.8-5.4c-1.3,1.9-3.9,4.1-6.6,5.5
			c-0.1-0.3-0.4-0.7-0.7-0.9c2.7-1.3,5.4-3.6,6.6-5.6H735.7z M728.7,668.3h13.2v1.1h-7.5c-0.6,1.2-1.2,2.6-1.9,3.7
			c2-0.1,4.2-0.1,6.5-0.2c-0.7-0.8-1.4-1.5-2.1-2.2l1-0.5c1.5,1.3,3,3,3.8,4.2l-1.1,0.7c-0.2-0.3-0.4-0.7-0.7-1.1
			c-3.9,0.2-8.1,0.4-10.8,0.5l-0.2-1.2c0.7,0,1.5,0,2.4-0.1c0.6-1.1,1.3-2.6,1.7-3.7h-4.2V668.3z M739,665.3v1.1h-7.6v-1.1H739z"/>
		<path d="M750.6,670.4c-0.4-0.5-1.3-1.4-2-2v6.6h-1.2v-6.2c-0.8,0.8-1.6,1.5-2.4,2c-0.1-0.3-0.4-0.8-0.6-1.1c1.9-1.1,3.9-3.1,5-5.3
			h-4.5v-1.1h2.5v-3h1.2v3h1.4l0.2,0l0.7,0.4c-0.5,1.2-1.2,2.4-2.1,3.5c0.8,0.6,2.2,1.8,2.6,2.2L750.6,670.4z M759.5,673.4v1.2h-9
			v-1.2h4v-6.6h-3.4v-1.2h3.4v-5.1h1.2v5.1h3.4v1.2h-3.4v6.6H759.5z"/>
	</g>
	<g>
		<path class="st2" d="M182,648.4c1.1,0,2,0.9,2,2v34c0,1.1-0.9,2-2,2H3c-1.1,0-2-0.9-2-2v-34c0-1.1,0.9-2,2-2H182 M182,647.4H3
			c-1.6,0-3,1.3-3,3v34c0,1.6,1.4,3,3,3h179c1.6,0,3-1.4,3-3v-34C185,648.7,183.6,647.4,182,647.4L182,647.4z"/>
	</g>
	<g>
		<path d="M20.7,665.7v9.3h-1.1v-9.3h-2v-1.1h2v-4.2h1.1v4.2h1.9v1.1H20.7z M32.3,671.1h-2.5v2.6c0,0.6-0.1,0.9-0.6,1.1
			c-0.4,0.2-1.2,0.2-2.3,0.2c0-0.3-0.2-0.7-0.4-1c0.8,0,1.6,0,1.8,0c0.2,0,0.3-0.1,0.3-0.3v-2.6h-6.8v-1h6.8V669h-5.6v-4.9h3.6v-1
			h-4.4v-1h4.4v-1.8h1.1v1.8h2.8c-0.5-0.4-1.3-0.8-2-1.2l0.6-0.7c0.8,0.3,1.8,0.9,2.3,1.3l-0.4,0.5h1.1v1h-4.4v1h3.7v4.9h-1.7v1.1
			h2.5V671.1z M24.4,671.2c0.8,0.6,1.7,1.4,2.1,2.1l-0.9,0.7c-0.4-0.6-1.3-1.5-2-2.1L24.4,671.2z M24.2,666.2h2.5V665h-2.5V666.2z
			 M24.2,668.2h2.5V667h-2.5V668.2z M27.8,665v1.2h2.6V665H27.8z M30.4,667h-2.6v1.2h2.6V667z"/>
		<path d="M42.8,670.4c1.2,2,3.3,3.1,6.4,3.5c-0.3,0.3-0.6,0.8-0.8,1.1c-3.2-0.6-5.3-1.9-6.6-4.2c-0.7,1.7-2.5,3.2-6.7,4.2
			c-0.1-0.3-0.5-0.7-0.7-1c4-0.9,5.6-2.2,6.2-3.6h-6v-1.1h1.6v-3.7H41v-1.8h1.2v1.8h4.9v3.7h1.6v1.1H42.8z M38.2,662.9h-3.4v-1.1
			h3.4v-1.5h1.2v1.5h4.5v-1.5h1.2v1.5h3.4v1.1h-3.4v1.6h-1.2v-1.6h-4.5v1.6h-1.2V662.9z M41,669.3c0.1-0.4,0.1-0.8,0.1-1.2v-1.5
			h-3.6v2.7H41z M42.2,666.7v1.5c0,0.4,0,0.8-0.1,1.1H46v-2.7H42.2z"/>
		<path d="M60.3,662.7c-0.4,0.6-0.7,1.2-1.1,1.8v10.5h-1.3V666c-1.6,1.8-3.6,3.5-5.8,4.7c-0.2-0.3-0.6-0.8-0.8-1
			c3.2-1.6,5.9-4.2,7.5-7h-7.1v-1.2h13.7v1.2H60.3z M60.3,665.4c1.9,1.2,4.3,3,5.5,4.2l-0.9,0.9c-1.1-1.2-3.5-3.1-5.4-4.4
			L60.3,665.4z"/>
		<path d="M82.3,664.1c0,0,0,0.4,0,0.6c-0.2,6.7-0.3,8.9-0.9,9.6c-0.3,0.4-0.6,0.5-1.1,0.6c-0.4,0.1-1.2,0-1.9,0
			c0-0.3-0.2-0.8-0.3-1.1c0.8,0.1,1.5,0.1,1.8,0.1c0.3,0,0.4,0,0.6-0.3c0.4-0.5,0.6-2.6,0.7-8.4h-2.3c-0.2,4.3-0.9,7.7-3.7,9.9
			c-0.2-0.3-0.6-0.7-0.9-0.8c0.3-0.2,0.5-0.4,0.7-0.6c-2.4,0.3-4.9,0.6-6.7,0.8l-0.2-1c1-0.1,2.2-0.2,3.5-0.3v-1.4h-3v-0.9h3v-1h-3
			V665h3v-1H68v-0.9h3.5V662c-1,0.1-2.1,0.1-3,0.2c0-0.3-0.2-0.6-0.3-0.9c2.4-0.1,5.2-0.4,6.9-0.8l0.6,0.9c-0.9,0.2-2,0.3-3.1,0.5
			v1.2H76v0.9h-3.4v1h3.1v4.8h-3.1v1h3.1v0.9h-3.1v1.3c1-0.1,2.1-0.2,3.2-0.3v0.1c1.4-1.9,1.8-4.5,2-7.5h-1.9v-1.1h1.9
			c0-1.1,0-2.3,0-3.5h1.1c0,1.2,0,2.4,0,3.5H82.3z M69.5,667h2v-1.2h-2V667z M71.5,668.9v-1.2h-2v1.2H71.5z M72.6,665.8v1.2h2.1
			v-1.2H72.6z M74.7,667.8h-2.1v1.2h2.1V667.8z"/>
		<path d="M99.2,665.1v1.1H87.3v1.4c0,2.1-0.3,5.2-1.7,7.4c-0.2-0.2-0.7-0.6-0.9-0.8c1.3-2,1.5-4.7,1.5-6.6v-2.5h3.1
			c-0.1-0.6-0.5-1.4-0.8-2.1l0.8-0.2h-3.3v-1h5.6v-1.4h1.2v1.4h5.7v1h-2.8l0.6,0.1c-0.4,0.8-0.8,1.6-1.2,2.1H99.2z M93.9,673.6h5.2
			v1H87.8v-1h5v-2h-3.6v-1h3.6V669h-3c-0.4,0.6-0.8,1.1-1.1,1.5c-0.2-0.2-0.7-0.4-0.9-0.6c0.9-0.8,1.6-2.1,2-3.3l1.1,0.3
			c-0.1,0.4-0.3,0.8-0.5,1.2h2.5v-1.4h1.2v1.4h4.2v1h-4.2v1.7h3.8v1h-3.8V673.6z M89.5,662.8c0.4,0.7,0.8,1.5,0.9,2.1l-0.7,0.2h4.9
			l-0.6-0.2c0.3-0.6,0.7-1.5,0.9-2.1H89.5z"/>
		<path d="M106.5,669c-0.2-0.5-0.8-1.6-1.2-2.4v8.4h-1.2v-7.8c-0.5,1.8-1.3,3.5-2,4.6c-0.1-0.3-0.4-0.8-0.7-1.1c1-1.3,2-3.9,2.5-6
			h-2.2v-1.1h2.3v-3.1h1.2v3.1h2v1.1h-2v0.5c0.4,0.6,1.7,2.6,2,3.1L106.5,669z M113.1,668.3c0.8,1.9,2.1,3.8,3.4,4.8
			c-0.3,0.2-0.7,0.6-0.9,0.9c-1.2-1.1-2.4-3-3.3-5v5.9h-1.2v-5.7c-1,2-2.4,3.9-3.9,5c-0.2-0.3-0.5-0.7-0.8-0.9c1.6-1,3.1-2.9,4-4.9
			h-3.1v-1.1h3.8v-2.8h-2c-0.3,0.9-0.6,1.7-1,2.4c-0.2-0.2-0.7-0.5-1-0.6c0.8-1.2,1.4-3.2,1.6-5.1l1.1,0.2c-0.1,0.7-0.3,1.4-0.4,2
			h1.7v-3h1.2v3h3.1v1.1h-3.1v2.8h3.7v1.1H113.1z"/>
		<path d="M128.1,664.5c0.4,5.4,1.6,9.3,3.2,9.3c0.4,0,0.6-0.9,0.7-3c0.3,0.3,0.7,0.5,1.1,0.7c-0.2,2.8-0.7,3.6-1.9,3.6
			c-2.6,0-3.9-4.6-4.4-10.5h-8.3v-1.2h8.2c0-0.9-0.1-1.9-0.1-2.9h1.2c0,1,0,2,0.1,2.9h4.7v1.2H128.1z M123.2,672.4
			c1.1-0.2,2.3-0.5,3.4-0.7l0.1,1c-2.7,0.7-5.6,1.3-7.7,1.8l-0.4-1.2c0.9-0.2,2.1-0.4,3.3-0.7V668h-2.8v-1.2h7v1.2h-3V672.4z
			 M131.3,663.1c-0.5-0.6-1.5-1.4-2.3-2l0.8-0.7c0.8,0.5,1.8,1.4,2.3,1.9L131.3,663.1z"/>
		<path d="M143,660.4c1.7,2.4,4.5,4.4,7,5.5c-0.3,0.3-0.6,0.7-0.8,1.1c-2.5-1.2-5.3-3.3-6.8-5.4c-1.3,1.9-3.9,4.1-6.6,5.5
			c-0.1-0.3-0.4-0.7-0.7-0.9c2.7-1.3,5.4-3.6,6.6-5.6H143z M136,668.3h13.2v1.1h-7.5c-0.6,1.2-1.2,2.6-1.9,3.7
			c2-0.1,4.2-0.1,6.5-0.2c-0.7-0.8-1.4-1.5-2.1-2.2l1-0.5c1.5,1.3,3,3,3.8,4.2l-1.1,0.7c-0.2-0.3-0.4-0.7-0.7-1.1
			c-3.9,0.2-8.1,0.4-10.8,0.5l-0.2-1.2c0.7,0,1.5,0,2.4-0.1c0.6-1.1,1.3-2.6,1.7-3.7H136V668.3z M146.3,665.3v1.1h-7.6v-1.1H146.3z"
			/>
		<path d="M157.9,670.4c-0.4-0.5-1.3-1.4-2-2v6.6h-1.2v-6.2c-0.8,0.8-1.6,1.5-2.4,2c-0.1-0.3-0.4-0.8-0.6-1.1c1.9-1.1,3.9-3.1,5-5.3
			h-4.4v-1.1h2.5v-3h1.2v3h1.4l0.2,0l0.7,0.4c-0.5,1.2-1.2,2.4-2.1,3.5c0.8,0.6,2.2,1.8,2.6,2.2L157.9,670.4z M166.8,673.4v1.2h-9
			v-1.2h4v-6.6h-3.4v-1.2h3.4v-5.1h1.2v5.1h3.4v1.2H163v6.6H166.8z"/>
	</g>
	<g>
		<path class="st2" d="M182,728.4c1.1,0,2,0.9,2,2v34c0,1.1-0.9,2-2,2H3c-1.1,0-2-0.9-2-2v-34c0-1.1,0.9-2,2-2H182 M182,727.4H3
			c-1.6,0-3,1.3-3,3v34c0,1.6,1.4,3,3,3h179c1.6,0,3-1.4,3-3v-34C185,728.7,183.6,727.4,182,727.4L182,727.4z"/>
	</g>
	<g>
		<path d="M20.1,743.3h-3.6V742h8.6v1.3h-3.6v10.5h-1.5V743.3z"/>
		<path d="M27.3,751.5c0-1.9,1.6-2.8,5.3-3.2c0-1.1-0.4-2.2-1.8-2.2c-1,0-1.9,0.5-2.6,0.9l-0.6-1c0.8-0.5,2-1.1,3.4-1.1
			c2.1,0,3,1.4,3,3.6v5.3h-1.2l-0.1-1h0c-0.8,0.7-1.8,1.2-2.9,1.2C28.4,754,27.3,753.1,27.3,751.5z M32.7,751.6v-2.4
			c-2.9,0.4-3.9,1.1-3.9,2.2c0,1,0.7,1.4,1.5,1.4C31.1,752.8,31.8,752.4,32.7,751.6z"/>
		<path d="M37.7,745.1h1.2l0.1,1.2h0c0.8-0.8,1.7-1.5,2.9-1.5c1.8,0,2.7,1.2,2.7,3.4v5.5h-1.5v-5.3c0-1.6-0.5-2.3-1.6-2.3
			c-0.9,0-1.5,0.4-2.4,1.3v6.3h-1.5V745.1z"/>
		<path d="M47.6,749.4c0-2.8,1.8-4.6,3.8-4.6c1,0,1.7,0.4,2.4,1l-0.1-1.5V741h1.4v12.7H54l-0.1-1h0c-0.7,0.7-1.6,1.2-2.6,1.2
			C49.1,754,47.6,752.3,47.6,749.4z M53.8,751.5V747c-0.8-0.7-1.4-0.9-2.1-0.9c-1.4,0-2.5,1.3-2.5,3.3c0,2.1,0.9,3.3,2.4,3.3
			C52.4,752.7,53.1,752.3,53.8,751.5z"/>
		<path d="M58.3,749.4c0-2.8,1.9-4.6,3.9-4.6c2.2,0,3.5,1.6,3.5,4.1c0,0.3,0,0.6-0.1,0.8h-5.9c0.1,1.9,1.2,3,2.9,3
			c0.8,0,1.5-0.3,2.2-0.7l0.5,1c-0.8,0.5-1.7,0.9-2.9,0.9C60.2,754,58.3,752.3,58.3,749.4z M64.4,748.7c0-1.7-0.8-2.7-2.2-2.7
			c-1.2,0-2.3,1-2.5,2.7H64.4z"/>
		<path d="M68.7,745.1h1.2l0.1,1.3h0c0.8-0.8,1.7-1.5,2.7-1.5c1.3,0,2,0.6,2.4,1.7c0.9-1,1.8-1.7,2.9-1.7c1.8,0,2.6,1.2,2.6,3.4v5.5
			h-1.5v-5.3c0-1.6-0.5-2.3-1.6-2.3c-0.7,0-1.4,0.4-2.2,1.3v6.3h-1.5v-5.3c0-1.6-0.5-2.3-1.6-2.3c-0.7,0-1.4,0.4-2.2,1.3v6.3h-1.5
			V745.1z"/>
		<path d="M83.5,752.2l0.9-1c0.8,0.9,2,1.5,3.2,1.5c1.5,0,2.5-0.8,2.5-1.9c0-1.2-0.8-1.6-2-2.1l-1.7-0.7c-1.1-0.5-2.4-1.3-2.4-3
			c0-1.8,1.6-3.1,3.7-3.1c1.4,0,2.6,0.6,3.5,1.5l-0.8,0.9c-0.7-0.7-1.6-1.1-2.7-1.1c-1.3,0-2.2,0.7-2.2,1.7c0,1.1,1,1.6,1.9,2
			l1.7,0.7c1.4,0.6,2.4,1.4,2.4,3.1c0,1.9-1.5,3.3-4,3.3C86,754,84.6,753.3,83.5,752.2z"/>
		<path d="M94.6,745.1h1.2l0.1,1h0c0.8-0.6,1.8-1.2,2.8-1.2c2.2,0,3.5,1.8,3.5,4.4c0,3-1.8,4.7-3.8,4.7c-0.8,0-1.6-0.4-2.4-1l0,1.5
			v2.9h-1.5V745.1z M100.7,749.3c0-1.9-0.6-3.2-2.3-3.2c-0.7,0-1.5,0.4-2.3,1.2v4.6c0.8,0.7,1.6,0.9,2.1,0.9
			C99.6,752.7,100.7,751.5,100.7,749.3z"/>
		<path d="M105.3,745.1h1.2l0.1,1.6h0c0.6-1.1,1.5-1.8,2.5-1.8c0.4,0,0.7,0,0.9,0.2l-0.3,1.3c-0.3-0.1-0.5-0.1-0.8-0.1
			c-0.7,0-1.6,0.5-2.2,2v5.6h-1.5V745.1z"/>
		<path d="M112.1,742.3c0-0.6,0.4-0.9,1-0.9s1,0.4,1,0.9c0,0.6-0.4,1-1,1S112.1,742.9,112.1,742.3z M112.3,745.1h1.5v8.7h-1.5V745.1
			z"/>
		<path d="M117.5,745.1h1.2l0.1,1.2h0c0.8-0.8,1.7-1.5,2.9-1.5c1.8,0,2.7,1.2,2.7,3.4v5.5H123v-5.3c0-1.6-0.5-2.3-1.6-2.3
			c-0.9,0-1.5,0.4-2.4,1.3v6.3h-1.5V745.1z"/>
		<path d="M128.4,751.1v-4.8h-1.3v-1.1l1.4-0.1l0.2-2.4h1.2v2.4h2.4v1.2h-2.4v4.8c0,1.1,0.3,1.7,1.3,1.7c0.3,0,0.7-0.1,1-0.2
			l0.3,1.1c-0.5,0.2-1.1,0.3-1.6,0.3C129,754,128.4,752.8,128.4,751.1z"/>
		<path d="M134.3,755.9c1-0.4,1.6-1.2,1.6-2.2c-0.1,0-0.1,0-0.2,0c-0.6,0-1.1-0.4-1.1-1c0-0.6,0.5-1,1.1-1c0.8,0,1.2,0.7,1.2,1.7
			c0,1.5-0.9,2.7-2.3,3.3L134.3,755.9z"/>
		<path d="M140.3,742h1.5v11.7h-1.5V742z"/>
		<path d="M145.7,745.1h1.2l0.1,1.2h0c0.8-0.8,1.7-1.5,2.9-1.5c1.8,0,2.7,1.2,2.7,3.4v5.5h-1.5v-5.3c0-1.6-0.5-2.3-1.6-2.3
			c-0.9,0-1.5,0.4-2.4,1.3v6.3h-1.5V745.1z"/>
		<path d="M155.6,749.4c0-2.9,2-4.6,4.2-4.6c1.1,0,1.9,0.5,2.5,1l-0.8,1c-0.5-0.4-1-0.8-1.7-0.8c-1.6,0-2.7,1.4-2.7,3.4
			c0,2,1.1,3.3,2.7,3.3c0.8,0,1.5-0.4,2-0.9l0.6,1c-0.8,0.7-1.8,1.1-2.8,1.1C157.4,754,155.6,752.3,155.6,749.4z"/>
		<path d="M164.9,752.9c0-0.7,0.5-1.1,1.1-1.1s1.1,0.5,1.1,1.1c0,0.7-0.5,1.1-1.1,1.1S164.9,753.5,164.9,752.9z"/>
	</g>
	<g>
		<path d="M604.9,722.9h8.8c0.5,0,1,0,1.4-0.1v1.4c-0.4,0-0.9-0.1-1.4-0.1h-3.8v7.4h4.7c0.5,0,0.9,0,1.3-0.1v1.5
			c-0.4-0.1-1-0.1-1.3-0.1H604c-0.4,0-0.9,0-1.4,0.1v-1.5c0.5,0.1,1,0.1,1.4,0.1h4.5v-7.4h-3.6c-0.3,0-0.9,0-1.3,0.1v-1.4
			C603.9,722.8,604.5,722.9,604.9,722.9z"/>
		<path d="M630.4,723.5c-0.5,1.4-1.6,3.2-2.7,4.7c1.7,1.4,3.6,3.5,4.7,4.8l-1.1,1c-1.1-1.4-2.8-3.3-4.4-4.8
			c-1.7,1.8-3.9,3.6-6.2,4.7l-1-1.1c2.6-1,4.9-2.9,6.6-4.8c1.1-1.2,2.3-3.1,2.7-4.4h-6.2c-0.6,0-1.4,0.1-1.6,0.1v-1.5
			c0.2,0,1.1,0.1,1.6,0.1h6.2c0.5,0,0.9,0,1.2-0.1l0.8,0.6C630.7,722.9,630.5,723.2,630.4,723.5z"/>
		<path d="M642.7,722.2c-0.1,0.2-0.2,0.4-0.3,0.6h4.3c0.4,0,0.8-0.1,1.1-0.2l1.1,0.6c-0.1,0.2-0.3,0.6-0.4,0.9
			c-0.4,1.5-1.3,3.3-2.5,5c0.7,0.5,1.3,1,1.8,1.4l-0.9,1.1c-0.5-0.4-1.1-0.9-1.7-1.5c-1.4,1.6-3.4,3.1-6.1,4.1l-1.2-1
			c2.7-0.8,4.8-2.3,6.2-3.9c-1.2-0.8-2.4-1.7-3.4-2.3l0.9-0.9c1.1,0.6,2.3,1.4,3.4,2.2c1-1.4,1.9-3.1,2.2-4.4h-5.4
			c-1,1.4-2.4,3-4.2,4.2l-1.1-0.8c2.8-1.7,4.4-4.1,5.1-5.6c0.2-0.3,0.4-0.8,0.5-1.3l1.5,0.5C643.1,721.3,642.8,721.9,642.7,722.2z"
			/>
		<path d="M657.2,728.7c-0.2-0.5-0.8-1.6-1.2-2.4v8.4h-1.2v-7.8c-0.5,1.8-1.3,3.5-2,4.6c-0.1-0.3-0.4-0.8-0.7-1.1c1-1.3,2-3.9,2.5-6
			h-2.2v-1.1h2.3v-3.1h1.2v3.1h2v1.1h-2v0.5c0.4,0.6,1.7,2.6,2,3.1L657.2,728.7z M663.8,728.1c0.8,1.9,2.1,3.8,3.4,4.8
			c-0.3,0.2-0.7,0.6-0.9,0.9c-1.2-1.1-2.4-3-3.3-5v5.9h-1.2v-5.7c-1,2-2.4,3.9-3.9,5c-0.2-0.3-0.5-0.7-0.8-0.9c1.6-1,3.1-2.9,4-4.9
			h-3.1V727h3.8v-2.8h-2c-0.3,0.9-0.6,1.7-1,2.4c-0.2-0.2-0.7-0.5-1-0.6c0.8-1.2,1.4-3.2,1.6-5.1l1.1,0.2c-0.1,0.7-0.3,1.4-0.4,2
			h1.7v-3h1.2v3h3.1v1.1h-3.1v2.8h3.7v1.1H663.8z"/>
		<path d="M678.8,724.2c0.4,5.4,1.6,9.3,3.2,9.3c0.4,0,0.6-0.9,0.7-3c0.3,0.3,0.7,0.5,1.1,0.7c-0.2,2.8-0.7,3.6-1.9,3.6
			c-2.6,0-3.9-4.6-4.4-10.5h-8.3v-1.2h8.2c0-0.9-0.1-1.9-0.1-2.9h1.2c0,1,0,2,0.1,2.9h4.7v1.2H678.8z M673.9,732.1
			c1.1-0.2,2.3-0.5,3.4-0.7l0.1,1c-2.7,0.7-5.6,1.3-7.7,1.8l-0.4-1.2c0.9-0.2,2.1-0.4,3.3-0.7v-4.6h-2.8v-1.2h7v1.2h-3V732.1z
			 M682,722.9c-0.5-0.6-1.5-1.4-2.3-2l0.8-0.7c0.8,0.5,1.8,1.4,2.3,1.9L682,722.9z"/>
		<path d="M693.7,720.1c1.7,2.4,4.5,4.4,7,5.5c-0.3,0.3-0.6,0.7-0.8,1.1c-2.5-1.2-5.3-3.3-6.8-5.4c-1.3,1.9-3.9,4.1-6.6,5.5
			c-0.1-0.3-0.4-0.7-0.7-0.9c2.7-1.3,5.4-3.6,6.6-5.6H693.7z M686.7,728.1h13.2v1.1h-7.5c-0.6,1.2-1.2,2.6-1.9,3.7
			c2-0.1,4.2-0.1,6.5-0.2c-0.7-0.8-1.4-1.5-2.1-2.2l1-0.5c1.5,1.3,3,3,3.8,4.2l-1.1,0.7c-0.2-0.3-0.4-0.7-0.7-1.1
			c-3.9,0.2-8.1,0.4-10.8,0.5l-0.2-1.2c0.7,0,1.5,0,2.4-0.1c0.6-1.1,1.3-2.6,1.7-3.7h-4.2V728.1z M697,725v1.1h-7.6V725H697z"/>
		<path d="M708.6,730.1c-0.4-0.5-1.3-1.4-2-2v6.6h-1.2v-6.2c-0.8,0.8-1.6,1.5-2.4,2c-0.1-0.3-0.4-0.8-0.6-1.1c1.9-1.1,3.9-3.1,5-5.3
			h-4.5v-1.1h2.5v-3h1.2v3h1.4l0.2,0l0.7,0.4c-0.5,1.2-1.2,2.4-2.1,3.5c0.8,0.6,2.2,1.8,2.6,2.2L708.6,730.1z M717.5,733.1v1.2h-9
			v-1.2h4v-6.6h-3.4v-1.2h3.4v-5.1h1.2v5.1h3.4v1.2h-3.4v6.6H717.5z"/>
	</g>
	<g>
		<path d="M555.2,783.9v3.6c1.9-0.5,4.4-1.2,6.1-2c0.5-0.2,1-0.4,1.4-0.7l0.6,1.3c-0.4,0.2-1,0.4-1.5,0.6c-1.8,0.7-4.6,1.6-6.5,2.1
			v3.5c0,0.8,0.3,1,1.1,1.2c0.5,0.1,1.3,0.1,2.1,0.1c1.7,0,4.1-0.2,5.5-0.5v1.5c-1.4,0.2-3.8,0.3-5.5,0.3c-0.9,0-1.9,0-2.6-0.2
			c-1.2-0.2-1.9-0.8-1.9-2.1v-8.8c0-0.4,0-0.9-0.1-1.3h1.5C555.2,782.9,555.2,783.4,555.2,783.9z M563.8,784.2l-0.9,0.4
			c-0.3-0.7-0.9-1.6-1.3-2.2l0.8-0.4C562.9,782.6,563.4,783.6,563.8,784.2z M565.6,783.6l-0.9,0.4c-0.4-0.7-0.9-1.6-1.3-2.2l0.8-0.4
			C564.6,782,565.3,783,565.6,783.6z"/>
		<path d="M571.5,787.7h8.8c0.8,0,1.4,0,1.7-0.1v1.6c-0.3,0-1-0.1-1.7-0.1h-8.8c-0.9,0-1.7,0-2.2,0.1v-1.6
			C569.7,787.7,570.6,787.7,571.5,787.7z"/>
		<path d="M588.1,784h8.8c0.5,0,1,0,1.4-0.1v1.4c-0.4,0-0.9-0.1-1.4-0.1H593v7.4h4.7c0.5,0,0.9,0,1.3-0.1v1.5
			c-0.4-0.1-1-0.1-1.3-0.1h-10.6c-0.4,0-0.9,0-1.4,0.1v-1.5c0.5,0.1,1,0.1,1.4,0.1h4.5v-7.4h-3.6c-0.3,0-0.9,0-1.3,0.1v-1.4
			C587.1,783.9,587.7,784,588.1,784z"/>
		<path d="M605,790.2c0.5-1.5,0.5-4.7,0.5-6.4c0-0.5,0-0.8-0.1-1.2h1.5c0,0.2-0.1,0.7-0.1,1.2c0,1.8-0.1,5.2-0.5,6.8
			c-0.5,1.7-1.5,3.3-2.8,4.4l-1.2-0.8C603.6,793.2,604.6,791.8,605,790.2z M609.7,793.3v-9.6c0-0.6-0.1-1.1-0.1-1.2h1.5
			c0,0.1-0.1,0.6-0.1,1.2v9.2c1.5-0.7,3.4-2.1,4.7-3.9l0.8,1.1c-1.4,1.9-3.6,3.5-5.5,4.4c-0.3,0.1-0.4,0.3-0.5,0.4l-0.8-0.7
			C609.7,794,609.7,793.7,609.7,793.3z"/>
		<path d="M631.6,783.9l-0.8,0.4l0.8,0.4c-0.1,0.2-0.3,0.6-0.4,0.8c-0.4,1.5-1.3,3.4-2.5,5c0.7,0.5,1.3,1,1.8,1.4l-0.9,1.1
			c-0.5-0.4-1.1-0.9-1.7-1.4c-1.4,1.6-3.4,3-6.1,4.1l-1.2-1c2.7-0.8,4.8-2.3,6.2-3.8c-1.1-0.8-2.4-1.7-3.4-2.3l0.9-0.9
			c1.1,0.6,2.3,1.4,3.4,2.2c1-1.4,1.9-3.1,2.2-4.4h-5.4c-1,1.4-2.4,3-4.2,4.2l-1.1-0.8c2.8-1.7,4.4-4.1,5.1-5.6
			c0.2-0.3,0.4-0.8,0.5-1.3l1.5,0.5c-0.3,0.4-0.6,1-0.7,1.3c-0.1,0.2-0.2,0.4-0.3,0.6h4.3c0.4,0,0.8,0,1.1-0.1l0.3,0.2
			c-0.3-0.6-0.8-1.6-1.3-2.2l0.8-0.4C630.6,782.2,631.2,783.2,631.6,783.9z M633.3,783.2l-0.9,0.4c-0.4-0.7-0.9-1.6-1.3-2.2l0.8-0.4
			C632.4,781.6,633,782.6,633.3,783.2z"/>
		<path d="M643.2,785.8c1.7-1,3.3-2.4,4.4-3.8l1.1,1c-1.2,1.3-2.7,2.5-4.3,3.6v6.8c0,0.6,0,1.4,0.1,1.7h-1.6c0-0.3,0.1-1.1,0.1-1.7
			v-5.9c-1.7,1-3.9,1.9-6.1,2.6l-0.6-1.2C638.9,788,641.4,786.9,643.2,785.8z"/>
		<path d="M654.8,792.1h9.6c0.5,0,1,0,1.5-0.1v1.5c-0.5,0-1-0.1-1.5-0.1h-9.6c-0.6,0-1.1,0-1.7,0.1v-1.5
			C653.6,792.1,654.2,792.1,654.8,792.1z M656,784.2h6.9c0.6,0,1.1,0,1.6-0.1v1.4c-0.4,0-1.1,0-1.6,0H656c-0.6,0-1.1,0-1.6,0v-1.4
			C655,784.2,655.5,784.2,656,784.2z"/>
		<path d="M677.1,791.2c2.5-1.6,4.4-3.9,5.3-5.9l0.8,1.4c-1.1,2-3,4.2-5.4,5.7c-1.6,1-3.6,2-6.3,2.5l-0.8-1.3
			C673.5,793.1,675.5,792.2,677.1,791.2z M676.1,786.1l-1,1c-0.8-0.8-2.8-2.5-4-3.3l0.9-1C673.2,783.6,675.2,785.3,676.1,786.1z"/>
		<path d="M692.4,783.8c-0.1,0.2-0.2,0.4-0.4,0.7h4.3c0.4,0,0.8,0,1-0.1l1.1,0.6c-0.1,0.2-0.3,0.6-0.4,0.8c-0.4,1.6-1.4,3.8-2.8,5.5
			c-1.5,1.8-3.4,3.2-6.4,4.4l-1.2-1.1c2.9-0.9,4.9-2.3,6.4-4c1.2-1.5,2.2-3.5,2.5-5h-5.4c-1,1.4-2.3,2.8-4.1,3.9l-1.1-0.8
			c2.8-1.6,4.3-4,5-5.4c0.2-0.3,0.4-0.9,0.5-1.3l1.5,0.5C692.9,782.9,692.6,783.5,692.4,783.8z M698.8,784l-0.9,0.4
			c-0.3-0.6-0.9-1.6-1.3-2.2l0.8-0.4C697.8,782.3,698.4,783.3,698.8,784z M700.6,783.3l-0.9,0.4c-0.4-0.7-0.9-1.6-1.3-2.2l0.8-0.4
			C699.6,781.7,700.2,782.7,700.6,783.3z"/>
		<path d="M707.6,789.8c-0.2-0.5-0.8-1.6-1.2-2.4v8.4h-1.2V788c-0.5,1.8-1.3,3.5-2,4.6c-0.1-0.3-0.4-0.8-0.7-1.1c1-1.3,2-3.9,2.5-6
			h-2.2v-1.1h2.3v-3.1h1.2v3.1h2v1.1h-2v0.5c0.4,0.6,1.7,2.6,2,3.1L707.6,789.8z M714.2,789.2c0.8,1.9,2.1,3.8,3.4,4.8
			c-0.3,0.2-0.7,0.6-0.9,0.9c-1.2-1.1-2.4-3-3.3-5v5.9h-1.2V790c-1,2-2.4,3.9-3.9,5c-0.2-0.3-0.5-0.7-0.8-0.9c1.6-1,3.1-2.9,4-4.9
			h-3.1v-1.1h3.8v-2.8h-2c-0.3,0.9-0.6,1.7-1,2.4c-0.2-0.2-0.7-0.5-1-0.6c0.8-1.2,1.4-3.2,1.6-5.1l1.1,0.2c-0.1,0.7-0.3,1.4-0.4,2
			h1.7v-3h1.2v3h3.1v1.1h-3.1v2.8h3.7v1.1H714.2z"/>
		<path d="M729.2,785.3c0.4,5.4,1.6,9.3,3.2,9.3c0.4,0,0.6-0.9,0.7-3c0.3,0.3,0.7,0.5,1.1,0.7c-0.2,2.8-0.7,3.6-1.9,3.6
			c-2.6,0-3.9-4.6-4.4-10.5h-8.3v-1.2h8.2c0-0.9-0.1-1.9-0.1-2.9h1.2c0,1,0,2,0.1,2.9h4.7v1.2H729.2z M724.3,793.2
			c1.1-0.2,2.3-0.5,3.4-0.7l0.1,1c-2.7,0.7-5.6,1.3-7.7,1.8l-0.4-1.2c0.9-0.2,2.1-0.4,3.3-0.7v-4.6h-2.8v-1.2h7v1.2h-3V793.2z
			 M732.4,784c-0.5-0.6-1.5-1.4-2.3-2l0.8-0.7c0.8,0.5,1.8,1.4,2.3,1.9L732.4,784z"/>
		<path d="M744.1,781.2c1.7,2.4,4.5,4.4,7,5.5c-0.3,0.3-0.6,0.7-0.8,1.1c-2.5-1.2-5.3-3.3-6.8-5.4c-1.3,1.9-3.9,4.1-6.6,5.5
			c-0.1-0.3-0.4-0.7-0.7-0.9c2.7-1.3,5.4-3.6,6.6-5.6H744.1z M737.1,789.2h13.2v1.1h-7.5c-0.6,1.2-1.2,2.6-1.9,3.7
			c2-0.1,4.2-0.1,6.5-0.2c-0.7-0.8-1.4-1.5-2.1-2.2l1-0.5c1.5,1.3,3,3,3.8,4.2l-1.1,0.7c-0.2-0.3-0.4-0.7-0.7-1.1
			c-3.9,0.2-8.1,0.4-10.8,0.5l-0.2-1.2c0.7,0,1.5,0,2.4-0.1c0.6-1.1,1.3-2.6,1.7-3.7h-4.2V789.2z M747.4,786.1v1.1h-7.6v-1.1H747.4z
			"/>
		<path d="M759,791.2c-0.4-0.5-1.3-1.4-2-2v6.6h-1.2v-6.2c-0.8,0.8-1.6,1.5-2.4,2c-0.1-0.3-0.4-0.8-0.6-1.1c1.9-1.1,3.9-3.1,5-5.3
			h-4.5v-1.1h2.5v-3h1.2v3h1.4l0.2,0l0.7,0.4c-0.5,1.2-1.2,2.4-2.1,3.5c0.8,0.6,2.2,1.8,2.6,2.2L759,791.2z M767.9,794.2v1.2h-9
			v-1.2h4v-6.6h-3.4v-1.2h3.4v-5.1h1.2v5.1h3.4v1.2h-3.4v6.6H767.9z"/>
	</g>
	<g>
		<path d="M573.7,843.6c-0.6,1.1-2.2,3.2-4,4.4l-1.1-0.8c1.5-0.8,3-2.6,3.5-3.6H563c-0.6,0-1.2,0-1.8,0.1v-1.5
			c0.6,0.1,1.2,0.1,1.8,0.1h9.2c0.3,0,0.9,0,1.1-0.1l0.8,0.8C574,843.2,573.8,843.4,573.7,843.6z M563.2,854.4l-1.2-1
			c0.4-0.1,1-0.4,1.4-0.7c2.5-1.5,2.8-3.8,2.8-6.5c0-0.4,0-0.7-0.1-1.2h1.4C567.7,849.5,567.3,852.4,563.2,854.4z"/>
		<path d="M579.9,847h8.8c0.8,0,1.4,0,1.7-0.1v1.6c-0.3,0-1-0.1-1.7-0.1h-8.8c-0.9,0-1.7,0-2.2,0.1v-1.6
			C578.1,846.9,579,847,579.9,847z"/>
		<path d="M600.7,842.7c-0.1,0.2-0.2,0.4-0.4,0.7h4.3c0.4,0,0.8,0,1-0.2l1.1,0.7c-0.1,0.2-0.3,0.6-0.4,0.8c-0.4,1.6-1.4,3.8-2.8,5.5
			c-1.5,1.8-3.4,3.2-6.4,4.4l-1.2-1c2.9-0.9,4.9-2.3,6.4-4c1.2-1.5,2.2-3.5,2.6-5h-5.4c-1,1.3-2.3,2.8-4.1,3.9l-1.1-0.8
			c2.8-1.6,4.3-4,5-5.4c0.2-0.3,0.4-0.8,0.5-1.3l1.5,0.5C601.1,841.8,600.8,842.4,600.7,842.7z"/>
		<path d="M623.1,844c-0.3,1.7-1.1,4.3-2.4,5.9c-1.5,1.9-3.4,3.4-6.3,4.3l-1.1-1.2c3.1-0.8,4.9-2.1,6.2-3.9c1.1-1.5,1.9-3.7,2.1-5.2
			h-8.2c-0.6,0-1.2,0-1.6,0v-1.4c0.4,0,1.1,0.1,1.6,0.1h8c0.2,0,0.5,0,0.8-0.1l1,0.6C623.3,843.4,623.2,843.7,623.1,844z"/>
		<path d="M634.1,847.3c1.5-0.9,3-2.2,3.8-3.3l1,1c-0.8,0.9-2.2,2-3.6,3v5.7c0,0.5,0,1.2,0.1,1.4h-1.5c0-0.3,0.1-0.9,0.1-1.4v-4.9
			c-1.3,0.7-3.2,1.6-5,2.1l-0.6-1.2C630.5,849.2,632.8,848.1,634.1,847.3z"/>
		<path d="M647.1,847h8.8c0.8,0,1.4,0,1.7-0.1v1.6c-0.3,0-1-0.1-1.7-0.1h-8.8c-0.9,0-1.7,0-2.2,0.1v-1.6
			C645.3,846.9,646.2,847,647.1,847z"/>
		<path d="M663.8,849.5c0.5-1.5,0.5-4.7,0.5-6.4c0-0.5,0-0.8-0.1-1.2h1.5c0,0.2-0.1,0.7-0.1,1.2c0,1.8-0.1,5.2-0.5,6.8
			c-0.5,1.7-1.5,3.3-2.8,4.4l-1.2-0.8C662.4,852.5,663.4,851,663.8,849.5z M668.5,852.6V843c0-0.6-0.1-1.1-0.1-1.2h1.5
			c0,0.1-0.1,0.6-0.1,1.2v9.2c1.5-0.7,3.4-2.1,4.7-3.9l0.8,1.1c-1.4,1.9-3.6,3.5-5.5,4.4c-0.3,0.1-0.4,0.3-0.5,0.4l-0.8-0.7
			C668.5,853.2,668.5,852.9,668.5,852.6z"/>
		<path d="M681.7,843.3c0-0.4,0-1.2-0.1-1.7h1.6c-0.1,0.5-0.1,1.2-0.1,1.7v2.6c2.1,0.7,5.1,1.8,6.8,2.6l-0.6,1.4
			c-1.7-0.9-4.5-2-6.3-2.6v5.3c0,0.5,0,1.4,0.1,1.9h-1.5c0.1-0.5,0.1-1.3,0.1-1.9V843.3z M688.8,844.7l-0.9,0.4
			c-0.4-0.8-0.9-1.7-1.4-2.4l0.9-0.4C687.7,842.9,688.4,844,688.8,844.7z M690.7,843.9l-0.9,0.4c-0.4-0.8-0.9-1.7-1.5-2.4l0.9-0.4
			C689.7,842.1,690.4,843.1,690.7,843.9z"/>
		<path d="M699.2,849c-0.2-0.5-0.8-1.6-1.2-2.4v8.4h-1.2v-7.8c-0.5,1.8-1.3,3.5-2,4.6c-0.1-0.3-0.4-0.8-0.7-1.1c1-1.3,2-3.9,2.5-6
			h-2.2v-1.1h2.3v-3.1h1.2v3.1h2v1.1h-2v0.5c0.4,0.6,1.7,2.6,2,3.1L699.2,849z M705.8,848.4c0.8,1.9,2.1,3.8,3.4,4.8
			c-0.3,0.2-0.7,0.6-0.9,0.9c-1.2-1.1-2.4-3-3.3-5v5.9h-1.2v-5.7c-1,2-2.4,3.9-3.9,5c-0.2-0.3-0.5-0.7-0.8-0.9c1.6-1,3.1-2.9,4-4.9
			h-3.1v-1.1h3.8v-2.8h-2c-0.3,0.9-0.6,1.7-1,2.4c-0.2-0.2-0.7-0.5-1-0.6c0.8-1.2,1.4-3.2,1.6-5.1l1.1,0.2c-0.1,0.7-0.3,1.4-0.4,2
			h1.7v-3h1.2v3h3.1v1.1h-3.1v2.8h3.7v1.1H705.8z"/>
		<path d="M720.8,844.6c0.4,5.4,1.6,9.3,3.2,9.3c0.4,0,0.6-0.9,0.7-3c0.3,0.3,0.7,0.5,1.1,0.7c-0.2,2.8-0.7,3.6-1.9,3.6
			c-2.6,0-3.9-4.6-4.4-10.5h-8.3v-1.2h8.2c0-0.9-0.1-1.9-0.1-2.9h1.2c0,1,0,2,0.1,2.9h4.7v1.2H720.8z M715.9,852.5
			c1.1-0.2,2.3-0.5,3.4-0.7l0.1,1c-2.7,0.7-5.6,1.3-7.7,1.8l-0.4-1.2c0.9-0.2,2.1-0.4,3.3-0.7v-4.6h-2.8v-1.2h7v1.2h-3V852.5z
			 M724,843.2c-0.5-0.6-1.5-1.4-2.3-2l0.8-0.7c0.8,0.5,1.8,1.4,2.3,1.9L724,843.2z"/>
		<path d="M735.7,840.5c1.7,2.4,4.5,4.4,7,5.5c-0.3,0.3-0.6,0.7-0.8,1.1c-2.5-1.2-5.3-3.3-6.8-5.4c-1.3,1.9-3.9,4.1-6.6,5.5
			c-0.1-0.3-0.4-0.7-0.7-0.9c2.7-1.3,5.4-3.6,6.6-5.6H735.7z M728.7,848.4h13.2v1.1h-7.5c-0.6,1.2-1.2,2.6-1.9,3.7
			c2-0.1,4.2-0.1,6.5-0.2c-0.7-0.8-1.4-1.5-2.1-2.2l1-0.5c1.5,1.3,3,3,3.8,4.2l-1.1,0.7c-0.2-0.3-0.4-0.7-0.7-1.1
			c-3.9,0.2-8.1,0.4-10.8,0.5l-0.2-1.2c0.7,0,1.5,0,2.4-0.1c0.6-1.1,1.3-2.6,1.7-3.7h-4.2V848.4z M739,845.4v1.1h-7.6v-1.1H739z"/>
		<path d="M750.6,850.5c-0.4-0.5-1.3-1.4-2-2v6.6h-1.2v-6.2c-0.8,0.8-1.6,1.5-2.4,2c-0.1-0.3-0.4-0.8-0.6-1.1c1.9-1.1,3.9-3.1,5-5.3
			h-4.5v-1.1h2.5v-3h1.2v3h1.4l0.2,0l0.7,0.4c-0.5,1.2-1.2,2.4-2.1,3.5c0.8,0.6,2.2,1.8,2.6,2.2L750.6,850.5z M759.5,853.4v1.2h-9
			v-1.2h4v-6.6h-3.4v-1.2h3.4v-5.1h1.2v5.1h3.4v1.2h-3.4v6.6H759.5z"/>
	</g>
</g>
</svg>
